<svg width="62" height="62" viewBox="0 0 62 62" fill="none" xmlns="http://www.w3.org/2000/svg">
    <path d="M30.7725 57.2958C46.07 57.2958 58.5451 45.4052 58.5451 30.6479C58.5451 15.8907 46.07 4 30.7725 4C15.4751 4 3 15.8907 3 30.6479C3 45.4052 15.4751 57.2958 30.7725 57.2958Z" stroke="#40B3F4" stroke-width="2"/>
    <path d="M30.5 11C19.7533 11 11 19.7533 11 30.5C11 41.2467 19.7533 50 30.5 50C41.2467 50 50 41.2467 50 30.5C50 19.7533 41.2467 11 30.5 11ZM30.5 46.8222C26.6144 46.8222 23.0467 45.4644 20.2444 43.1822L23.9278 39.4989L23.61 35.31L17.9767 40.9433C15.6078 38.1122 14.1778 34.4722 14.1778 30.5C14.1778 23.8122 18.2222 18.0633 24 15.5356C24.3611 13.73 25.1556 12.3722 25.2567 12.1844C25.2711 12.1556 25.2856 12.1267 25.3144 12.0978C25.3578 12.04 25.4156 11.9822 25.4733 11.9389C25.6033 11.8522 25.7622 11.7944 25.9356 11.7944C26.3689 11.7944 26.73 12.1556 26.73 12.5889C26.73 12.6322 26.73 12.6756 26.7156 12.7333C26.7011 12.8922 26.6867 13.0367 26.6722 13.1956C26.73 13.1811 26.7878 13.1811 26.86 13.1811C27.1344 13.1811 27.3944 13.3256 27.5389 13.5711C27.5678 13.6 27.7411 13.8889 27.9433 14.38C27.9722 14.38 28.0011 14.3656 28.03 14.3656C28.1889 13.7878 28.4778 13.1811 28.9978 12.5456C29.1567 12.3578 29.3733 12.2567 29.6189 12.2567C29.6911 12.2567 29.7633 12.2711 29.8356 12.2856C30.1389 12.3722 30.37 12.6322 30.3989 12.95C30.4278 13.2389 30.5 13.6722 30.5867 14.1778C34.5156 14.2067 38.1267 15.6222 40.9433 17.9767L37.7367 21.1833C37.78 21.6311 37.8667 22.1511 38.0256 22.7C38.2711 23.5089 38.3433 24.3322 38.2711 25.1411L43.1822 20.23C45.45 23.0322 46.8222 26.6 46.8222 30.4856C46.8222 39.4989 39.4989 46.8222 30.5 46.8222Z" fill="black"/>
    <path d="M22.9456 24.5344C23.74 20.1578 22.9456 18.5689 22.9456 18.5689C22.9456 18.5689 24.1011 18.5978 24.5345 21.3566C24.8234 23.1766 25.0256 23.6244 25.4878 23.6244C25.95 23.6244 26.3111 22.8011 25.0256 19.4933C23.74 16.1711 25.9356 12.5889 25.9356 12.5889C25.9356 12.5889 25.4734 16.2578 26.3978 16.2578C27.3223 16.2578 26.86 13.9611 26.86 13.9611C26.86 13.9611 28.2323 16.2578 27.7845 19.0166C27.3223 21.7755 29.3156 21.6455 29.3156 19.3489C29.3156 17.0522 27.7267 15.3622 29.6189 13.0366C29.6189 13.0366 30.0811 16.7055 30.9911 18.0922C31.9011 19.4789 32.8834 17.3555 32.3634 15.7955C32.3634 15.7955 35.0645 17.0522 33.6778 19.3489C32.3056 21.6455 35.2667 23.6389 35.2667 21.3422C35.2667 19.0455 36.9423 18.0922 37.8667 17.63C37.8667 17.63 36.22 19.4355 37.26 22.9311C38.3 26.4266 36.0323 30.0233 31.4389 30.4855C26.86 30.9622 22.3245 27.9144 22.9456 24.5344Z" fill="black"/>
    <path d="M36.5377 28.2033H31.9155V27.8711C31.9155 27.5678 31.6699 27.3222 31.3666 27.3222H29.2433C28.9399 27.3222 28.6944 27.5678 28.6944 27.8711V28.2033H24.0722C23.711 28.2033 23.4077 28.4922 23.4077 28.8678V30.1822C23.4077 30.5433 23.6966 30.8466 24.0722 30.8466H24.0866L25.1266 44.6844C25.1555 45.0022 25.4155 45.2333 25.7188 45.2333H34.891C35.2088 45.2333 35.4688 44.9878 35.4833 44.6844L36.5233 30.8466H36.5377C36.8988 30.8466 37.2022 30.5578 37.2022 30.1822V28.8678C37.2022 28.4922 36.8988 28.2033 36.5377 28.2033ZM27.2644 42.6044C27.2499 42.6044 27.2355 42.6044 27.221 42.6044C26.9899 42.6044 26.8022 42.4311 26.7877 42.2L25.9066 32.7533C25.8777 32.5078 26.0655 32.2911 26.311 32.2766C26.5566 32.2478 26.7733 32.4355 26.7877 32.6811L27.6688 42.1278C27.6833 42.3733 27.4955 42.59 27.2644 42.6044ZM30.7455 42.2866C30.7455 42.5322 30.5433 42.72 30.3122 42.72C30.0666 42.72 29.8788 42.5178 29.8788 42.2866V32.5944C29.8788 32.3489 30.081 32.1611 30.3122 32.1611C30.5577 32.1611 30.7455 32.3633 30.7455 32.5944V42.2866ZM33.8222 42.2144C33.8077 42.4455 33.6055 42.6189 33.3888 42.6189C33.3744 42.6189 33.3599 42.6189 33.3455 42.6189C33.0999 42.59 32.9266 42.3878 32.941 42.1422L33.8222 32.6955C33.851 32.45 34.0533 32.2766 34.2988 32.2911C34.5444 32.32 34.7177 32.5222 34.7033 32.7678L33.8222 42.2144Z" fill="black"/>
</svg>
