<svg width="72" height="73" viewBox="0 0 72 73" fill="none" xmlns="http://www.w3.org/2000/svg">
    <path d="M35.7362 67.2834C53.4317 67.2834 67.8269 53.3427 67.8269 36.0851C67.8269 18.8274 53.4317 4.88672 35.7362 4.88672C18.0406 4.88672 3.64551 18.8274 3.64551 36.0851C3.64551 53.3427 18.0406 67.2834 35.7362 67.2834Z" stroke="#E2C62F" stroke-width="2"/>
    <path d="M51.1386 24.5454C50.0372 23.2995 48.1243 23.1653 46.8491 24.2578L26.9088 41.5084L23.2376 35.3174C22.3875 33.8798 20.5326 33.4006 19.0834 34.244C17.6343 35.0874 17.1512 36.9274 18.0014 38.365L23.5082 47.6994C23.9719 48.4661 24.7448 49.0028 25.6336 49.1562C25.7881 49.1753 25.962 49.1945 26.1166 49.1945C26.8509 49.1945 27.5464 48.9261 28.1068 48.447L50.8294 28.8005C52.1047 27.708 52.2399 25.8104 51.1386 24.5454Z" fill="#92BA2A"/>
    <path d="M14.2718 44.4598C14.1945 45.0348 14.6196 45.5715 15.1992 45.629C15.7789 45.7057 16.3199 45.284 16.3779 44.709C16.4552 44.0956 17.1701 43.7698 17.827 43.7123C18.1362 43.6931 18.4453 43.7123 18.7738 43.7889L17.4985 41.623C15.7402 41.8531 14.465 42.9648 14.2718 44.4598Z" fill="#B2E7FF"/>
    <path d="M28.7638 37.0992C28.0103 36.7542 27.1794 36.4667 26.252 36.2559L27.4306 38.2493L28.7638 37.0992Z" fill="#B2E7FF"/>
    <path d="M20.648 46.9893C20.4161 47.8519 19.7205 48.6186 18.9283 49.1169C17.4405 50.0561 14.9867 50.4778 12.8806 48.5802C11.3541 47.2002 10.929 45.0918 11.7599 43.06C12.5328 41.1433 14.0978 39.8591 15.9721 39.0349C15.6629 38.3832 15.489 37.674 15.4697 36.9648C12.9772 37.9615 10.8517 39.6483 9.78904 42.2742C8.64904 45.1109 9.30599 48.1969 11.4507 50.1328C12.9772 51.5128 14.6389 52.0303 16.1653 52.0303C17.6531 52.0303 19.0249 51.5512 20.0683 50.8995C20.8412 50.4011 21.4788 49.8069 21.9426 49.1361C21.846 49.0211 21.7687 48.8869 21.6914 48.7527L20.648 46.9893Z" fill="#B2E7FF"/>
    <path d="M61.2826 43.4428C61.2053 43.5003 53.2833 49.0588 43.8348 47.1037C40.666 46.4521 38.6179 45.187 36.8596 43.6728L35.2559 45.072C37.2074 46.7971 39.6613 48.388 43.4097 49.1738C53.7856 51.3206 62.1714 45.417 62.5385 45.1487C63.0215 44.8037 63.1182 44.152 62.7704 43.6728C62.4226 43.2128 61.7463 43.0978 61.2826 43.4428Z" fill="#B2E7FF"/>
    <path d="M24.9956 30.0836C28.0871 30.6203 30.3671 32.0962 32.4925 33.8596L34.1156 32.4604C31.7389 30.4478 29.0918 28.6461 25.3627 27.9944C15.5858 26.2885 7.6058 34.2046 7.258 34.5496C6.85224 34.9713 6.85224 35.623 7.27732 36.0447C7.70241 36.4472 8.35936 36.4472 8.78444 36.0255C8.86173 35.968 16.32 28.5694 24.9956 30.0836Z" fill="#B2E7FF"/>
    <path d="M63.5239 33.9943C63.0988 33.5917 62.4226 33.6301 62.0168 34.0518C61.9588 34.1093 55.6212 40.7411 46.6365 39.9745C45.0328 39.8403 43.6609 39.4378 42.405 38.8627L40.666 40.3578C42.3277 41.2395 44.2019 41.872 46.4433 42.0637C47.0229 42.1212 47.5833 42.1404 48.1243 42.1404C57.2443 42.1404 63.3114 35.7576 63.5819 35.4701C63.9876 35.0676 63.949 34.3968 63.5239 33.9943Z" fill="#B2E7FF"/>
    <path d="M9.61491 28.4928C9.6922 28.4353 17.6335 21.8801 27.0627 23.816C31.642 24.7552 33.864 26.9786 36.2406 29.3361C36.4725 29.5661 36.7043 29.7961 36.9362 30.0262L38.5399 28.6461C38.2694 28.3969 38.0182 28.1286 37.7477 27.8602C35.3711 25.5027 32.6854 22.8384 27.5071 21.7651C17.0732 19.6183 8.61017 26.5952 8.24305 26.8827C7.79865 27.2661 7.74068 27.9369 8.12712 28.3778C8.49424 28.8186 9.17051 28.8761 9.61491 28.4928Z" fill="#B2E7FF"/>
    <path d="M56.6256 26.4614C56.7029 25.8864 56.2778 25.3497 55.6982 25.2922C55.1185 25.2155 54.5775 25.6372 54.5195 26.2122C54.4809 26.5189 54.2683 26.7681 53.9785 26.9406C53.9206 27.784 53.6307 28.589 53.167 29.3173C53.2056 29.3173 53.2443 29.3173 53.2829 29.3173C55.0992 29.1448 56.4517 27.9948 56.6256 26.4614Z" fill="#B2E7FF"/>
    <path d="M51.9883 21.8034C53.4761 20.8642 55.93 20.4425 58.0361 22.34C59.5625 23.7201 59.9876 25.8285 59.1567 27.8602C57.6496 31.617 53.109 32.9779 49.1673 33.0162L46.8486 35.0096C47.3703 35.0671 47.9113 35.1055 48.4717 35.1055C48.6263 35.1055 48.7808 35.1055 48.9354 35.1055C53.6306 35.1055 59.1761 33.4187 61.1083 28.6269C62.2482 25.7901 61.5913 22.7042 59.4466 20.7683C56.471 18.0657 52.9351 18.6791 50.829 20.0016C50.1913 20.4041 49.6696 20.8833 49.2446 21.4008C50.0561 21.4583 50.829 21.7075 51.5052 22.11C51.6598 22.0334 51.8144 21.9184 51.9883 21.8034Z" fill="#B2E7FF"/>
    <path d="M13.1709 19.6951C13.3448 19.6184 28.9956 12.6032 39.5841 23.6819C39.7966 23.8928 40.0671 24.0078 40.357 24.0078C40.6275 24.0078 40.8787 23.9119 41.0912 23.7202C41.5163 23.3177 41.5356 22.6469 41.1298 22.2252C36.3187 17.1842 29.7878 14.8266 22.2523 15.3825C16.6296 15.8042 12.456 17.7017 12.2821 17.7784C11.7411 18.0276 11.5093 18.6409 11.7604 19.1776C12.0116 19.6951 12.6492 19.9251 13.1709 19.6951Z" fill="#B2E7FF"/>
    <path d="M59.3308 52.126C59.1763 52.2026 43.5061 59.1987 32.937 48.1392C32.5313 47.7175 31.855 47.6983 31.4299 48.1008C31.0048 48.5033 30.9855 49.1742 31.3913 49.5959C35.7387 54.1385 41.4773 56.5153 48.1048 56.5153C48.8197 56.5153 49.5346 56.4961 50.2688 56.4386C55.8915 56.0169 60.0651 54.1385 60.239 54.0427C60.78 53.7935 61.0118 53.1802 60.7607 52.6435C60.4902 52.1068 59.8525 51.8768 59.3308 52.126Z" fill="#B2E7FF"/>
</svg>