<?xml version="1.0" encoding="UTF-8" standalone="no"?>
<!DOCTYPE svg PUBLIC "-//W3C//DTD SVG 1.1//EN" "http://www.w3.org/Graphics/SVG/1.1/DTD/svg11.dtd">
<svg width="100%" height="100%" viewBox="0 0 3000 3000" version="1.1" xmlns="http://www.w3.org/2000/svg" xmlns:xlink="http://www.w3.org/1999/xlink" xml:space="preserve" xmlns:serif="http://www.serif.com/" style="fill-rule:evenodd;clip-rule:evenodd;stroke-linecap:round;stroke-linejoin:round;stroke-miterlimit:1.5;">
    <circle cx="1504.37" cy="1496.36" r="1474.53" style="fill:rgb(253,223,146);"/>
    <clipPath id="_clip1">
        <circle cx="1504.37" cy="1496.36" r="1474.53"/>
    </clipPath>
    <g clip-path="url(#_clip1)">
        <g transform="matrix(0.902384,0,0,0.930243,87.6842,190.486)">
            <path d="M1312.23,1030.57L1312.23,1252.46C1312.23,1346.35 1279.74,1437.52 1219.96,1511.36C1219.96,1511.36 1219.96,1511.36 1219.96,1511.36C1183.55,1556.34 1163.76,1611.87 1163.76,1669.06L1163.76,2582.37C1163.76,2621.72 1179.87,2659.45 1208.54,2687.27C1237.22,2715.09 1276.12,2730.71 1316.67,2730.71L2050.14,2730.71C2090.7,2730.71 2129.59,2715.09 2158.27,2687.27C2186.95,2659.45 2203.06,2621.72 2203.06,2582.37L2203.06,1722.09C2203.06,1636.12 2151,1558.17 2070.12,1523.03C2070.12,1523.03 2070.12,1523.03 2070.12,1523.03C1894.17,1446.58 1780.93,1277.01 1780.93,1090L1780.93,1030.57L1312.23,1030.57Z" style="fill:rgb(242,242,242);"/>
            <clipPath id="_clip2">
                <path d="M1312.23,1030.57L1312.23,1252.46C1312.23,1346.35 1279.74,1437.52 1219.96,1511.36C1219.96,1511.36 1219.96,1511.36 1219.96,1511.36C1183.55,1556.34 1163.76,1611.87 1163.76,1669.06L1163.76,2582.37C1163.76,2621.72 1179.87,2659.45 1208.54,2687.27C1237.22,2715.09 1276.12,2730.71 1316.67,2730.71L2050.14,2730.71C2090.7,2730.71 2129.59,2715.09 2158.27,2687.27C2186.95,2659.45 2203.06,2621.72 2203.06,2582.37L2203.06,1722.09C2203.06,1636.12 2151,1558.17 2070.12,1523.03C2070.12,1523.03 2070.12,1523.03 2070.12,1523.03C1894.17,1446.58 1780.93,1277.01 1780.93,1090L1780.93,1030.57L1312.23,1030.57Z"/>
            </clipPath>
            <g clip-path="url(#_clip2)">
                <g transform="matrix(1,0,0,1.11239,-10.7822,-236.771)">
                    <path d="M2074.27,1819.07C2074.27,1723.66 1985.44,1646.2 1876.04,1646.2L1479.56,1646.2C1370.15,1646.2 1281.33,1723.66 1281.33,1819.07L1281.33,2394.31C1281.33,2489.72 1370.15,2567.18 1479.56,2567.18L1876.04,2567.18C1985.44,2567.18 2074.27,2489.72 2074.27,2394.31L2074.27,1819.07Z" style="fill:rgb(252,213,34);"/>
                    <clipPath id="_clip3">
                        <path d="M2074.27,1819.07C2074.27,1723.66 1985.44,1646.2 1876.04,1646.2L1479.56,1646.2C1370.15,1646.2 1281.33,1723.66 1281.33,1819.07L1281.33,2394.31C1281.33,2489.72 1370.15,2567.18 1479.56,2567.18L1876.04,2567.18C1985.44,2567.18 2074.27,2489.72 2074.27,2394.31L2074.27,1819.07Z"/>
                    </clipPath>
                    <g clip-path="url(#_clip3)">
                        <g transform="matrix(1,0,0,0.898965,10.7822,212.849)">
                            <path d="M1986.27,1818.13C1986.27,1810.94 1980.26,1805.1 1972.84,1805.1L1354.57,1805.1C1347.15,1805.1 1341.13,1810.94 1341.13,1818.13L1341.13,1844.19C1341.13,1851.38 1347.15,1857.22 1354.57,1857.22L1972.84,1857.22C1980.26,1857.22 1986.27,1851.38 1986.27,1844.19L1986.27,1818.13Z" style="fill:rgb(38,38,38);"/>
                        </g>
                        <g transform="matrix(0.585515,0,0,0.898965,566.662,405.414)">
                            <path d="M1986.27,1818.13C1986.27,1810.94 1975.99,1805.1 1963.33,1805.1L1364.07,1805.1C1351.41,1805.1 1341.13,1810.94 1341.13,1818.13L1341.13,1844.19C1341.13,1851.38 1351.41,1857.22 1364.07,1857.22L1963.33,1857.22C1975.99,1857.22 1986.27,1851.38 1986.27,1844.19L1986.27,1818.13Z" style="fill:rgb(38,38,38);"/>
                        </g>
                        <g transform="matrix(0.585515,0,0,0.898965,566.662,720.755)">
                            <path d="M1986.27,1818.13C1986.27,1810.94 1975.99,1805.1 1963.33,1805.1L1364.07,1805.1C1351.41,1805.1 1341.13,1810.94 1341.13,1818.13L1341.13,1844.19C1341.13,1851.38 1351.41,1857.22 1364.07,1857.22L1963.33,1857.22C1975.99,1857.22 1986.27,1851.38 1986.27,1844.19L1986.27,1818.13Z" style="fill:rgb(38,38,38);"/>
                        </g>
                        <g transform="matrix(0.993315,0,0,0.898965,19.748,564.377)">
                            <path d="M1986.27,1818.13C1986.27,1810.94 1980.21,1805.1 1972.75,1805.1L1354.66,1805.1C1347.19,1805.1 1341.13,1810.94 1341.13,1818.13L1341.13,1844.19C1341.13,1851.38 1347.19,1857.22 1354.66,1857.22L1972.75,1857.22C1980.21,1857.22 1986.27,1851.38 1986.27,1844.19L1986.27,1818.13Z" style="fill:rgb(38,38,38);"/>
                        </g>
                    </g>
                </g>
            </g>
            <g transform="matrix(1.66667,0,0,1,-1404.64,-11.0928)">
                <path d="M2156.88,492.609C2156.88,470.338 2145.69,452.257 2131.92,452.257L2082,452.257C2068.22,452.257 2057.04,470.338 2057.04,492.609L2057.04,636.931C2057.04,659.202 2068.22,677.283 2082,677.283L2131.92,677.283C2145.69,677.283 2156.88,659.202 2156.88,636.931L2156.88,492.609Z" style="fill:rgb(40,154,12);"/>
            </g>
            <path d="M2036.24,696.989C2034.46,895.772 2148.56,1031.67 2148.56,1031.67L2036.24,1031.67C2036.24,1031.67 1890.2,840.667 1888.17,696.989C1887.47,647.636 1986.65,680.538 2036.24,696.989" style="fill:rgb(40,154,12);"/>
            <path d="M1312.23,889.932C1312.23,889.932 1288.92,860.317 1258.01,821.049C1169.82,708.988 1173.8,552.515 1267.58,444.81C1267.58,444.81 1267.58,444.809 1267.58,444.809C1295.89,412.297 1337.54,393.54 1381.41,393.54L1981.98,393.54C2041.52,393.54 2089.78,440.356 2089.78,498.107L2089.78,617.394C2089.78,645.127 2078.42,671.724 2058.2,691.334C2037.99,710.944 2010.57,721.961 1981.98,721.961L1833.32,721.961C1807.59,721.961 1782.9,731.878 1764.71,749.531C1746.51,767.183 1736.29,791.125 1736.29,816.089L1736.29,889.932L1312.23,889.932Z" style="fill:rgb(252,213,34);"/>
            <g transform="matrix(1,0,0,1,2.50699,105.295)">
                <path d="M1858.27,835.647C1858.27,794.086 1823.49,760.344 1780.65,760.344L1305.53,760.344C1262.68,760.344 1227.9,794.086 1227.9,835.647L1227.9,986.253C1227.9,1027.81 1262.68,1061.56 1305.53,1061.56L1780.65,1061.56C1823.49,1061.56 1858.27,1027.81 1858.27,986.253L1858.27,835.647Z" style="fill:rgb(40,154,12);"/>
                <clipPath id="_clip4">
                    <path d="M1858.27,835.647C1858.27,794.086 1823.49,760.344 1780.65,760.344L1305.53,760.344C1262.68,760.344 1227.9,794.086 1227.9,835.647L1227.9,986.253C1227.9,1027.81 1262.68,1061.56 1305.53,1061.56L1780.65,1061.56C1823.49,1061.56 1858.27,1027.81 1858.27,986.253L1858.27,835.647Z"/>
                </clipPath>
                <g clip-path="url(#_clip4)">
                    <path d="M1355.84,717.801L1355.84,1095.4L1557.48,1095.4L1557.48,717.801L1752.32,717.801L1752.32,1095.4" style="fill:none;stroke:rgb(235,235,235);stroke-width:27.28px;"/>
                </g>
            </g>
        </g>
        <g transform="matrix(1.28829,0,0,1.28829,-80.4099,5.15835)">
            <circle cx="912.308" cy="398.332" r="289.548" style="fill:white;"/>
            <clipPath id="_clip5">
                <circle cx="912.308" cy="398.332" r="289.548"/>
            </clipPath>
            <g clip-path="url(#_clip5)">
                <g transform="matrix(0.563811,0.533517,-0.533517,0.563811,573.049,-461.764)">
                    <path d="M1066.69,603.048L1066.2,846.906C1007.96,744.189 868.277,491.488 865.928,426.858C861.843,314.459 949.781,219.889 1062.18,215.804C1174.58,211.72 1269.15,299.657 1273.23,412.056C1275.67,479.112 1130.42,748.935 1085.85,846.906L1087.31,597.33L1211.22,482.379L1085.85,578.033L1078.5,453.746L1211.22,330.617L1075.01,434.545L1067.34,281.464L1067.04,431.581L934.712,330.617L1067,453.336L1066.74,581.656L936.618,482.379L1066.69,603.048Z" style="fill:rgb(71,164,48);"/>
                    <clipPath id="_clip6">
                        <path d="M1066.69,603.048L1066.2,846.906C1007.96,744.189 868.277,491.488 865.928,426.858C861.843,314.459 949.781,219.889 1062.18,215.804C1174.58,211.72 1269.15,299.657 1273.23,412.056C1275.67,479.112 1130.42,748.935 1085.85,846.906L1087.31,597.33L1211.22,482.379L1085.85,578.033L1078.5,453.746L1211.22,330.617L1075.01,434.545L1067.34,281.464L1067.04,431.581L934.712,330.617L1067,453.336L1066.74,581.656L936.618,482.379L1066.69,603.048Z"/>
                    </clipPath>
                    <g clip-path="url(#_clip6)">
                        <g transform="matrix(0.91047,-0.52566,0.52566,0.91047,-178.023,609.437)">
                            <path d="M904.22,851.684L1208.83,265.576L1435.91,436.737L1122.27,907.199L904.22,851.684Z" style="fill:rgb(56,132,38);"/>
                        </g>
                    </g>
                </g>
            </g>
        </g>
        <g transform="matrix(0.651515,0,0,0.651515,336.519,307.386)">
            <path d="M351.712,1315.43C468.515,1217.13 521.883,1203.73 604.892,953.613C612.66,930.206 621.401,902.589 621.401,902.589C621.401,902.589 626.07,922.854 637.898,953.613C739.529,1217.88 775.701,1216.73 884.013,1315.43L885.729,1315.43L884.872,1316.21L885.729,1316.99L884.013,1316.99C775.701,1415.69 739.529,1414.54 637.898,1678.81C626.07,1709.57 621.401,1729.83 621.401,1729.83C621.401,1729.83 612.66,1702.21 604.892,1678.81C521.883,1428.69 468.515,1415.29 351.712,1316.99L349.853,1316.99L350.782,1316.21L349.853,1315.43L351.712,1315.43Z" style="fill:white;"/>
        </g>
        <g transform="matrix(0.366565,0,0,0.366565,651.236,1554.55)">
            <path d="M351.712,1315.43C468.515,1217.13 521.883,1203.73 604.892,953.613C612.66,930.206 621.401,902.589 621.401,902.589C621.401,902.589 626.07,922.854 637.898,953.613C739.529,1217.88 775.701,1216.73 884.013,1315.43L885.729,1315.43L884.872,1316.21L885.729,1316.99L884.013,1316.99C775.701,1415.69 739.529,1414.54 637.898,1678.81C626.07,1709.57 621.401,1729.83 621.401,1729.83C621.401,1729.83 612.66,1702.21 604.892,1678.81C521.883,1428.69 468.515,1415.29 351.712,1316.99L349.853,1316.99L350.782,1316.21L349.853,1315.43L351.712,1315.43Z" style="fill:white;"/>
        </g>
        <g transform="matrix(0.517606,0,0,0.517606,1936.54,-90.3669)">
            <path d="M351.712,1315.43C468.515,1217.13 521.883,1203.73 604.892,953.613C612.66,930.206 621.401,902.589 621.401,902.589C621.401,902.589 626.07,922.854 637.898,953.613C739.529,1217.88 775.701,1216.73 884.013,1315.43L885.729,1315.43L884.872,1316.21L885.729,1316.99L884.013,1316.99C775.701,1415.69 739.529,1414.54 637.898,1678.81C626.07,1709.57 621.401,1729.83 621.401,1729.83C621.401,1729.83 612.66,1702.21 604.892,1678.81C521.883,1428.69 468.515,1415.29 351.712,1316.99L349.853,1316.99L350.782,1316.21L349.853,1315.43L351.712,1315.43Z" style="fill:white;"/>
        </g>
        <g transform="matrix(0.318064,0,0,0.318064,2033.04,993.902)">
            <path d="M351.712,1315.43C468.515,1217.13 521.883,1203.73 604.892,953.613C612.66,930.206 621.401,902.589 621.401,902.589C621.401,902.589 626.07,922.854 637.898,953.613C739.529,1217.88 775.701,1216.73 884.013,1315.43L885.729,1315.43L884.872,1316.21L885.729,1316.99L884.013,1316.99C775.701,1415.69 739.529,1414.54 637.898,1678.81C626.07,1709.57 621.401,1729.83 621.401,1729.83C621.401,1729.83 612.66,1702.21 604.892,1678.81C521.883,1428.69 468.515,1415.29 351.712,1316.99L349.853,1316.99L350.782,1316.21L349.853,1315.43L351.712,1315.43Z" style="fill:white;"/>
        </g>
    </g>
</svg>
