<svg width="97" height="97" viewBox="0 0 97 97" fill="none" xmlns="http://www.w3.org/2000/svg">
    <g clip-path="url(#clip0)">
        <path d="M22.1636 22.4238H73.2711C73.7749 22.4238 74.1837 22.8911 74.1837 23.4668V67.2733C74.1837 67.8489 73.7749 68.3162 73.2711 68.3162H22.1636C21.6598 68.3162 21.251 67.8489 21.251 67.2733V23.4668C21.2509 22.8911 21.6597 22.4238 22.1636 22.4238Z" fill="#8B6B61"/>
        <path d="M22.1636 22.4238H69.6205C70.1243 22.4238 70.5331 22.8911 70.5331 23.4668V67.2733C70.5331 67.8489 70.1243 68.3162 69.6205 68.3162H22.1636C21.6598 68.3162 21.251 67.8489 21.251 67.2733V23.4668C21.2509 22.8911 21.6597 22.4238 22.1636 22.4238Z" fill="#8B6B61"/>
        <path d="M73.2716 69.3594H22.1642C21.1556 69.3594 20.3389 68.4259 20.3389 67.2734V23.4669C20.3389 22.3144 21.1556 21.3809 22.1642 21.3809H73.2717C74.2802 21.3809 75.097 22.3143 75.097 23.4669V67.2734C75.0969 68.4259 74.2802 69.3594 73.2716 69.3594ZM22.1642 23.4669V67.2734H73.2717V23.4669H22.1642Z" fill="black"/>
        <path d="M47.7183 69.3593C47.2145 69.3593 46.8057 68.892 46.8057 68.3163V22.4238C46.8057 21.8481 47.2145 21.3809 47.7183 21.3809C48.222 21.3809 48.6309 21.8481 48.6309 22.4238V68.3163C48.6309 68.892 48.222 69.3593 47.7183 69.3593Z" fill="black"/>
        <path d="M25.8149 26.5957H43.155C43.6587 26.5957 44.0676 27.063 44.0676 27.6387V63.101C44.0676 63.6767 43.6587 64.144 43.155 64.144H25.8149C25.3112 64.144 24.9023 63.6767 24.9023 63.101V27.6387C24.9023 27.063 25.3112 26.5957 25.8149 26.5957Z" fill="#B2E7FF"/>
        <path d="M52.2817 26.5957H69.6217C70.1255 26.5957 70.5343 27.063 70.5343 27.6387V63.101C70.5343 63.6767 70.1255 64.144 69.6217 64.144H52.2817C51.778 64.144 51.3691 63.6767 51.3691 63.101V27.6387C51.369 27.063 51.7779 26.5957 52.2817 26.5957Z" fill="#B2E7FF"/>
        <path d="M25.6863 26.5957H40.5441C41.0113 26.6406 41.3608 27.1047 41.329 27.6387V63.101C41.3609 63.635 41.0113 64.0991 40.5441 64.144H25.6863C25.2191 64.0991 24.8696 63.635 24.9014 63.101V27.6387C24.8696 27.1047 25.2191 26.6406 25.6863 26.5957Z" fill="#B2E7FF"/>
        <path d="M52.1531 26.5957H67.0109C67.4781 26.6406 67.8276 27.1047 67.7958 27.6387V63.101C67.8277 63.635 67.4781 64.0991 67.0109 64.144H52.1531C51.6859 64.0991 51.3364 63.635 51.3682 63.101V27.6387C51.3364 27.1047 51.6859 26.6406 52.1531 26.5957Z" fill="#B2E7FF"/>
        <path d="M43.1546 65.1872H25.8146C24.8061 65.1872 23.9893 64.2537 23.9893 63.1011V27.6388C23.9893 26.4863 24.806 25.5527 25.8146 25.5527H43.1546C44.163 25.5527 44.9799 26.4862 44.9799 27.6388V63.1011C44.9799 64.2537 44.1631 65.1872 43.1546 65.1872ZM25.8146 27.6388V63.1011H43.1546V27.6388H25.8146Z" fill="black"/>
        <path d="M69.6214 65.1872H52.2814C51.2729 65.1872 50.4561 64.2537 50.4561 63.1011V27.6388C50.4561 26.4863 51.2728 25.5527 52.2814 25.5527H69.6214C70.6298 25.5527 71.4467 26.4862 71.4467 27.6388V63.1011C71.4467 64.2537 70.6298 65.1872 69.6214 65.1872ZM52.2814 27.6388V63.1011H69.6214V27.6388H52.2814Z" fill="black"/>
        <path d="M55.0191 48.5002C54.822 48.5002 54.6294 48.4273 54.4716 48.2916L50.8211 45.1626C50.4177 44.8173 50.3365 44.1634 50.6385 43.7023C50.9405 43.2413 51.5128 43.1485 51.9162 43.4937L55.5667 46.6227C55.9701 46.968 56.0513 47.6219 55.7493 48.083C55.5768 48.3459 55.3066 48.5002 55.0191 48.5002Z" fill="black"/>
        <path d="M28.5527 31.8109C28.0489 31.8077 27.6419 31.3384 27.6445 30.7627C27.6455 30.6281 27.6683 30.4956 27.713 30.3716C27.7568 30.2432 27.8215 30.1265 27.9046 30.0274C28.2596 29.6185 28.8373 29.6153 29.1951 30.0211C29.1969 30.0232 29.1987 30.0253 29.2005 30.0274C29.2836 30.1265 29.3484 30.2432 29.3922 30.3716C29.5839 30.9046 29.3612 31.5137 28.8948 31.7327C28.7863 31.7838 28.6704 31.8098 28.5527 31.8109Z" fill="black"/>
        <path d="M37.6794 31.8106H32.2036C31.6999 31.8106 31.291 31.3433 31.291 30.7676C31.291 30.1919 31.6999 29.7246 32.2036 29.7246H37.6794C38.1832 29.7246 38.592 30.1919 38.592 30.7676C38.592 31.3433 38.1833 31.8106 37.6794 31.8106Z" fill="black"/>
        <path d="M51.369 31.8109C50.8653 31.8109 50.4564 31.3436 50.4564 30.768C50.4528 30.6313 50.4783 30.4957 50.5294 30.3716C50.576 30.2453 50.6408 30.1286 50.7211 30.0274C51.0761 29.6185 51.6538 29.6153 52.0115 30.0211C52.0134 30.0232 52.0152 30.0253 52.017 30.0274C52.0973 30.1286 52.1621 30.2453 52.2086 30.3716C52.352 30.7595 52.2761 31.2081 52.017 31.5084C51.9266 31.6002 51.8244 31.6773 51.7158 31.7378C51.6053 31.7879 51.4877 31.813 51.369 31.8109Z" fill="black"/>
        <path d="M60.4948 31.8106H55.019C54.5153 31.8106 54.1064 31.3433 54.1064 30.7676C54.1064 30.1919 54.5153 29.7246 55.019 29.7246H60.4948C60.9986 29.7246 61.4074 30.1919 61.4074 30.7676C61.4074 31.3433 60.9986 31.8106 60.4948 31.8106Z" fill="black"/>
    </g>
    <defs>
        <clipPath id="clip0">
            <rect width="54.7581" height="62.5807" fill="white" transform="translate(20.3389 14.0801)"/>
        </clipPath>
    </defs>
</svg>
