<svg width="62" height="62" viewBox="0 0 62 62" fill="none" xmlns="http://www.w3.org/2000/svg">
    <path d="M30.7725 57.2958C46.07 57.2958 58.5451 45.4052 58.5451 30.6479C58.5451 15.8907 46.07 4 30.7725 4C15.4751 4 3 15.8907 3 30.6479C3 45.4052 15.4751 57.2958 30.7725 57.2958Z" stroke="#40B3F4" stroke-width="2"/>
    <path d="M41.4699 27.5592C41.4699 27.5592 40.1974 22.1287 39.9177 21.3411C39.638 20.5534 38.5054 18.688 37.9041 18.3701C37.9041 18.3701 31.9892 13.3956 30.5769 13.2574C29.1646 13.1192 20.3832 16.0487 20.5649 16.6429C20.7467 17.2371 29.682 16.1731 29.682 16.1731L33.7371 20.0145C33.4854 20.1527 33.2477 20.2909 32.9681 20.4429C29.8638 22.2531 26.1023 24.3396 24.9277 25.2654C23.7531 26.1912 23.4734 27.96 24.3684 29.4385C25.2633 30.9171 29.7799 37.2043 29.7799 37.2043C29.7799 37.2043 20.9984 37.8952 19.5442 38.0334C18.0899 38.1716 18.3276 39.3323 19.5861 39.664C20.8586 39.9956 31.8494 40.6451 32.9261 40.6451C34.0028 40.6451 35.6528 39.9541 34.9956 38.3651C34.3384 36.7898 30.9545 29.7701 30.9545 29.7701L37.205 25.6385C37.205 25.6385 37.9601 28.6094 38.2817 29.4523C38.6173 30.2814 39.1766 31.0829 41.5677 30.7512C43.9589 30.4196 48 29.9221 48 29.2174C48 28.5127 41.4699 27.5592 41.4699 27.5592Z" fill="black"/>
    <path d="M22.7743 49.9723C24.0468 50.5251 33.3876 41.4327 33.3876 41.4327L28.032 41.1011C28.032 41.1149 21.5018 49.4196 22.7743 49.9723Z" fill="black"/>
    <path d="M42.2668 20.1804C44.5528 20.1804 46.4059 18.3491 46.4059 16.0902C46.4059 13.8312 44.5528 12 42.2668 12C39.9809 12 38.1278 13.8312 38.1278 16.0902C38.1278 18.3491 39.9809 20.1804 42.2668 20.1804Z" fill="black"/>
    <path d="M27.5146 22.8611L29.1646 21.88C29.1646 21.88 18.3556 21.6451 18.3556 22.4327C18.3556 23.2204 27.5146 22.8611 27.5146 22.8611Z" fill="black"/>
    <path d="M25.1235 31.8705L24.4663 30.9033C24.4663 30.9033 16.8035 30.6684 16.8035 31.456C16.8035 32.2436 25.1235 31.8705 25.1235 31.8705Z" fill="black"/>
    <path d="M23.012 27.2691L23.3895 26.2466C23.3895 26.2466 13 26.1498 13 26.9375C13 27.7389 23.012 27.2691 23.012 27.2691Z" fill="black"/>
</svg>
