<svg width="102" height="102" viewBox="0 0 102 102" fill="none" xmlns="http://www.w3.org/2000/svg">
    <path d="M72.4968 52.8653V78.1997H31.1484V52.8653L51.8226 41.3496L72.4968 52.8653Z" fill="#D9CCBC"/>
    <path d="M62.9548 78.1993C69.5421 78.1993 74.8822 73.0435 74.8822 66.6836C74.8822 60.3237 69.5421 55.168 62.9548 55.168C56.3674 55.168 51.0273 60.3237 51.0273 66.6836C51.0273 73.0435 56.3674 78.1993 62.9548 78.1993Z" fill="white"/>
    <path d="M64.5449 36.7422H70.9062V44.4193H64.5449V36.7422Z" fill="#FFDAAA"/>
    <path d="M74.8825 46.7229V51.3292L51.8229 38.2781L28.7632 51.3292V49.7938V46.7229L51.8229 33.6719L74.8825 46.7229Z" fill="#FF9801"/>
    <path d="M36.7144 61.3105H47.8466V78.2002H36.7144V61.3105Z" fill="#E9E9EA"/>
    <path d="M71.304 63.23L60.5693 73.594L54.208 68.2201L56.5935 65.1492L60.5693 68.2201L68.5209 60.543L71.304 63.23Z" fill="#00AF80"/>
    <path d="M51.8223 50.5605H56.5932V53.6314H51.8223V50.5605Z" fill="#B2E7FF"/>
    <path d="M51.8223 47.4902H56.5932V50.5611H51.8223V47.4902Z" fill="#B2E7FF"/>
    <path d="M47.0518 50.5605H51.8227V53.6314H47.0518V50.5605Z" fill="#B2E7FF"/>
    <path d="M47.0518 47.4902H51.8227V50.5611H47.0518V47.4902Z" fill="#B2E7FF"/>
    <path d="M75.2847 46.0605L71.7017 44.0361V36.7428C71.7017 36.5392 71.6179 36.3439 71.4688 36.2C71.3196 36.056 71.1174 35.9751 70.9065 35.9751H64.5452C64.3343 35.9751 64.1321 36.056 63.9829 36.2C63.8338 36.3439 63.75 36.5392 63.75 36.7428V39.5327L52.225 33.0071C52.1028 32.9385 51.964 32.9023 51.8226 32.9023C51.6813 32.9023 51.5424 32.9385 51.4203 33.0071L28.3606 46.0582C28.2406 46.1262 28.1412 46.2233 28.0722 46.34C28.0033 46.4567 27.9673 46.5887 27.9678 46.7231V51.3293C27.9677 51.4646 28.0047 51.5974 28.0749 51.7144C28.1451 51.8315 28.2461 51.9285 28.3676 51.9958C28.4891 52.063 28.6269 52.0981 28.767 52.0974C28.9071 52.0967 29.0445 52.0603 29.1653 51.9918L51.8226 39.168L74.4688 51.9888C74.5936 52.0611 74.7368 52.0985 74.8823 52.097C75.0932 52.097 75.2954 52.0161 75.4446 51.8722C75.5937 51.7282 75.6775 51.5329 75.6775 51.3293V46.7231C75.6775 46.5891 75.6413 46.4575 75.5724 46.3413C75.5035 46.2251 75.4043 46.1283 75.2847 46.0605ZM65.3404 37.5105H70.1113V43.1325L65.3404 40.4324V37.5105ZM74.0871 49.9889L52.225 37.6157C52.103 37.5466 51.9641 37.5102 51.8226 37.5102C51.6812 37.5102 51.5423 37.5466 51.4203 37.6157L29.5581 49.9889V47.163L51.8226 34.5618L74.0871 47.163V49.9889Z" fill="black"/>
    <path d="M57.3886 53.632V47.4904C57.3886 47.2868 57.3048 47.0915 57.1557 46.9475C57.0066 46.8035 56.8043 46.7227 56.5934 46.7227H47.0515C46.8406 46.7227 46.6384 46.8035 46.4892 46.9475C46.3401 47.0915 46.2563 47.2868 46.2563 47.4904V53.632C46.2563 53.8356 46.3401 54.0309 46.4892 54.1749C46.6384 54.3189 46.8406 54.3997 47.0515 54.3997H56.5934C56.8043 54.3997 57.0066 54.3189 57.1557 54.1749C57.3048 54.0309 57.3886 53.8356 57.3886 53.632ZM55.7983 49.7935H52.6176V48.2581H55.7983V49.7935ZM51.0273 48.2581V49.7935H47.8467V48.2581H51.0273ZM47.8467 51.3289H51.0273V52.8643H47.8467V51.3289ZM55.7983 52.8643H52.6176V51.3289H55.7983V52.8643Z" fill="black"/>
    <path d="M39.1001 66.6836H40.6904V69.7544H39.1001V66.6836Z" fill="black"/>
    <path d="M73.2922 59.5502V52.8635C73.2928 52.7282 73.2563 52.5952 73.1865 52.4779C73.1167 52.3606 73.016 52.2632 72.8946 52.1956L52.2204 40.6799C52.0985 40.6157 51.9618 40.582 51.8229 40.582C51.6839 40.582 51.5472 40.6157 51.4253 40.6799L30.7511 52.1956C30.6298 52.2632 30.5291 52.3606 30.4593 52.4779C30.3894 52.5952 30.353 52.7282 30.3535 52.8635V78.1979C30.3535 78.4015 30.4373 78.5968 30.5864 78.7408C30.7355 78.8847 30.9378 78.9656 31.1487 78.9656H72.4971C72.7079 78.9656 72.9102 78.8847 73.0593 78.7408C73.2084 78.5968 73.2922 78.4015 73.2922 78.1979V73.8143C74.8431 71.7377 75.6777 69.2424 75.6777 66.6823C75.6777 64.1221 74.8431 61.6269 73.2922 59.5502ZM47.0519 77.4302H37.51V62.076H47.0519V77.4302ZM48.6422 77.4302V61.3083C48.6422 61.1047 48.5585 60.9094 48.4093 60.7654C48.2602 60.6215 48.058 60.5406 47.8471 60.5406H36.7148C36.5039 60.5406 36.3017 60.6215 36.1525 60.7654C36.0034 60.9094 35.9196 61.1047 35.9196 61.3083V77.4302H31.9438V53.3088L51.8229 42.2307L71.7019 53.3088V57.7845C70.3924 56.5831 68.8326 55.6649 67.1267 55.0912C65.4207 54.5175 63.6077 54.3014 61.8085 54.4573C60.0092 54.6133 58.265 55.1377 56.6922 55.9956C55.1194 56.8535 53.754 58.0252 52.687 59.4326C51.62 60.84 50.876 62.4508 50.5045 64.1576C50.1331 65.8645 50.1426 67.6282 50.5326 69.3312C50.9226 71.0342 51.6841 72.6374 52.7662 74.0339C53.8484 75.4304 55.2265 76.5883 56.8085 77.4302H48.6422ZM71.7019 77.4302H69.1017C70.0456 76.9216 70.9193 76.2999 71.7019 75.58V77.4302ZM62.9551 77.4302C60.7534 77.4302 58.6011 76.7998 56.7704 75.6188C54.9397 74.4378 53.5128 72.7592 52.6703 70.7953C51.8277 68.8314 51.6072 66.6703 52.0368 64.5854C52.4663 62.5005 53.5266 60.5854 55.0834 59.0823C56.6403 57.5792 58.6239 56.5556 60.7833 56.1408C62.9428 55.7261 65.1811 55.939 67.2153 56.7525C69.2494 57.5659 70.988 58.9435 72.2113 60.711C73.4345 62.4785 74.0874 64.5565 74.0874 66.6823C74.0842 69.5319 72.9103 72.2639 70.8233 74.2788C68.7363 76.2938 65.9066 77.4271 62.9551 77.4302Z" fill="black"/>
    <path d="M67.9589 60.0002L60.5106 67.1913L57.0915 64.5496C57.0082 64.4852 56.9125 64.4376 56.8098 64.4097C56.7072 64.3818 56.5998 64.3741 56.494 64.387C56.3882 64.4 56.2862 64.4334 56.194 64.4852C56.1019 64.537 56.0215 64.6062 55.9576 64.6886L53.5721 67.7594C53.4518 67.9142 53.3966 68.1072 53.4174 68.2996C53.4382 68.4921 53.5335 68.6698 53.6842 68.7974L60.0455 74.1713C60.1973 74.2997 60.3939 74.3676 60.5956 74.3612C60.7973 74.3548 60.989 74.2745 61.1317 74.1368L71.8663 63.7727C72.0154 63.6287 72.0992 63.4335 72.0992 63.2299C72.0992 63.0264 72.0154 62.8311 71.8663 62.6872L69.0833 60.0002C68.9342 59.8562 68.7319 59.7754 68.5211 59.7754C68.3103 59.7754 68.108 59.8562 67.9589 60.0002ZM60.5337 72.543L55.2856 68.111L56.7368 66.2432L60.0717 68.8196C60.2246 68.9377 60.4171 68.9971 60.6125 68.9867C60.808 68.9762 60.9925 68.8965 61.1309 68.7628L68.5211 61.6285L70.1798 63.2299L60.5337 72.543Z" fill="black"/>
    <path d="M74.6838 20.011C74.2396 20.011 73.7954 20.0987 73.3808 20.1864C71.5745 16.9702 68.1394 14.8066 64.1712 14.8066C60.6769 14.8066 57.5972 16.4732 55.6723 19.0461C55.0209 18.8415 54.3398 18.6953 53.629 18.6953C50.9047 18.6953 48.5652 20.3326 47.588 22.6424C47.4103 22.6131 47.2327 22.6131 47.055 22.6131C45.6039 22.6131 44.4194 23.7534 44.4194 25.2153H79.9549C79.9549 22.3208 77.5859 20.011 74.6838 20.011Z" fill="white"/>
    <path d="M40.142 33.2516C40.142 32.2868 39.3424 31.5266 38.3948 31.5266C38.2764 31.5266 38.1579 31.5266 38.0395 31.5558C37.3584 30.0062 35.8185 28.9244 34.0121 28.9244C33.5383 28.9244 33.0645 29.0121 32.6499 29.1583C31.3766 27.4333 29.3333 26.3223 26.9939 26.3223C24.3583 26.3223 22.0485 27.7842 20.8344 29.9185C20.5679 29.86 20.2717 29.8016 19.9756 29.8016C18.0211 29.8016 16.4517 31.3512 16.4517 33.2516H40.142Z" fill="white"/>
</svg>