<svg width="39" height="39" viewBox="0 0 39 39" fill="none" xmlns="http://www.w3.org/2000/svg">
    <path d="M11.8155 14.8341C13.7221 14.8341 15.2677 13.2885 15.2677 11.3819C15.2677 9.4753 13.7221 7.92969 11.8155 7.92969C9.90889 7.92969 8.36328 9.4753 8.36328 11.3819C8.36328 13.2885 9.90889 14.8341 11.8155 14.8341Z" fill="#2B2D42"/>
    <path d="M16.0049 11.3825C16.0049 11.7002 16.2649 11.9602 16.5827 11.9602H19.2982C19.616 11.9602 19.876 11.7002 19.876 11.3825C19.876 11.0647 19.616 10.8047 19.2982 10.8047H16.5827C16.2504 10.8047 16.0049 11.0647 16.0049 11.3825Z" fill="#2B2D42"/>
    <path d="M15.1813 8.59424C15.3257 8.59424 15.4702 8.53647 15.5857 8.42091L17.5069 6.4998C17.738 6.26869 17.738 5.90758 17.5069 5.69091C17.2757 5.4598 16.9146 5.4598 16.698 5.69091L14.7768 7.61202C14.5457 7.84313 14.5457 8.20425 14.7768 8.42091C14.878 8.53647 15.0369 8.59424 15.1813 8.59424Z" fill="#2B2D42"/>
    <path d="M6.93339 17.0879L8.85451 15.1668C9.08562 14.9357 9.08562 14.5746 8.85451 14.3579C8.62339 14.1268 8.26228 14.1268 8.04562 14.3579L6.12451 16.279C5.89339 16.5101 5.89339 16.8712 6.12451 17.0879C6.24006 17.2035 6.38451 17.2612 6.52895 17.2612C6.67339 17.2468 6.81784 17.189 6.93339 17.0879Z" fill="#2B2D42"/>
    <path d="M34.2338 19.1102C34.1616 19.1102 34.0894 19.1246 34.0316 19.1391C33.6705 18.3302 32.8472 17.7668 31.9083 17.7668C31.7205 17.7668 31.5183 17.7957 31.3449 17.8391C30.6949 17.0446 29.6983 16.5391 28.6005 16.5391C27.4738 16.5391 26.4771 17.0591 25.8271 17.868C26.3616 18.5613 26.8094 19.298 27.156 20.0924H35.2305C35.216 19.558 34.7827 19.1102 34.2338 19.1102Z" fill="#2B2D42"/>
    <path d="M19.5 0C8.75333 0 0 8.75333 0 19.5C0 30.2467 8.75333 39 19.5 39C30.2467 39 39 30.2467 39 19.5C39 8.75333 30.2467 0 19.5 0ZM19.5 36.2122C15.4122 36.2122 11.6711 34.7389 8.75333 32.2978L9.33111 31.72C8.69556 31.0122 8.14667 30.2322 7.71333 29.3944L6.78889 30.3333C4.30444 27.4156 2.78778 23.6311 2.78778 19.5C2.78778 16.7844 3.43778 14.2278 4.59333 11.96H7.04889C7.36667 11.96 7.62667 11.7 7.62667 11.3822C7.62667 11.0644 7.36667 10.8044 7.04889 10.8044H5.22889C5.87889 9.75 6.64444 8.76778 7.49667 7.88667L8.03111 8.42111C8.14667 8.53667 8.29111 8.59444 8.43556 8.59444C8.58 8.59444 8.72444 8.53667 8.84 8.42111C9.07111 8.19 9.07111 7.82889 8.84 7.61222L8.32 7.07778C9.21556 6.28333 10.1833 5.57556 11.2378 4.96889V6.67333C11.2378 6.99111 11.4978 7.25111 11.8156 7.25111C12.1333 7.25111 12.3933 6.99111 12.3933 6.67333V4.37667C14.56 3.35111 16.9578 2.78778 19.5 2.78778C23.6311 2.78778 27.4156 4.29 30.3333 6.78889L22.23 14.8922C22.88 15.2244 23.5011 15.6289 24.0789 16.0911C24.2378 16.2211 24.3967 16.3656 24.5556 16.4956L32.2978 8.75333C34.7389 11.6567 36.2122 15.4122 36.2122 19.5C36.2122 28.7156 28.7156 36.2122 19.5 36.2122Z" fill="#2B2D42"/>
    <path d="M26.838 22.3019C25.8557 17.9541 21.9557 14.7041 17.3046 14.7041C12.6535 14.7041 8.76797 17.9541 7.7713 22.3019C6.83241 22.5908 6.16797 23.4574 6.16797 24.483C6.16797 25.5085 6.84686 26.3752 7.7713 26.6641C8.75352 31.0119 12.6535 34.2619 17.3046 34.2619C21.9557 34.2619 25.8413 31.0119 26.838 26.6641C27.7769 26.3752 28.4413 25.5085 28.4413 24.483C28.4557 23.443 27.7769 22.5763 26.838 22.3019ZM11.1657 24.0208C10.5446 24.0208 10.0246 23.5152 10.0246 22.8797C10.0246 22.2585 10.5302 21.7385 11.1657 21.7385C11.7869 21.7385 12.3069 22.2441 12.3069 22.8797C12.3069 23.5152 11.8013 24.0208 11.1657 24.0208ZM22.4035 26.8374C22.2302 27.0108 21.9413 27.0108 21.7535 26.8374C20.0924 25.1763 18.2146 24.6708 16.1635 25.3352C14.6035 25.8408 13.5346 26.8374 13.5202 26.8519C13.4335 26.9385 13.318 26.9819 13.2024 26.9819C13.0869 26.9819 12.9569 26.9385 12.8702 26.8374C12.6969 26.6497 12.7113 26.3608 12.8846 26.1874C12.928 26.1441 17.8102 21.6085 22.3891 26.2019C22.5913 26.3752 22.5913 26.6641 22.4035 26.8374ZM23.6746 24.0208C23.0535 24.0208 22.5335 23.5152 22.5335 22.8797C22.5335 22.2585 23.0391 21.7385 23.6746 21.7385C24.2957 21.7385 24.8157 22.2441 24.8157 22.8797C24.8157 23.5152 24.3102 24.0208 23.6746 24.0208Z" fill="#2B2D42"/>
</svg>
