<svg width="100" height="100" viewBox="0 0 100 100" fill="none" xmlns="http://www.w3.org/2000/svg">
    <g clip-path="url(#clip0)">
        <path d="M67.415 43.2702L33.8232 48.0996L35.1674 57.4494L68.7592 52.62L67.415 43.2702Z" fill="black"/>
        <path d="M32.2539 48.3188L26.1572 49.1953L27.5014 58.5451L33.598 57.6686L32.2539 48.3188Z" fill="black"/>
        <path d="M67.6016 34.0284C70.4987 38.654 69.9144 41.819 69.9144 41.819C75.1244 39.214 75.9765 34.8805 72.5194 31.1312C69.0623 27.382 69.7683 21.1738 69.7683 21.1738C64.7044 26.2134 64.7044 29.4027 67.6016 34.0284Z" fill="black"/>
        <path d="M66.4328 34.7597C65.6537 33.5181 65.0937 32.3495 64.7286 31.2539L51.874 44.1084L61.8801 42.672L67.6014 36.9508C67.3092 36.2935 66.9197 35.5388 66.4328 34.7597Z" fill="black"/>
        <path d="M71.4488 25.898C71.7897 27.3831 72.3983 28.9656 73.5425 30.1828C75.4659 32.2766 76.2936 34.6625 75.8797 36.9266C75.7093 37.8761 75.2711 39.0447 74.2973 40.2133C75.5146 43.2321 76.1962 46.5432 76.1962 50.0003C76.1962 64.4373 64.4373 76.1962 50.0003 76.1962C43.9382 76.1962 38.363 74.1268 33.9077 70.6698L47.4926 57.0849L37.4866 58.5212L29.5985 66.4093C25.971 61.9296 23.8043 56.2084 23.8043 50.0246C23.8043 35.5876 35.5632 23.8286 50.0003 23.8286C55.2589 23.8286 60.1768 25.3867 64.2912 28.0891C64.4129 26.2388 65.2163 24.4129 66.7744 22.4653C61.881 19.4707 56.1354 17.7422 50.0003 17.7422C32.1792 17.7422 17.7422 32.1792 17.7422 50.0003C17.7422 67.8213 32.1792 82.2583 50.0003 82.2583C67.8213 82.2583 82.2583 67.8213 82.2583 50.0003C82.2583 40.408 78.0709 31.814 71.4488 25.898Z" fill="black"/>
        <path d="M71.5938 51.3633C71.8616 51.3146 72.0564 51.0955 72.0564 50.8277V47.0784L73.2006 49.6591C73.3224 49.9269 73.6389 50.073 73.931 49.9269C74.1988 49.8052 74.3449 49.4887 74.1988 49.1965L71.9834 44.23C71.886 43.9865 71.6182 43.8648 71.3747 43.9135C71.1313 43.9622 70.9365 44.1813 70.9365 44.4491V47.7601L69.5244 43.9865C69.4271 43.7187 69.1593 43.5727 68.8914 43.6457C68.6236 43.6944 68.4289 43.9622 68.4532 44.23L69.0132 51.6798C69.0375 51.9719 69.281 52.191 69.5731 52.191C69.5975 52.191 69.5975 52.191 69.6218 52.191C69.914 52.1667 70.1574 51.8989 70.1331 51.6067L69.8653 48.0036L70.9852 51.0224C71.0826 51.2659 71.3504 51.412 71.5938 51.3633Z" fill="black"/>
    </g>
    <path d="M67.415 43.2702L33.8232 48.0996L35.1674 57.4494L68.7592 52.62L67.415 43.2702Z" fill="white"/>
    <path d="M32.2539 48.3188L26.1572 49.1953L27.5014 58.5451L33.598 57.6686L32.2539 48.3188Z" fill="#EAA012"/>
    <path d="M67.6016 34.0284C70.4987 38.654 69.9144 41.819 69.9144 41.819C75.1244 39.214 75.9765 34.8805 72.5194 31.1312C69.0623 27.382 69.7683 21.1738 69.7683 21.1738C64.7044 26.2134 64.7044 29.4027 67.6016 34.0284Z" fill="#727272"/>
    <path d="M66.4328 34.7597C65.6537 33.5181 65.0937 32.3495 64.7286 31.2539L51.874 44.1084L61.8801 42.672L67.6014 36.9508C67.3092 36.2935 66.9197 35.5388 66.4328 34.7597Z" fill="#CB3B2F"/>
    <path d="M71.4488 25.898C71.7897 27.3831 72.3983 28.9656 73.5425 30.1828C75.4659 32.2766 76.2936 34.6625 75.8797 36.9266C75.7093 37.8761 75.2711 39.0447 74.2973 40.2133C75.5146 43.2321 76.1962 46.5432 76.1962 50.0003C76.1962 64.4373 64.4373 76.1962 50.0003 76.1962C43.9382 76.1962 38.363 74.1268 33.9077 70.6698L47.4926 57.0849L37.4866 58.5212L29.5985 66.4093C25.971 61.9296 23.8043 56.2084 23.8043 50.0246C23.8043 35.5876 35.5632 23.8286 50.0003 23.8286C55.2589 23.8286 60.1768 25.3867 64.2912 28.0891C64.4129 26.2388 65.2163 24.4129 66.7744 22.4653C61.881 19.4707 56.1354 17.7422 50.0003 17.7422C32.1792 17.7422 17.7422 32.1792 17.7422 50.0003C17.7422 67.8213 32.1792 82.2583 50.0003 82.2583C67.8213 82.2583 82.2583 67.8213 82.2583 50.0003C82.2583 40.408 78.0709 31.814 71.4488 25.898Z" fill="#CB3B2F"/>
    <path d="M71.5938 51.3633C71.8616 51.3146 72.0564 51.0955 72.0564 50.8277V47.0784L73.2006 49.6591C73.3224 49.9269 73.6389 50.073 73.931 49.9269C74.1988 49.8052 74.3449 49.4887 74.1988 49.1965L71.9834 44.23C71.886 43.9865 71.6182 43.8648 71.3747 43.9135C71.1313 43.9622 70.9365 44.1813 70.9365 44.4491V47.7601L69.5244 43.9865C69.4271 43.7187 69.1593 43.5727 68.8914 43.6457C68.6236 43.6944 68.4289 43.9622 68.4532 44.23L69.0132 51.6798C69.0375 51.9719 69.281 52.191 69.5731 52.191C69.5975 52.191 69.5975 52.191 69.6218 52.191C69.914 52.1667 70.1574 51.8989 70.1331 51.6067L69.8653 48.0036L70.9852 51.0224C71.0826 51.2659 71.3504 51.412 71.5938 51.3633Z" fill="#8B4935"/>
    <defs>
        <clipPath id="clip0">
            <rect width="64.5161" height="64.5161" fill="white" transform="translate(17.7422 17.7422)"/>
        </clipPath>
    </defs>
</svg>
