<svg width="88" height="92" viewBox="0 0 88 92" fill="none" xmlns="http://www.w3.org/2000/svg">
    <path d="M76.3371 27.2388C75.4666 25.6085 73.9527 24.431 72.2117 24.0325C68.9569 23.2536 66.0994 24.4129 64.9072 26.949C64.3584 28.1264 64.3205 29.4307 64.8126 30.6444C64.9261 30.9523 65.2856 31.0791 65.5884 30.9704C65.8912 30.8618 66.0615 30.5176 65.9291 30.2277C65.5695 29.3039 65.5884 28.3076 66.0047 27.42C66.932 25.4092 69.2596 24.5216 71.909 25.1556C73.3093 25.4817 74.5394 26.4418 75.2585 27.7823C76.0154 29.1771 76.129 30.7531 75.5612 32.0936C74.2934 35.1549 71.3602 36.8577 67.3105 36.8577H64.2638C63.9231 36.8577 63.6582 37.1113 63.6582 37.4374C63.6582 37.7635 63.9231 38.0171 64.2638 38.0171H67.3105C71.89 38.0171 75.2206 36.0607 76.6777 32.5283C77.3779 30.8618 77.2455 28.9235 76.3371 27.2388Z" fill="#2B2D42"/>
    <path d="M67.102 34.1408C66.7425 34.1045 66.4965 34.3763 66.4775 34.7023C66.4775 35.0284 66.7235 35.282 67.0642 35.3001C67.1588 35.3001 67.2723 35.3001 67.3859 35.3001C69.4296 35.3001 72.7224 34.7567 74.066 31.5322C74.4444 30.6084 74.3498 29.4853 73.82 28.5071C73.309 27.5651 72.4764 26.913 71.5302 26.6775C70.0541 26.3333 68.2185 26.5326 67.4994 28.0723C67.0642 28.9781 67.1399 30.2099 67.6887 31.0432C68.0861 31.6409 68.6727 31.9851 69.3539 32.0032C69.7135 31.967 69.9595 31.7677 69.9784 31.4417C69.9784 31.1156 69.7324 30.862 69.3918 30.8439C69.1269 30.8439 68.8998 30.699 68.7295 30.4273C68.4078 29.92 68.351 29.0868 68.6159 28.5433C69.1647 27.4021 70.7922 27.6919 71.2652 27.8006C71.8708 27.9455 72.4196 28.3984 72.7792 29.0324C73.1387 29.7208 73.2144 30.4997 72.9684 31.0975C71.8708 33.706 69.1836 34.1951 67.102 34.1408Z" fill="#2B2D42"/>
    <path d="M63.6964 35.3H64.8696C65.2103 35.3 65.4752 35.0464 65.4752 34.7203C65.4752 34.3942 65.2103 34.1406 64.8696 34.1406H63.6964C63.3558 34.1406 63.0908 34.3942 63.0908 34.7203C63.0908 35.0282 63.3558 35.3 63.6964 35.3Z" fill="#2B2D42"/>
    <path d="M61.7462 35.3C62.0868 35.3 62.3518 35.0464 62.3518 34.7203C62.3518 34.3942 62.0868 34.1406 61.7462 34.1406H58.4913C58.1507 34.1406 57.8857 34.3942 57.8857 34.7203C57.8857 35.0464 58.1507 35.3 58.4913 35.3H61.7462Z" fill="#2B2D42"/>
    <path d="M60.3643 36.8398C60.0237 36.8398 59.7588 37.0934 59.7588 37.4195C59.7588 37.7456 60.0237 37.9992 60.3643 37.9992H62.2946C62.6352 37.9992 62.9001 37.7456 62.9001 37.4195C62.9001 37.0934 62.6352 36.8398 62.2946 36.8398H60.3643Z" fill="#2B2D42"/>
    <path d="M18.7517 49.3923C18.4489 49.501 18.2786 49.8452 18.4111 50.135C18.7706 51.0589 18.7517 52.0552 18.3354 52.9428C17.4081 54.9535 15.0805 55.8412 12.4312 55.2071C11.0308 54.8811 9.80078 53.921 9.08168 52.5805C8.32473 51.1857 8.21119 49.6097 8.7789 48.2692C10.0468 45.2078 12.98 43.505 17.0297 43.505H20.0764C20.417 43.505 20.6819 43.2514 20.6819 42.9254C20.6819 42.5993 20.417 42.3457 20.0764 42.3457H17.0107C12.4312 42.3457 9.1006 44.3021 7.64347 47.8345C6.96222 49.501 7.09468 51.4212 8.00302 53.1058C8.89244 54.7362 10.3874 55.9136 12.1284 56.3121C12.7907 56.4752 13.4531 56.5476 14.0776 56.5476C16.4998 56.5476 18.4868 55.4064 19.433 53.3957C19.9818 52.2182 20.0196 50.914 19.5276 49.7003C19.4141 49.4286 19.0545 49.2836 18.7517 49.3923Z" fill="#2B2D42"/>
    <path d="M17.2371 46.2415C17.5777 46.2415 17.8426 45.9879 17.8616 45.68C17.8616 45.3539 17.6156 45.1003 17.2749 45.0822C15.2501 45.046 11.6924 45.4445 10.2921 48.8501C9.91359 49.7739 10.0082 50.897 10.5381 51.8752C11.049 52.8172 11.8817 53.4693 12.8279 53.7048C13.2253 53.7954 13.6416 53.8497 14.0579 53.8497C15.2122 53.8497 16.3287 53.4512 16.8775 52.31C17.3128 51.4042 17.2371 50.1724 16.6883 49.3392C16.2909 48.7414 15.7043 48.3972 15.023 48.3791C14.6445 48.3791 14.4174 48.6146 14.3985 48.9406C14.3985 49.2667 14.6445 49.5203 14.9852 49.5384C15.2501 49.5384 15.4772 49.6833 15.6475 49.9551C15.9692 50.4623 16.026 51.2955 15.761 51.839C15.2122 52.9802 13.5848 52.6904 13.1117 52.5817C12.5061 52.4368 11.9574 51.9839 11.5978 51.3499C11.2383 50.6615 11.1626 49.8826 11.4086 49.2848C12.4683 46.6763 15.1555 46.1691 17.2371 46.2415Z" fill="#2B2D42"/>
    <path d="M20.6441 45.082H19.4708C19.1302 45.082 18.8652 45.3356 18.8652 45.6617C18.8652 45.9878 19.1302 46.2414 19.4708 46.2414H20.6441C20.9847 46.2414 21.2496 45.9878 21.2496 45.6617C21.2496 45.3356 20.9847 45.082 20.6441 45.082Z" fill="#2B2D42"/>
    <path d="M22.5929 46.2414H25.8478C26.1884 46.2414 26.4533 45.9878 26.4533 45.6617C26.4533 45.3356 26.1884 45.082 25.8478 45.082H22.5929C22.2522 45.082 21.9873 45.3356 21.9873 45.6617C21.9873 45.9878 22.2522 46.2414 22.5929 46.2414Z" fill="#2B2D42"/>
    <path d="M23.9746 43.5422C24.3153 43.5422 24.5802 43.2885 24.5802 42.9625C24.5802 42.6364 24.3153 42.3828 23.9746 42.3828H22.0255C21.6849 42.3828 21.4199 42.6364 21.4199 42.9625C21.4199 43.2885 21.6849 43.5422 22.0255 43.5422H23.9746Z" fill="#2B2D42"/>
    <path d="M63.7714 47.1113H60.7247C60.3841 47.1113 60.1191 47.3649 60.1191 47.691C60.1191 48.0171 60.3841 48.2707 60.7247 48.2707H63.7714C67.8211 48.2707 70.7543 49.9553 72.0222 53.0348C72.5899 54.3934 72.4764 55.9513 71.7194 57.3461C71.0003 58.6866 69.7703 59.6286 68.3699 59.9728C65.7017 60.6068 63.393 59.701 62.4657 57.7084C62.0494 56.8208 62.0304 55.8245 62.39 54.9007C62.5035 54.6108 62.3521 54.2666 62.0494 54.1579C61.7466 54.0493 61.387 54.1942 61.2735 54.484C60.7815 55.6796 60.8193 57.002 61.3681 58.1794C62.3143 60.1901 64.3013 61.3314 66.7235 61.3314C67.348 61.3314 68.0104 61.2589 68.6727 61.0959C70.4137 60.6792 71.9276 59.5199 72.7981 57.8896C73.7064 56.2049 73.8389 54.2848 73.1576 52.6182C71.6626 49.0677 68.351 47.1113 63.7714 47.1113Z" fill="#2B2D42"/>
    <path d="M65.8158 54.2847C66.1565 54.2847 66.4214 54.013 66.4025 53.687C66.4025 53.379 66.1186 53.1254 65.7969 53.1254H65.778C65.0967 53.1435 64.5101 53.4877 64.1127 54.0855C63.5639 54.9369 63.4882 56.1506 63.9235 57.0563C64.4533 58.1794 65.5887 58.596 66.7431 58.596C67.1594 58.596 67.5757 58.5417 67.9731 58.4511C68.9193 58.2338 69.752 57.5635 70.2629 56.6215C70.7928 55.6433 70.8874 54.5202 70.5089 53.5964C69.1086 50.1908 65.5509 49.7742 63.5261 49.8285C63.1854 49.8285 62.9205 50.1002 62.9394 50.4263C62.9394 50.7343 63.299 50.9879 63.5639 50.9879C65.6455 50.9154 68.3138 51.4045 69.3924 54.0311C69.6384 54.647 69.5816 55.426 69.2032 56.0962C68.8625 56.7302 68.3138 57.1831 67.7082 57.328C67.2162 57.4367 65.5887 57.7265 65.0589 56.5853C64.794 56.0419 64.8507 55.2086 65.1724 54.7014C65.3238 54.4297 65.5509 54.2847 65.8158 54.2847Z" fill="#2B2D42"/>
    <path d="M61.898 50.4078C61.898 50.0817 61.6331 49.8281 61.2925 49.8281H60.1192C59.7786 49.8281 59.5137 50.0817 59.5137 50.4078C59.5137 50.7339 59.7786 50.9875 60.1192 50.9875H61.2925C61.6331 50.9694 61.898 50.7158 61.898 50.4078Z" fill="#2B2D42"/>
    <path d="M65.7023 41.8766C65.7023 41.5505 65.4374 41.2969 65.0967 41.2969H58.8897C58.5491 41.2969 58.2842 41.5505 58.2842 41.8766C58.2842 42.2026 58.5491 42.4562 58.8897 42.4562H65.0967C65.4374 42.4381 65.7023 42.1845 65.7023 41.8766Z" fill="#2B2D42"/>
    <path d="M68.5032 42.4367C68.8439 42.4367 69.1088 42.1831 69.1088 41.857C69.1088 41.5309 68.8439 41.2773 68.5032 41.2773H66.9893C66.6487 41.2773 66.3838 41.5309 66.3838 41.857C66.3838 42.1831 66.6487 42.4367 66.9893 42.4367H68.5032Z" fill="#2B2D42"/>
    <path d="M23.0085 38.7952C23.6708 38.7952 24.2196 38.2699 24.2196 37.6359C24.2196 37.0019 23.6708 36.4766 23.0085 36.4766C22.3461 36.4766 21.7974 37.0019 21.7974 37.6359C21.7784 38.2699 22.3272 38.7952 23.0085 38.7952Z" fill="#2B2D42"/>
    <path d="M58.8881 31.4049C60.2316 31.4049 61.3103 30.3543 61.3103 29.0863C61.3103 27.8001 60.2127 26.7676 58.8881 26.7676C57.5445 26.7676 56.4658 27.8182 56.4658 29.0863C56.4658 30.3724 57.5445 31.4049 58.8881 31.4049ZM58.8881 27.9088C59.5693 27.9088 60.1181 28.4341 60.1181 29.0863C60.1181 29.7384 59.5693 30.2637 58.8881 30.2637C58.2068 30.2637 57.658 29.7384 57.658 29.0863C57.658 28.4341 58.2068 27.9088 58.8881 27.9088Z" fill="#2B2D42"/>
    <path d="M15.4784 39.7745C18.0141 39.7745 20.0768 37.7999 20.0768 35.3726C20.0768 32.9452 18.0141 30.9707 15.4784 30.9707C12.9426 30.9707 10.8799 32.9452 10.8799 35.3726C10.8799 37.7999 12.9426 39.7745 15.4784 39.7745ZM15.4784 32.13C17.3518 32.13 18.8657 33.5792 18.8657 35.3726C18.8657 37.1659 17.3518 38.6151 15.4784 38.6151C13.6049 38.6151 12.091 37.1659 12.091 35.3726C12.091 33.5792 13.6049 32.13 15.4784 32.13Z" fill="#2B2D42"/>
    <path d="M23.01 48.9941C22.4802 48.9941 22.0449 49.4108 22.0449 49.918C22.0449 50.4252 22.4802 50.8419 23.01 50.8419C23.5399 50.8419 23.9751 50.4252 23.9751 49.918C23.9751 49.4108 23.5399 48.9941 23.01 48.9941Z" fill="#2B2D42"/>
    <path d="M70.9438 45.6617C70.9438 45.227 70.5843 44.8828 70.1301 44.8828C69.676 44.8828 69.3164 45.227 69.3164 45.6617C69.3164 46.0965 69.676 46.4407 70.1301 46.4407C70.5843 46.4407 70.9438 46.0965 70.9438 45.6617Z" fill="#2B2D42"/>
    <path d="M25.6409 30.6438C26.0903 30.6438 26.4546 30.2951 26.4546 29.8649C26.4546 29.4347 26.0903 29.0859 25.6409 29.0859C25.1915 29.0859 24.8271 29.4347 24.8271 29.8649C24.8271 30.2951 25.1915 30.6438 25.6409 30.6438Z" fill="#2B2D42"/>
    <path d="M34.1719 63.4492H36.1104V66.6216H34.1719V63.4492Z" fill="#B9B9B9"/>
    <path d="M49.6807 63.4492H51.6192V66.6216H49.6807V63.4492Z" fill="#B9B9B9"/>
    <path d="M30.7906 27.7578H52.1143C52.3714 27.7578 52.6179 27.8414 52.7997 27.9901C52.9815 28.1388 53.0836 28.3406 53.0836 28.5509V63.844C53.0836 63.9492 53.0325 64.0501 52.9416 64.1244C52.8508 64.1988 52.7275 64.2406 52.599 64.2406H30.3059C30.1774 64.2406 30.0541 64.1988 29.9632 64.1244C29.8723 64.0501 29.8213 63.9492 29.8213 63.844V28.5509C29.8213 28.3406 29.9234 28.1388 30.1052 27.9901C30.287 27.8414 30.5335 27.7578 30.7906 27.7578Z" fill="#CCCFDD"/>
    <path d="M42.8951 37.2762C44.501 37.2762 45.8029 36.2109 45.8029 34.8969C45.8029 33.5828 44.501 32.5176 42.8951 32.5176C41.2892 32.5176 39.9873 33.5828 39.9873 34.8969C39.9873 36.2109 41.2892 37.2762 42.8951 37.2762Z" fill="#04957C"/>
    <path d="M42.8956 36.483C43.9662 36.483 44.8341 35.7728 44.8341 34.8968C44.8341 34.0207 43.9662 33.3105 42.8956 33.3105C41.8249 33.3105 40.957 34.0207 40.957 34.8968C40.957 35.7728 41.8249 36.483 42.8956 36.483Z" fill="#92BA2A"/>
    <path d="M41.9258 42.8281H43.8643V44.4143H41.9258V42.8281Z" fill="#B9B9B9"/>
    <path d="M41.9258 46H43.8643V47.5862H41.9258V46Z" fill="#B9B9B9"/>
    <path d="M41.9258 49.1738H43.8643V50.76H41.9258V49.1738Z" fill="#B9B9B9"/>
    <path d="M41.9258 52.3457H43.8643V53.9319H41.9258V52.3457Z" fill="#B9B9B9"/>
    <path d="M41.9258 55.5176H43.8643V57.1038H41.9258V55.5176Z" fill="#B9B9B9"/>
    <path d="M41.9258 58.6895H43.8643V60.2757H41.9258V58.6895Z" fill="#B9B9B9"/>
    <path d="M38.0488 42.8281H39.9873V44.4143H38.0488V42.8281Z" fill="#B9B9B9"/>
    <path d="M38.0488 46H39.9873V47.5862H38.0488V46Z" fill="#B9B9B9"/>
    <path d="M38.0488 49.1738H39.9873V50.76H38.0488V49.1738Z" fill="#B9B9B9"/>
    <path d="M38.0488 52.3457H39.9873V53.9319H38.0488V52.3457Z" fill="#B9B9B9"/>
    <path d="M38.0488 55.5176H39.9873V57.1038H38.0488V55.5176Z" fill="#B9B9B9"/>
    <path d="M38.0488 58.6895H39.9873V60.2757H38.0488V58.6895Z" fill="#B9B9B9"/>
    <path d="M34.1719 42.8281H36.1104V44.4143H34.1719V42.8281Z" fill="#B9B9B9"/>
    <path d="M34.1719 46H36.1104V47.5862H34.1719V46Z" fill="#B9B9B9"/>
    <path d="M34.1719 49.1738H36.1104V50.76H34.1719V49.1738Z" fill="#B9B9B9"/>
    <path d="M34.1719 52.3457H36.1104V53.9319H34.1719V52.3457Z" fill="#B9B9B9"/>
    <path d="M34.1719 55.5176H36.1104V57.1038H34.1719V55.5176Z" fill="#B9B9B9"/>
    <path d="M34.1719 58.6895H36.1104V60.2757H34.1719V58.6895Z" fill="#B9B9B9"/>
    <path d="M45.8027 42.8281H47.7413V44.4143H45.8027V42.8281Z" fill="#B9B9B9"/>
    <path d="M45.8027 46H47.7413V47.5862H45.8027V46Z" fill="#B9B9B9"/>
    <path d="M45.8027 49.1738H47.7413V50.76H45.8027V49.1738Z" fill="#B9B9B9"/>
    <path d="M45.8027 52.3457H47.7413V53.9319H45.8027V52.3457Z" fill="#B9B9B9"/>
    <path d="M45.8027 55.5176H47.7413V57.1038H45.8027V55.5176Z" fill="#B9B9B9"/>
    <path d="M45.8027 58.6895H47.7413V60.2757H45.8027V58.6895Z" fill="#B9B9B9"/>
    <path d="M49.6797 42.8281H51.6182V44.4143H49.6797V42.8281Z" fill="#B9B9B9"/>
    <path d="M49.6797 46H51.6182V47.5862H49.6797V46Z" fill="#B9B9B9"/>
    <path d="M49.6797 49.1738H51.6182V50.76H49.6797V49.1738Z" fill="#B9B9B9"/>
    <path d="M49.6797 52.3457H51.6182V53.9319H49.6797V52.3457Z" fill="#B9B9B9"/>
    <path d="M49.6797 55.5176H51.6182V57.1038H49.6797V55.5176Z" fill="#B9B9B9"/>
    <path d="M49.6797 58.6895H51.6182V60.2757H49.6797V58.6895Z" fill="#B9B9B9"/>
    <path d="M34.1719 64.2422H36.1104V65.0353H34.1719V64.2422Z" fill="#878787"/>
    <path d="M49.6807 64.2422H51.6192V65.0353H49.6807V64.2422Z" fill="#878787"/>
    <path d="M42.8956 31.7246C42.1288 31.7246 41.3792 31.9107 40.7416 32.2593C40.1041 32.6078 39.6071 33.1033 39.3137 33.683C39.0202 34.2627 38.9435 34.9005 39.0931 35.5159C39.2426 36.1313 39.6119 36.6966 40.1541 37.1403C40.6963 37.5839 41.3872 37.8861 42.1392 38.0085C42.8913 38.1309 43.6709 38.0681 44.3793 37.828C45.0877 37.5878 45.6932 37.1812 46.1193 36.6595C46.5453 36.1378 46.7727 35.5245 46.7727 34.897C46.7715 34.0559 46.3627 33.2496 45.6358 32.6548C44.909 32.0601 43.9235 31.7256 42.8956 31.7246ZM42.8956 36.4832C42.5122 36.4832 42.1374 36.3902 41.8186 36.2159C41.4998 36.0416 41.2514 35.7939 41.1046 35.504C40.9579 35.2142 40.9195 34.8953 40.9943 34.5876C41.0691 34.2799 41.2538 33.9972 41.5249 33.7754C41.796 33.5536 42.1414 33.4025 42.5174 33.3413C42.8935 33.2801 43.2832 33.3115 43.6375 33.4316C43.9917 33.5516 44.2944 33.7549 44.5074 34.0158C44.7204 34.2766 44.8341 34.5833 44.8341 34.897C44.8335 35.3176 44.6291 35.7207 44.2657 36.0181C43.9023 36.3155 43.4096 36.4827 42.8956 36.4832Z" fill="black"/>
    <path d="M41.9258 42.8281H43.8643V44.4143H41.9258V42.8281Z" fill="black"/>
    <path d="M41.9258 46H43.8643V47.5862H41.9258V46Z" fill="black"/>
    <path d="M41.9258 49.1719H43.8643V50.7581H41.9258V49.1719Z" fill="black"/>
    <path d="M41.9258 52.3457H43.8643V53.9319H41.9258V52.3457Z" fill="black"/>
    <path d="M41.9258 55.5176H43.8643V57.1038H41.9258V55.5176Z" fill="black"/>
    <path d="M41.9258 58.6895H43.8643V60.2757H41.9258V58.6895Z" fill="black"/>
    <path d="M38.0488 42.8281H39.9874V44.4143H38.0488V42.8281Z" fill="black"/>
    <path d="M38.0488 46H39.9874V47.5862H38.0488V46Z" fill="black"/>
    <path d="M38.0488 49.1719H39.9874V50.7581H38.0488V49.1719Z" fill="black"/>
    <path d="M38.0488 52.3457H39.9874V53.9319H38.0488V52.3457Z" fill="black"/>
    <path d="M38.0488 55.5176H39.9874V57.1038H38.0488V55.5176Z" fill="black"/>
    <path d="M38.0488 58.6895H39.9874V60.2757H38.0488V58.6895Z" fill="black"/>
    <path d="M34.1719 42.8281H36.1104V44.4143H34.1719V42.8281Z" fill="black"/>
    <path d="M34.1719 46H36.1104V47.5862H34.1719V46Z" fill="black"/>
    <path d="M34.1719 49.1719H36.1104V50.7581H34.1719V49.1719Z" fill="black"/>
    <path d="M34.1719 52.3457H36.1104V53.9319H34.1719V52.3457Z" fill="black"/>
    <path d="M34.1719 55.5176H36.1104V57.1038H34.1719V55.5176Z" fill="black"/>
    <path d="M34.1719 58.6895H36.1104V60.2757H34.1719V58.6895Z" fill="black"/>
    <path d="M45.8037 42.8281H47.7422V44.4143H45.8037V42.8281Z" fill="black"/>
    <path d="M45.8037 46H47.7422V47.5862H45.8037V46Z" fill="black"/>
    <path d="M45.8037 49.1719H47.7422V50.7581H45.8037V49.1719Z" fill="black"/>
    <path d="M45.8037 52.3457H47.7422V53.9319H45.8037V52.3457Z" fill="black"/>
    <path d="M45.8037 55.5176H47.7422V57.1038H45.8037V55.5176Z" fill="black"/>
    <path d="M45.8037 58.6895H47.7422V60.2757H45.8037V58.6895Z" fill="black"/>
    <path d="M49.6807 42.8281H51.6192V44.4143H49.6807V42.8281Z" fill="black"/>
    <path d="M49.6807 46H51.6192V47.5862H49.6807V46Z" fill="black"/>
    <path d="M49.6807 49.1719H51.6192V50.7581H49.6807V49.1719Z" fill="black"/>
    <path d="M49.6807 52.3457H51.6192V53.9319H49.6807V52.3457Z" fill="black"/>
    <path d="M49.6807 55.5176H51.6192V57.1038H49.6807V55.5176Z" fill="black"/>
    <path d="M49.6807 58.6895H51.6192V60.2757H49.6807V58.6895Z" fill="black"/>
    <path d="M51.6187 66.62V65.0338H54.0419C54.4273 65.0335 54.7969 64.908 55.0694 64.685C55.342 64.462 55.4953 64.1596 55.4957 63.8442V28.5511C55.4951 28.1305 55.2907 27.7273 54.9273 27.43C54.5639 27.1326 54.0712 26.9653 53.5572 26.9648H32.2334C31.7195 26.9653 31.2268 27.1326 30.8634 27.43C30.5 27.7273 30.2955 28.1305 30.2949 28.5511V63.8442C30.2953 64.1596 30.4487 64.462 30.7212 64.685C30.9938 64.908 31.3633 65.0335 31.7488 65.0338H34.172V66.62H36.1105V65.0338H49.6802V66.62H51.6187ZM32.2334 63.4476V28.5511H53.5572V63.4476H32.2334Z" fill="black"/>
    <path d="M41.2927 18.0562L41.2877 20.146C41.2874 20.2846 41.2186 20.4188 41.0964 20.5192C40.9743 20.6195 40.8088 20.6778 40.6364 20.6811C40.464 20.6845 40.2988 20.6326 40.1771 20.537C40.0554 20.4414 39.9872 20.3099 39.9876 20.1713L39.9926 18.0815C39.993 17.9072 39.9391 17.7367 39.8359 17.5856C39.7327 17.4344 39.5834 17.3075 39.4016 17.2162C39.2199 17.1249 39.0114 17.0723 38.7952 17.063C38.579 17.0538 38.362 17.0882 38.1638 17.1633C37.9657 17.2383 37.7927 17.3515 37.6608 17.4926C37.5288 17.6336 37.442 17.7981 37.4082 17.971C37.3744 18.1438 37.3947 18.3196 37.4674 18.4823C37.54 18.645 37.6626 18.7895 37.824 18.9025C37.9506 18.9928 38.0264 19.1206 38.0348 19.2581C38.0433 19.3956 37.9837 19.5316 37.8691 19.6365C37.7545 19.7414 37.5942 19.8068 37.4229 19.8183C37.2517 19.8298 37.0836 19.7866 36.9551 19.698C36.6324 19.4719 36.3873 19.1829 36.2421 18.8575C36.097 18.5321 36.0563 18.1805 36.124 17.8347C36.1916 17.489 36.3653 17.1601 36.6293 16.878C36.8933 16.5959 37.2392 16.3696 37.6355 16.2196C38.0318 16.0696 38.4659 16.0007 38.8983 16.0192C39.3306 16.0378 39.7476 16.1431 40.1111 16.3256C40.4745 16.5082 40.7731 16.7622 40.9795 17.0644C41.1858 17.3667 41.2935 17.7076 41.2927 18.0562Z" fill="#6CBAE5"/>
    <path d="M43.8892 19.5724L43.8805 23.2296C43.8801 23.3682 43.8113 23.5024 43.6892 23.6028C43.5671 23.7031 43.4016 23.7614 43.2292 23.7647C43.0568 23.7681 42.8915 23.7162 42.7699 23.6206C42.6482 23.525 42.58 23.3935 42.5803 23.2549L42.5891 19.5977C42.5894 19.4591 42.6582 19.3249 42.7804 19.2246C42.9025 19.1242 43.068 19.066 43.2404 19.0626C43.4128 19.0593 43.578 19.1111 43.6997 19.2067C43.8214 19.3023 43.8895 19.4339 43.8892 19.5724Z" fill="#6CBAE5"/>
    <path d="M43.8959 16.4396L43.8922 18.007C43.8919 18.1455 43.823 18.2798 43.7009 18.3801C43.5788 18.4805 43.4133 18.5387 43.2409 18.5421C43.0685 18.5454 42.9033 18.4936 42.7816 18.398C42.6599 18.3024 42.5917 18.1708 42.5921 18.0322L42.5958 16.4649C42.5961 16.3263 42.6649 16.1921 42.7871 16.0917C42.9092 15.9914 43.0747 15.9331 43.2471 15.9298C43.4195 15.9264 43.5847 15.9783 43.7064 16.0739C43.8281 16.1695 43.8963 16.301 43.8959 16.4396Z" fill="#4799CF"/>
    <path d="M41.2824 22.2355L41.2799 23.2804C41.2796 23.419 41.2108 23.5532 41.0886 23.6535C40.9665 23.7539 40.801 23.8121 40.6286 23.8155C40.4562 23.8188 40.291 23.767 40.1693 23.6714C40.0476 23.5758 39.9794 23.4442 39.9798 23.3057L39.9823 22.2607C39.9826 22.1222 40.0514 21.988 40.1735 21.8876C40.2957 21.7873 40.4612 21.729 40.6336 21.7257C40.806 21.7223 40.9712 21.7741 41.0929 21.8698C41.2145 21.9654 41.2827 22.0969 41.2824 22.2355Z" fill="#4799CF"/>
    <path d="M50.393 17.8792C50.3921 18.1732 50.3141 18.4653 50.1642 18.7366C50.0142 19.0079 49.7956 19.2522 49.5227 19.4536C49.4591 19.5013 49.3848 19.5386 49.3039 19.5634C49.223 19.5882 49.1373 19.6 49.0516 19.5981C48.9659 19.5962 48.882 19.5807 48.8046 19.5525C48.7273 19.5242 48.658 19.4838 48.6009 19.4335C48.5438 19.3832 48.5 19.3241 48.4719 19.2595C48.4438 19.1949 48.4321 19.1262 48.4373 19.0572C48.4426 18.9883 48.4648 18.9205 48.5026 18.8578C48.5403 18.7951 48.593 18.7387 48.6575 18.6919C48.8195 18.5726 48.9428 18.4233 49.0162 18.2578C49.0896 18.0922 49.1108 17.9156 49.0778 17.744C49.0449 17.5725 48.9588 17.4114 48.8275 17.2754C48.6962 17.1395 48.5237 17.033 48.3259 16.9656C48.1281 16.8983 47.9112 16.8723 47.695 16.8899C47.4787 16.9076 47.27 16.9683 47.0878 17.0667C46.9055 17.165 46.7556 17.2978 46.6517 17.453C46.5478 17.6081 46.4931 17.7807 46.4927 17.955L46.4902 18.9999C46.4898 19.1385 46.421 19.2727 46.2989 19.373C46.1767 19.4734 46.0113 19.5316 45.8388 19.535C45.6664 19.5383 45.5012 19.4865 45.3795 19.3909C45.2579 19.2953 45.1897 19.1637 45.19 19.0252L45.1925 17.9803C45.1938 17.426 45.4691 16.8891 45.9576 16.4877C46.4462 16.0863 47.1081 15.8533 47.7978 15.8399C48.4874 15.8265 49.1483 16.0338 49.635 16.4163C50.1217 16.7987 50.3944 17.325 50.393 17.8792Z" fill="#6CBAE5"/>
    <path d="M46.4851 21.091L46.4801 23.1808C46.4798 23.3194 46.4109 23.4536 46.2888 23.5539C46.1667 23.6543 46.0012 23.7125 45.8288 23.7159C45.6564 23.7192 45.4912 23.6674 45.3695 23.5718C45.2478 23.4762 45.1796 23.3446 45.18 23.2061L45.1849 21.1162C45.1853 20.9777 45.2541 20.8434 45.3762 20.7431C45.4984 20.6427 45.6639 20.5845 45.8363 20.5811C46.0087 20.5778 46.1739 20.6296 46.2956 20.7252C46.4172 20.8208 46.4854 20.9524 46.4851 21.091Z" fill="#4799CF"/>
    <path d="M36.0922 18.1572C36.0917 18.4512 36.1683 18.7404 36.317 19.0058C36.4657 19.2713 36.6831 19.5071 36.9551 19.698C37.0836 19.7866 37.2517 19.8298 37.4229 19.8183C37.5941 19.8068 37.7545 19.7414 37.8691 19.6365C37.9837 19.5316 38.0433 19.3956 38.0348 19.2581C38.0264 19.1206 37.9506 18.9928 37.824 18.9025C37.6626 18.7895 37.54 18.6451 37.4674 18.4823C37.3947 18.3196 37.3744 18.1438 37.4082 17.971C37.4419 17.7981 37.5288 17.6336 37.6608 17.4926C37.7927 17.3515 37.9657 17.2383 38.1638 17.1633C38.362 17.0882 38.579 17.0538 38.7952 17.063C39.0114 17.0723 39.2199 17.1249 39.4016 17.2162C39.5834 17.3075 39.7327 17.4344 39.8359 17.5856C39.9391 17.7367 39.993 17.9072 39.9926 18.0815L39.9876 20.1713C39.9872 20.3099 40.0554 20.4414 40.1771 20.537C40.2988 20.6326 40.464 20.6845 40.6364 20.6811C40.8088 20.6778 40.9743 20.6195 41.0964 20.5192C41.2186 20.4188 41.2874 20.2846 41.2877 20.146L41.2927 18.0562C41.294 17.5019 41.0213 16.9757 40.5346 16.5933C40.0479 16.2108 39.3871 16.0035 38.6974 16.0169C38.0078 16.0303 37.3459 16.2633 36.8573 16.6647C36.3687 17.0661 36.0935 17.603 36.0922 18.1572Z" fill="#2B2D42"/>
    <path d="M43.2404 19.0626C43.068 19.066 42.9025 19.1242 42.7804 19.2246C42.6582 19.3249 42.5894 19.4591 42.5891 19.5977L42.5803 23.2549C42.58 23.3935 42.6482 23.525 42.7699 23.6206C42.8915 23.7162 43.0568 23.7681 43.2292 23.7647C43.4016 23.7614 43.5671 23.7031 43.6892 23.6028C43.8113 23.5024 43.8801 23.3682 43.8805 23.2296L43.8892 19.5724C43.8895 19.4339 43.8214 19.3023 43.6997 19.2067C43.578 19.1111 43.4128 19.0593 43.2404 19.0626Z" fill="#2B2D42"/>
    <path d="M42.5958 16.4649L42.5921 18.0322C42.5917 18.1708 42.6599 18.3024 42.7816 18.398C42.9033 18.4936 43.0685 18.5454 43.2409 18.5421C43.4133 18.5387 43.5788 18.4805 43.7009 18.3801C43.823 18.2798 43.8919 18.1455 43.8922 18.007L43.8959 16.4396C43.8963 16.301 43.8281 16.1695 43.7064 16.0739C43.5847 15.9783 43.4195 15.9264 43.2471 15.9298C43.0747 15.9331 42.9092 15.9914 42.7871 16.0917C42.6649 16.1921 42.5961 16.3263 42.5958 16.4649Z" fill="#2B2D42"/>
    <path d="M39.9823 22.2607L39.9798 23.3057C39.9794 23.4442 40.0476 23.5758 40.1693 23.6714C40.291 23.767 40.4562 23.8188 40.6286 23.8155C40.801 23.8121 40.9665 23.7539 41.0886 23.6535C41.2108 23.5532 41.2796 23.419 41.2799 23.2804L41.2824 22.2355C41.2827 22.0969 41.2145 21.9654 41.0929 21.8698C40.9712 21.7741 40.806 21.7223 40.6336 21.7257C40.4612 21.729 40.2957 21.7873 40.1735 21.8876C40.0514 21.988 39.9826 22.1222 39.9823 22.2607Z" fill="#2B2D42"/>
    <path d="M45.1925 17.9803L45.19 19.0252C45.1897 19.1637 45.2579 19.2953 45.3795 19.3909C45.5012 19.4865 45.6664 19.5383 45.8388 19.535C46.0113 19.5316 46.1767 19.4734 46.2989 19.373C46.421 19.2727 46.4898 19.1385 46.4902 18.9999L46.4927 17.955C46.4931 17.7807 46.5478 17.6081 46.6517 17.453C46.7556 17.2978 46.9055 17.165 47.0878 17.0667C47.27 16.9683 47.4787 16.9076 47.695 16.8899C47.9112 16.8723 48.1281 16.8983 48.3259 16.9656C48.5238 17.033 48.6962 17.1395 48.8275 17.2754C48.9588 17.4114 49.0449 17.5725 49.0778 17.744C49.1108 17.9156 49.0896 18.0922 49.0162 18.2578C48.9428 18.4233 48.8195 18.5726 48.6575 18.6919C48.593 18.7387 48.5403 18.7951 48.5026 18.8578C48.4648 18.9205 48.4426 18.9883 48.4373 19.0572C48.4321 19.1262 48.4438 19.1949 48.4719 19.2595C48.5 19.3241 48.5438 19.3832 48.6009 19.4335C48.658 19.4838 48.7273 19.5242 48.8046 19.5525C48.882 19.5807 48.9659 19.5962 49.0516 19.5981C49.1373 19.6 49.223 19.5882 49.3039 19.5634C49.3848 19.5386 49.4591 19.5013 49.5227 19.4536C49.8465 19.2149 50.093 18.9164 50.2397 18.5853C50.3865 18.2542 50.4288 17.901 50.3628 17.5579C50.2968 17.2148 50.1246 16.8926 49.8619 16.6208C49.5993 16.3489 49.2544 16.136 48.8588 16.0013C48.4632 15.8667 48.0294 15.8147 47.5969 15.8501C47.1644 15.8854 46.7469 16.0069 46.3825 16.2036C46.0181 16.4003 45.7184 16.6659 45.5105 16.9762C45.3027 17.2865 45.1934 17.6317 45.1925 17.9803Z" fill="#2B2D42"/>
    <path d="M45.18 23.2061C45.1796 23.3446 45.2478 23.4762 45.3695 23.5718C45.4912 23.6674 45.6564 23.7192 45.8288 23.7159C46.0012 23.7125 46.1667 23.6543 46.2888 23.5539C46.4109 23.4536 46.4798 23.3194 46.4801 23.1808L46.4851 21.091C46.4854 20.9524 46.4172 20.8208 46.2956 20.7252C46.1739 20.6296 46.0087 20.5778 45.8363 20.5811C45.6639 20.5845 45.4984 20.6427 45.3762 20.7431C45.2541 20.8434 45.1853 20.9777 45.1849 21.1162L45.18 23.2061Z" fill="#2B2D42"/>
</svg>
