<svg width="101" height="100" viewBox="0 0 101 100" fill="none" xmlns="http://www.w3.org/2000/svg">
    <path d="M39.2138 33.0655C38.9491 33.0655 38.6844 33.1334 38.4373 33.2014C37.3608 30.7095 35.3137 29.0332 32.9488 29.0332C30.8664 29.0332 29.031 30.3244 27.8839 32.3179C27.4957 32.1593 27.0898 32.0461 26.6662 32.0461C25.0426 32.0461 23.6484 33.3146 23.0661 35.1042C22.9602 35.0816 22.8543 35.0816 22.7484 35.0816C21.8836 35.0816 21.1777 35.9651 21.1777 37.0977H42.3552C42.3552 34.8551 40.9433 33.0655 39.2138 33.0655Z" fill="white"/>
    <path d="M49.6851 80.6445C32.1145 80.6445 17.9189 66.6057 17.9189 49.1929C17.9189 31.7802 32.0982 17.7413 49.6851 17.7413C67.272 17.7413 81.4512 31.7802 81.4512 49.1929C81.4512 66.6057 67.2558 80.6445 49.6851 80.6445ZM49.6849 21.9466C34.4401 21.9468 22.1663 34.0988 22.1663 49.1929C22.1663 55.9885 24.6533 62.1925 28.7876 66.9572L67.6272 28.5022C62.8145 24.409 56.5484 21.9466 49.6849 21.9466ZM70.5825 31.4286L31.7429 69.8835C36.5555 73.9767 42.8215 76.4392 49.6851 76.4392C64.9303 76.4392 77.2038 64.2872 77.2038 49.1929C77.2038 42.3973 74.7168 36.1935 70.5825 31.4286Z" fill="#CB3B2F"/>
    <path d="M73.432 53.5422V53.0939C73.432 52.2669 72.789 51.5965 71.9957 51.5965C71.5441 51.5965 71.1415 51.8138 70.878 52.1532C70.7755 52.2854 70.569 52.2042 70.5694 52.0339L70.5702 51.8436C70.5702 50.4811 69.5106 49.377 68.2041 49.377C66.8969 49.377 65.8373 50.4819 65.8381 51.8448L65.8389 53.1244C65.8393 54.3692 64.8718 55.3786 63.6778 55.3786H60.6553V56.5076L62.0901 56.4964C63.1827 56.4876 64.0727 57.4086 64.0727 58.5473V58.6943C64.0727 59.5105 64.7123 60.223 65.4952 60.2306C65.9109 60.2346 66.2854 60.0543 66.5497 59.7635C66.658 59.6446 66.8495 59.7233 66.8495 59.8876V59.888C66.8495 61.2525 67.9109 62.359 69.2197 62.359C70.5258 62.359 71.5861 61.2577 71.5904 59.896L71.5931 59.3229C71.5946 59.008 71.8397 58.7537 72.1417 58.7537H73.432C74.7566 58.7537 75.8304 57.6343 75.8304 56.2538C75.8304 54.9424 74.8618 53.8667 73.6297 53.7619C73.5183 53.7526 73.432 53.6583 73.432 53.5422Z" fill="#B9ACAC"/>
    <path d="M73.9119 53.8066C74.1885 54.2143 74.3531 54.7104 74.3531 55.2474C74.3531 56.6283 73.2793 57.7477 71.9551 57.7477H70.6644C70.3627 57.7477 70.1176 58.002 70.1161 58.3165L70.113 58.8897C70.1088 60.2513 69.0489 61.353 67.7428 61.353C67.5833 61.353 67.428 61.3362 67.2773 61.3048C67.7062 61.9423 68.4159 62.3596 69.2192 62.3596C70.5253 62.3596 71.5852 61.2583 71.5894 59.8966L71.5925 59.3235C71.5941 59.0086 71.8391 58.7543 72.1408 58.7543H73.4315C74.7557 58.7543 75.8295 57.6349 75.8295 56.2544C75.8295 55.0454 75.0057 54.0388 73.9119 53.8066Z" fill="#9E9797"/>
    <path d="M59.3943 51.5124L58.4176 44.9163C58.2288 43.6419 57.1766 42.7012 55.9395 42.7012H41.8346C41.5873 42.7012 41.3511 42.808 41.182 42.9964L35.3457 51.5124H59.3943Z" fill="#9FD9F1"/>
    <path d="M58.0888 42.7012H54.7715L56.0499 51.5124H59.3937L58.0888 42.7012Z" fill="#9FD9F1"/>
    <path d="M61.8054 50.5371H35.6568L29.9527 51.967C28.7706 52.1759 27.9053 53.2431 27.9053 54.4931V60.1978C27.9053 60.7887 28.3649 61.2678 28.9317 61.2678H61.807C62.3737 61.2678 62.833 60.7887 62.833 60.1978V51.6083C62.833 51.0167 62.3729 50.5371 61.8054 50.5371Z" fill="#92BA2A"/>
    <path d="M61.8054 50.5371H53.5993V56.5668C53.5993 57.1585 53.1393 57.638 52.5714 57.638H27.9053V60.1978C27.9053 60.7887 28.3649 61.2678 28.9317 61.2678H61.807C62.3737 61.2678 62.833 60.7887 62.833 60.1978V51.6083C62.833 51.0167 62.3729 50.5371 61.8054 50.5371Z" fill="#92BA2A"/>
    <path d="M39.5469 61.2688C39.5469 63.5301 37.7885 65.3637 35.6194 65.3637C33.4498 65.3637 31.6914 63.5301 31.6914 61.2688C31.6914 59.007 33.4498 57.1738 35.6194 57.1738C37.7885 57.1738 39.5469 59.007 39.5469 61.2688Z" fill="#5B5555"/>
    <path d="M37.1093 57.4805C37.4849 58.1083 37.7026 58.8497 37.7026 59.6442C37.7026 61.9056 35.9442 63.7388 33.7747 63.7388C33.2472 63.7388 32.7448 63.6299 32.2852 63.4331C32.9787 64.5927 34.2123 65.3647 35.6198 65.3647C37.7889 65.3647 39.5473 63.5311 39.5473 61.2697C39.5473 59.5579 38.5398 58.0922 37.1093 57.4805Z" fill="#444444"/>
    <path d="M60.6544 61.2688C60.6544 63.5301 58.8959 65.3637 56.7268 65.3637C54.5573 65.3637 52.7988 63.5301 52.7988 61.2688C52.7988 59.007 54.5573 57.1738 56.7268 57.1738C58.8959 57.1738 60.6544 59.007 60.6544 61.2688Z" fill="#5B5555"/>
    <path d="M58.2167 57.4785C58.5924 58.1063 58.81 58.8478 58.81 59.6423C58.81 61.9036 57.0516 63.7368 54.8825 63.7368C54.355 63.7368 53.8522 63.6279 53.3926 63.4311C54.0861 64.5907 55.3198 65.3627 56.7272 65.3627C58.8963 65.3627 60.6548 63.5291 60.6548 61.2678C60.6548 59.5559 59.6473 58.0902 58.2167 57.4785Z" fill="#444444"/>
    <path d="M74.1661 53.0792C74.158 51.8385 73.1875 50.8311 71.9954 50.8311C71.7165 50.8311 71.4456 50.8861 71.1944 50.9898C70.8342 49.6205 69.6298 48.6115 68.2038 48.6115C67.3755 48.6115 66.5964 48.9477 66.0108 49.5586C65.4252 50.1696 65.1031 50.9817 65.1035 51.8453L65.1039 53.125C65.1043 53.5226 64.9559 53.8962 64.6866 54.1773C64.4169 54.4581 64.0586 54.6131 63.6776 54.6131H63.5677V51.6095C63.5677 50.5965 62.7772 49.7723 61.8055 49.7723H59.8802L59.1439 44.7998C58.8981 43.1401 57.5504 41.9355 55.9399 41.9355H41.8352C41.3859 41.9355 40.9525 42.132 40.6462 42.4738C40.6242 42.4983 40.6038 42.5244 40.5849 42.5513L35.6352 49.7735C35.5844 49.7751 35.5343 49.7812 35.485 49.7936L29.804 51.2179C28.2767 51.5007 27.1714 52.8739 27.1714 54.4938V55.0545C26.4929 55.4887 26.0645 56.2635 26.0645 57.1235C26.0645 57.9834 26.4929 58.7578 27.1714 59.1924V60.1986C27.1714 61.2108 27.9608 62.0342 28.9317 62.0342H31.0161C31.3694 64.3517 33.2989 66.1291 35.6198 66.1291C37.9408 66.1291 39.8702 64.3517 40.2235 62.0342H52.1237C52.477 64.3517 54.4065 66.1291 56.7275 66.1291C59.0484 66.1291 60.9779 64.3517 61.3312 62.0342H61.8074C62.7779 62.0342 63.5677 61.2108 63.5677 60.1986V59.7202C63.9222 60.4685 64.6496 60.9879 65.4884 60.9959C65.7519 60.9963 66.0127 60.9501 66.257 60.8565C66.6527 62.1695 67.8313 63.1247 69.2194 63.1247C70.9262 63.1247 72.319 61.6775 72.3244 59.8998L72.326 59.5194H73.4317C75.1589 59.5194 76.5644 58.0545 76.5644 56.2535C76.5641 54.7364 75.5435 53.4278 74.1661 53.0792ZM41.7408 43.4996C41.7678 43.4783 41.8009 43.4667 41.8352 43.4667H45.5528V49.7723H37.4414L41.7408 43.4996ZM56.7275 64.5976C54.9663 64.5976 53.5339 63.1042 53.5339 61.2686C53.5339 59.4326 54.9663 57.9393 56.7275 57.9393C58.4882 57.9393 59.9207 59.4326 59.9207 61.2686C59.9207 63.1042 58.4882 64.5976 56.7275 64.5976ZM62.0987 60.199C62.0987 60.3665 61.9681 60.503 61.807 60.503H61.3312C60.9779 58.1855 59.048 56.4085 56.7275 56.4085C54.4065 56.4085 52.4767 58.1855 52.1234 60.503H40.2235C39.8702 58.1855 37.9404 56.4085 35.6198 56.4085C35.0542 56.4085 34.5017 56.513 33.977 56.7186C33.5975 56.8676 33.4056 57.3095 33.5489 57.7051C33.6915 58.1007 34.1153 58.3008 34.4948 58.1517C34.8535 58.0108 35.2318 57.9397 35.6198 57.9397C37.3806 57.9397 38.813 59.433 38.813 61.2686C38.813 63.1042 37.3806 64.598 35.6198 64.598C33.8587 64.598 32.4262 63.1042 32.4262 61.2686C32.4262 60.8388 32.5033 60.4207 32.6558 60.0263C32.8073 59.6343 32.625 59.188 32.2486 59.0302C31.8722 58.8723 31.4445 59.0623 31.2931 59.4547C31.1625 59.7937 31.0704 60.1444 31.0161 60.503H28.9317C28.7707 60.503 28.6401 60.3665 28.6401 60.199V54.4938C28.6401 53.6142 29.2434 52.8695 30.0752 52.7229C30.0918 52.7201 30.1084 52.7165 30.1245 52.7125L35.7439 51.3034H50.6408C51.0461 51.3034 51.3751 50.9608 51.3751 50.5379C51.3751 50.1149 51.0461 49.7723 50.6408 49.7723H47.0218V43.4667H55.9399C56.8207 43.4667 57.5577 44.1258 57.6922 45.0335L58.3938 49.7723H53.8825C53.4772 49.7723 53.1482 50.1149 53.1482 50.5379C53.1482 50.9608 53.4772 51.3034 53.8825 51.3034H61.8055C61.9673 51.3034 62.0991 51.4408 62.0991 51.6091V60.199H62.0987ZM73.4313 57.9883H72.141C71.4375 57.9883 70.8619 58.5851 70.858 59.319L70.8554 59.8937C70.8523 60.8308 70.1183 61.5936 69.2194 61.5936C68.3175 61.5936 67.5835 60.8284 67.5835 59.8877C67.5835 59.4981 67.3593 59.1531 67.0122 59.0085C66.9016 58.9627 66.7872 58.9406 66.6739 58.9406C66.43 58.9406 66.1919 59.0438 66.0158 59.2374C65.8821 59.3844 65.7022 59.4652 65.5084 59.4652C65.5061 59.4652 65.5038 59.4652 65.5015 59.4648C65.1312 59.4611 64.8064 59.1013 64.8064 58.6944V58.5474C64.8064 57.5713 64.3329 56.6905 63.5674 56.1792V56.1442H63.6776C64.4512 56.1442 65.1782 55.8301 65.7253 55.2598C66.272 54.689 66.5729 53.9307 66.5726 53.1242L66.5718 51.8445C66.5718 51.3902 66.7413 50.9628 67.0495 50.6411C67.3578 50.3198 67.7677 50.1427 68.2035 50.1427C69.1031 50.1427 69.8351 50.9058 69.8351 51.8417L69.8347 52.0317C69.8332 52.4337 70.0771 52.7948 70.4412 52.9298C70.803 53.0639 71.2079 52.945 71.4487 52.6345C71.5831 52.4614 71.7823 52.3622 71.9954 52.3622C72.3822 52.3622 72.6974 52.6908 72.6974 53.094V53.5419C72.6974 54.06 73.0723 54.4826 73.5697 54.5252C74.425 54.5979 75.0954 55.3574 75.0954 56.2535C75.0954 57.2102 74.3487 57.9883 73.4313 57.9883Z" fill="black"/>
    <path d="M36.7191 61.2678C36.7191 61.9009 36.2267 62.4142 35.6195 62.4142C35.0119 62.4142 34.5195 61.9009 34.5195 61.2678C34.5195 60.6344 35.0119 60.1211 35.6195 60.1211C36.2267 60.1211 36.7191 60.6344 36.7191 61.2678Z" fill="black"/>
    <path d="M57.8265 61.2678C57.8265 61.9009 57.3341 62.4142 56.7269 62.4142C56.1193 62.4142 55.627 61.9009 55.627 61.2678C55.627 60.6344 56.1193 60.1211 56.7269 60.1211C57.3341 60.1211 57.8265 60.6344 57.8265 61.2678Z" fill="black"/>
    <path d="M44.1809 53.3066H42.456C42.0503 53.3066 41.7217 53.6493 41.7217 54.0722C41.7217 54.4952 42.0503 54.8378 42.456 54.8378H44.1809C44.5863 54.8378 44.9153 54.4952 44.9153 54.0722C44.9149 53.6493 44.5863 53.3066 44.1809 53.3066Z" fill="black"/>
</svg>