<svg width="90" height="86" viewBox="0 0 90 86" fill="none" xmlns="http://www.w3.org/2000/svg">
    <path d="M44.4367 25.5269C48.1046 25.5269 51.0834 22.6092 51.0834 19.0165C51.1056 15.4021 48.1268 12.4844 44.4367 12.4844C40.7466 12.4844 37.79 15.4021 37.79 18.9948C37.79 22.6092 40.7688 25.5269 44.4367 25.5269Z" fill="#6C8C19"/>
    <path d="M50.8394 48.3248C49.9947 44.9934 49.5946 35.4999 49.5946 35.4999C49.5946 35.4999 57.1082 47.9764 58.4197 47.0619C59.7313 46.1474 51.2173 28.4017 49.4167 27.2259C47.6161 26.0501 40.9472 26.0501 38.9688 27.7484C36.9904 29.4468 27.765 48.2812 29.1655 49.2611C30.566 50.2627 38.1685 38.2435 38.1685 38.2435C38.1685 38.2435 39.8358 54.0295 38.1685 58.0795C36.5013 62.1294 29.1655 73.5172 31.4107 73.5172C33.6559 73.5172 41.4141 62.8044 42.6589 60.3004C43.9038 57.7964 45.6377 51.9828 45.6377 51.9828C45.6377 51.9828 56.6191 74.018 58.4197 73.539C60.2426 73.0382 51.6842 51.6562 50.8394 48.3248Z" fill="#6C8C19"/>
    <path d="M72.2533 23.5808C71.9812 23.5808 71.709 23.6276 71.4549 23.6743C70.3481 21.96 68.2433 20.8066 65.8118 20.8066C63.6707 20.8066 61.7836 21.695 60.6041 23.0665C60.205 22.9574 59.7876 22.8795 59.3521 22.8795C57.6828 22.8795 56.2493 23.7523 55.6505 24.9835C55.5416 24.9679 55.4328 24.9679 55.3239 24.9679C54.4348 24.9679 53.709 25.5758 53.709 26.355H75.4832C75.4832 24.8121 74.0316 23.5808 72.2533 23.5808Z" fill="white"/>
    <path d="M25.4031 30.051C27.9831 30.051 30.0747 28.0524 30.0747 25.587C30.0747 23.1216 27.9831 21.123 25.4031 21.123C22.823 21.123 20.7314 23.1216 20.7314 25.587C20.7314 28.0524 22.823 30.051 25.4031 30.051Z" fill="#E2C62F"/>
    <path d="M35.5287 24.8574H31.8396C31.4185 24.8574 31.0576 25.1831 31.0576 25.6046C31.0576 26.007 31.3985 26.3518 31.8396 26.3518H35.5087C35.9297 26.3518 36.2906 26.0261 36.2906 25.6046C36.2906 25.1831 35.9498 24.8574 35.5287 24.8574Z" fill="#E2C62F"/>
    <path d="M19.7487 25.587C19.7487 25.1847 19.4078 24.8398 18.9667 24.8398H15.2976C14.8565 24.859 14.5156 25.1847 14.5156 25.587C14.5156 25.9894 14.8565 26.3342 15.2976 26.3342H18.9667C19.4078 26.3342 19.7487 26.0085 19.7487 25.587Z" fill="#E2C62F"/>
    <path d="M29.9531 21.9843C30.1536 21.9843 30.3541 21.9077 30.4944 21.7736L33.1009 19.2829C33.4017 18.9956 33.4017 18.5166 33.1009 18.2292C32.8002 17.9418 32.2989 17.9418 31.9982 18.2292L29.3917 20.7199C29.111 21.0072 29.111 21.4862 29.4117 21.7736C29.5521 21.9077 29.7526 21.9843 29.9531 21.9843Z" fill="#E2C62F"/>
    <path d="M20.3106 29.4187L17.7041 31.9093C17.4033 32.1967 17.4033 32.6757 17.7041 32.963C17.8645 33.1163 18.065 33.1738 18.2454 33.1738C18.4459 33.1738 18.6464 33.0971 18.7868 32.963L21.3933 30.4724C21.694 30.185 21.694 29.706 21.3933 29.4187C21.1126 29.1313 20.6113 29.1313 20.3106 29.4187Z" fill="#E2C62F"/>
    <path d="M20.3091 21.7736C20.4695 21.9269 20.67 21.9843 20.8505 21.9843C21.051 21.9843 21.2515 21.9077 21.3918 21.7736C21.6926 21.4862 21.6926 21.0072 21.3918 20.7199L18.7853 18.2292C18.4846 17.9418 17.9833 17.9418 17.6826 18.2292C17.3818 18.5166 17.3818 18.9956 17.6826 19.2829L20.3091 21.7736Z" fill="#E2C62F"/>
    <path d="M30.5158 29.4187C30.2151 29.1313 29.7138 29.1313 29.4131 29.4187C29.1123 29.706 29.1123 30.185 29.4131 30.4724L32.0195 32.963C32.1599 33.0971 32.3604 33.1738 32.5609 33.1738C32.7614 33.1738 32.9619 33.0971 33.1022 32.963C33.403 32.6757 33.403 32.1967 33.1022 31.9093L30.5158 29.4187Z" fill="#E2C62F"/>
    <path d="M25.403 20.2602C25.8241 20.2602 26.185 19.9345 26.185 19.513V16.007C26.185 15.5855 25.8441 15.2598 25.403 15.2598C24.9619 15.2598 24.6211 15.5855 24.6211 16.007V19.513C24.6211 19.9345 24.982 20.2602 25.403 20.2602Z" fill="#E2C62F"/>
    <path d="M25.403 31.0664C24.982 31.0664 24.6211 31.3921 24.6211 31.8136V35.3197C24.6211 35.722 24.9619 36.0669 25.403 36.0669C25.8441 36.0669 26.185 35.7412 26.185 35.3197V31.8136C26.185 31.4113 25.8441 31.0664 25.403 31.0664Z" fill="#E2C62F"/>
</svg>
