<svg width="97" height="90" viewBox="0 0 97 90" fill="none" xmlns="http://www.w3.org/2000/svg">
    <path d="M75.6276 43.4996H73.2432V37.2335C73.2432 35.0968 72.1128 33.0476 70.1006 31.5367C68.0884 30.0258 65.3592 29.177 62.5135 29.177C59.6678 29.177 56.9387 30.0258 54.9265 31.5367C52.9142 33.0476 51.7838 35.0968 51.7838 37.2335V42.6045H49.3994V37.2335C49.3994 34.622 50.7811 32.1174 53.2404 30.2708C55.6998 28.4241 59.0354 27.3867 62.5135 27.3867C65.9916 27.3867 69.3272 28.4241 71.7866 30.2708C74.2459 32.1174 75.6276 34.622 75.6276 37.2335V43.4996Z" fill="#428DC5"/>
    <path d="M44.6299 41.709H78.0112V45.2896H44.6299V41.709Z" fill="#6CBAE5"/>
    <path d="M74.4348 62.2991H48.2066L45.8223 45.291H76.8192L74.4348 62.2991Z" fill="#B2E7FF"/>
    <path d="M78.0116 41.4851V47.9247C78.0116 48.8881 77.025 49.7184 75.7419 49.7631C75.4196 49.7746 75.0975 49.7369 74.7951 49.6523C74.4928 49.5676 74.2164 49.4378 73.9828 49.2706C73.7492 49.1035 73.5631 48.9025 73.4359 48.6798C73.3088 48.4571 73.2431 48.2174 73.2428 47.9751C73.2428 48.4499 72.9916 48.9053 72.5444 49.241C72.0973 49.5768 71.4908 49.7654 70.8584 49.7654C70.2261 49.7654 69.6196 49.5768 69.1724 49.241C68.7253 48.9053 68.474 48.4499 68.474 47.9751C68.474 48.4499 68.2228 48.9053 67.7757 49.241C67.3285 49.5768 66.722 49.7654 66.0897 49.7654C65.4573 49.7654 64.8508 49.5768 64.4037 49.241C63.9565 48.9053 63.7053 48.4499 63.7053 47.9751C63.7059 48.2893 63.5958 48.5981 63.3864 48.8702C63.1762 49.1421 62.8752 49.3681 62.5131 49.5259C62.1621 49.6792 61.7642 49.7617 61.3582 49.7654C60.0259 49.7799 58.9365 48.9262 58.9365 47.9258V41.4851C58.9365 40.8322 59.2819 40.2061 59.8968 39.7445C60.5116 39.2828 61.3455 39.0234 62.215 39.0234H74.733C75.6026 39.0234 76.4365 39.2828 77.0513 39.7445C77.6662 40.2061 78.0116 40.8322 78.0116 41.4851Z" fill="#FD9226"/>
    <path d="M48.207 62.2988H74.4352V65.8795H48.207V62.2988Z" fill="#6CBAE5"/>
    <path d="M68.4746 55.1367H70.859V59.6125H68.4746V55.1367Z" fill="#6CBAE5"/>
    <path d="M68.4746 51.5566H70.859V53.347H68.4746V51.5566Z" fill="#6CBAE5"/>
    <path d="M63.7058 47.9752C63.7064 48.2894 63.5964 48.5983 63.3869 48.8703C63.1768 49.1422 62.8758 49.3683 62.5137 49.526V44.3945H63.7058V47.9752Z" fill="#E08122"/>
    <path d="M68.4744 47.9752C68.4746 48.2895 68.3645 48.5984 68.1552 48.8706C67.9459 49.1429 67.6448 49.3689 67.2822 49.526V44.3945H68.4744V47.9752Z" fill="#E08122"/>
    <path d="M73.243 47.9752C73.2432 48.2895 73.1331 48.5984 72.9238 48.8706C72.7145 49.1429 72.4134 49.3689 72.0508 49.526V44.3945H73.243V47.9752Z" fill="#E08122"/>
    <path d="M56.5525 65.8781H18.4023L20.7867 58.7168H54.1681L56.5525 65.8781Z" fill="#FBB540"/>
    <path d="M21.9783 55.1367H52.9753C53.2915 55.1367 53.5947 55.231 53.8183 55.3989C54.0419 55.5668 54.1675 55.7945 54.1675 56.0319V58.7174H20.7861V56.0319C20.7861 55.7945 20.9117 55.5668 21.1353 55.3989C21.3589 55.231 21.6621 55.1367 21.9783 55.1367Z" fill="#8B6B61"/>
    <path d="M35.0926 58.7168H39.8613L41.0535 65.8781H33.9004L35.0926 58.7168Z" fill="#EA9D2D"/>
    <path d="M23.1709 65.8781L25.5553 58.7168H30.324L27.9397 65.8781H23.1709Z" fill="#EA9D2D"/>
    <path d="M37.4772 13.959C38.1095 13.959 38.716 14.1476 39.1632 14.4834C39.6103 14.8191 39.8615 15.2745 39.8615 15.7493V55.1364H35.0928V15.7493C35.0928 15.2745 35.344 14.8191 35.7911 14.4834C36.2383 14.1476 36.8448 13.959 37.4772 13.959Z" fill="#8B6B61"/>
    <path d="M44.6299 58.7168H49.3986L51.783 65.8781H47.0143L44.6299 58.7168Z" fill="#EA9D2D"/>
    <path d="M75.6273 38.1961V37.2338C75.6273 34.6223 74.2456 32.1177 71.7863 30.2711C69.3269 28.4245 65.9913 27.387 62.5132 27.387C59.0351 27.387 55.6995 28.4245 53.2401 30.2711C50.7807 32.1177 49.3991 34.6223 49.3991 37.2338V40.8145H44.6303C44.3141 40.8145 44.0109 40.9088 43.7873 41.0766C43.5637 41.2445 43.4381 41.4722 43.4381 41.7096V45.2903C43.4381 45.5277 43.5637 45.7554 43.7873 45.9232C44.0109 46.0911 44.3141 46.1854 44.6303 46.1854H44.7495L45.8785 54.2419H41.0537V15.7499C41.0537 15.0377 40.6769 14.3546 40.0062 13.851C39.3355 13.3474 38.4257 13.0645 37.4772 13.0645C36.5286 13.0645 35.6189 13.3474 34.9482 13.851C34.2774 14.3546 33.9006 15.0377 33.9006 15.7499V54.2419H21.9787C21.3465 54.2424 20.7405 54.4312 20.2935 54.7669C19.8465 55.1025 19.5951 55.5575 19.5943 56.0322V58.6075L17.2455 65.6619C17.2016 65.7939 17.1983 65.9316 17.2359 66.0647C17.2735 66.1978 17.351 66.3227 17.4625 66.4299C17.574 66.5371 17.7165 66.6238 17.8793 66.6835C18.0422 66.7431 18.221 66.7741 18.4021 66.7741H74.4351C74.7513 66.7741 75.0545 66.6798 75.2781 66.512C75.5017 66.3441 75.6273 66.1164 75.6273 65.879V62.3453L77.3101 50.3421C77.8865 50.1047 78.3667 49.7548 78.7001 49.3294C79.0334 48.9039 79.2075 48.4188 79.2039 47.9252V41.4858C79.2027 40.7122 78.8463 39.9626 78.1948 39.3634C77.5432 38.7641 76.6365 38.3519 75.6273 38.1961ZM51.7835 37.2338C51.7835 36.1758 52.061 35.1282 52.6002 34.1507C53.1394 33.1733 53.9298 32.2852 54.9261 31.537C55.9225 30.7889 57.1053 30.1955 58.4071 29.7906C59.7089 29.3857 61.1041 29.1774 62.5132 29.1774C63.9222 29.1774 65.3175 29.3857 66.6193 29.7906C67.9211 30.1955 69.1039 30.7889 70.1002 31.537C71.0966 32.2852 71.8869 33.1733 72.4261 34.1507C72.9654 35.1282 73.2429 36.1758 73.2429 37.2338V38.129H62.2151C61.1849 38.1299 60.1865 38.3975 59.3884 38.8867C58.5903 39.3759 58.0413 40.0567 57.8338 40.8145H51.7835V37.2338ZM45.8225 42.6048H57.7444V44.3951H45.8225V42.6048ZM47.1467 46.1854H57.7444V47.9265C57.7465 48.2919 57.8446 48.6533 58.0332 48.9901C58.2219 49.3269 58.4973 49.6324 58.8436 49.889C59.1757 50.1381 59.5709 50.3347 60.0058 50.4673C60.4407 50.5999 60.9065 50.6658 61.3758 50.6611C62.2367 50.6496 63.0633 50.4063 63.7054 49.9756C64.3605 50.417 65.2096 50.6611 66.0898 50.6611C66.9699 50.6611 67.819 50.417 68.4741 49.9756C69.129 50.4168 69.9778 50.6609 70.8577 50.6611C71.7376 50.6613 72.5865 50.4175 73.2417 49.9765C73.7041 50.2886 74.2679 50.5037 74.8762 50.6002L73.3621 61.4032H56.2908L55.36 58.6075V56.0322C55.3593 55.5575 55.1078 55.1025 54.6608 54.7669C54.2138 54.4312 53.6078 54.2424 52.9757 54.2419H48.2757L47.1467 46.1854ZM36.285 15.7499C36.285 15.5125 36.4106 15.2848 36.6342 15.117C36.8577 14.9491 37.161 14.8548 37.4772 14.8548C37.7934 14.8548 38.0966 14.9491 38.3202 15.117C38.5438 15.2848 38.6694 15.5125 38.6694 15.7499V54.2419H36.285V15.7499ZM21.9787 56.0322H52.9757V57.8225H21.9787V56.0322ZM24.6978 64.9838L26.4861 59.6128H28.7971L27.0088 64.9838H24.6978ZM21.7173 59.6128H24.0284L22.2401 64.9838H19.929L21.7173 59.6128ZM31.2548 59.6128H33.7423L32.8482 64.9838H29.4665L31.2548 59.6128ZM35.2511 64.9838L36.1452 59.6128H38.8092L39.7033 64.9838H35.2511ZM42.1062 64.9838L41.212 59.6128H43.6995L45.4878 64.9838H42.1062ZM47.9455 64.9838L46.1572 59.6128H48.4683L50.2566 64.9838H47.9455ZM52.7143 64.9838L50.926 59.6128H53.237L55.0253 64.9838H52.7143ZM73.2429 64.9838H57.483L56.8869 63.1935H73.2429V64.9838ZM76.8195 45.2903V47.9252C76.825 48.161 76.7112 48.3897 76.501 48.565C76.2908 48.7403 75.9999 48.8492 75.6869 48.8698C75.5255 48.8759 75.3642 48.8572 75.2127 48.815C75.0612 48.7728 74.9227 48.708 74.8056 48.6244C74.6885 48.5407 74.5953 48.4401 74.5316 48.3286C74.4679 48.2171 74.4351 48.0971 74.4351 47.9757V44.3951H72.0507V47.9757C72.0507 48.2132 71.9251 48.4408 71.7015 48.6087C71.4779 48.7766 71.1747 48.8709 70.8585 48.8709C70.5423 48.8709 70.2391 48.7766 70.0155 48.6087C69.7919 48.4408 69.6663 48.2132 69.6663 47.9757V44.3951H67.2819V47.9757C67.2819 48.2132 67.1563 48.4408 66.9328 48.6087C66.7092 48.7766 66.4059 48.8709 66.0898 48.8709C65.7736 48.8709 65.4703 48.7766 65.2467 48.6087C65.0232 48.4408 64.8976 48.2132 64.8976 47.9757V44.3951H62.5132V47.9757C62.5135 48.2108 62.3906 48.4365 62.171 48.604C61.9514 48.7716 61.6528 48.8674 61.3398 48.8709H61.3234C61.0198 48.8686 60.7298 48.7761 60.5169 48.6136C60.3952 48.5238 60.2984 48.417 60.2319 48.2991C60.1654 48.1812 60.1306 48.0546 60.1294 47.9266V41.4858C60.13 41.0705 60.35 40.6723 60.7411 40.3786C61.1323 40.0849 61.6626 39.9197 62.2157 39.9193H74.7337C75.2869 39.9197 75.8172 40.0849 76.2083 40.3786C76.5995 40.6723 76.8195 41.0705 76.8201 41.4858L76.8195 45.2903Z" fill="black"/>
    <path d="M68.4736 55.1367H70.858V59.6125H68.4736V55.1367Z" fill="black"/>
    <path d="M68.4736 51.5566H70.858V53.347H68.4736V51.5566Z" fill="black"/>
</svg>
