<svg width="1282" height="287" viewBox="0 0 1282 287" fill="none" xmlns="http://www.w3.org/2000/svg">
<mask id="path-1-outside-1_2627_33080" maskUnits="userSpaceOnUse" x="0" y="0" width="1282" height="287" fill="black">
<rect fill="white" width="1282" height="287"/>
<path d="M638.53 220.492C603.116 220.492 593.702 167.561 593.702 139.405C593.702 111.25 603.116 58.3183 638.53 58.3183C673.944 58.3183 683.358 111.25 683.358 139.405C683.358 167.561 673.944 220.492 638.53 220.492Z"/>
</mask>
<path d="M358.246 197.917L359.065 197.344L359.065 197.344L358.246 197.917ZM354.884 173.366L355.827 173.698L355.827 173.697L354.884 173.366ZM408.677 20.2016L409.62 20.5329L409.628 20.5116L409.634 20.4899L408.677 20.2016ZM413.817 10.6556L414.584 11.2965L414.584 11.2965L413.817 10.6556ZM443.396 2.54926L443.731 1.60709L443.731 1.60709L443.396 2.54926ZM458.958 16.959L458.045 17.3669L458.045 17.3669L458.958 16.959ZM459.332 38.2209L458.406 37.8454L458.397 37.8677L458.389 37.8904L459.332 38.2209ZM418.315 155.347L417.371 155.016L416.905 156.347H418.315V155.347ZM460.901 155.347V156.347H461.901V155.347H460.901ZM514.695 277.064H513.695V278.479L515.029 278.006L514.695 277.064ZM460.901 277.064L460.506 277.982L461.901 278.583V277.064H460.901ZM460.901 209.405H461.901V208.405H460.901V209.405ZM380.211 209.405L380.21 210.405H380.211V209.405ZM284.67 254.453L284.801 255.445L284.84 255.439L284.879 255.431L284.67 254.453ZM126.91 277.064L126.582 278.008L126.582 278.008L126.91 277.064ZM756.877 197.917L757.696 197.344L757.696 197.344L756.877 197.917ZM753.515 173.366L754.458 173.698L754.458 173.697L753.515 173.366ZM807.308 20.2016L808.252 20.5329L808.259 20.5116L808.266 20.4899L807.308 20.2016ZM812.448 10.6556L813.216 11.2965L813.216 11.2965L812.448 10.6556ZM842.028 2.54926L842.363 1.60709L842.363 1.60709L842.028 2.54926ZM857.59 16.959L856.677 17.3669L856.677 17.3669L857.59 16.959ZM857.964 38.2209L857.037 37.8454L857.028 37.8677L857.02 37.8904L857.964 38.2209ZM816.946 155.347L816.003 155.016L815.537 156.347H816.946V155.347ZM859.533 155.347V156.347H860.533V155.347H859.533ZM913.326 277.064H912.326V278.514L913.682 277.998L913.326 277.064ZM859.533 277.064L859.295 278.035L860.533 278.337V277.064H859.533ZM859.533 209.405H860.533V208.405H859.533V209.405ZM778.843 209.405L778.841 210.405H778.843V209.405ZM914.841 276.487L915.196 277.422L915.196 277.422L914.841 276.487ZM1015.74 254.453L1015.78 255.453L1015.79 255.452L1015.74 254.453ZM560.978 51.5611L561.839 52.0688L561.844 52.0615L560.978 51.5611ZM560.978 227.25L561.844 226.749L561.839 226.742L560.978 227.25ZM716.082 227.25L715.22 226.742L715.216 226.749L716.082 227.25ZM716.082 51.5611L715.216 52.0615L715.221 52.0688L716.082 51.5611ZM597.703 266.561L597.133 267.383L597.703 266.561ZM677.33 266.561L676.781 265.725L676.748 265.747L676.718 265.77L677.33 266.561ZM655.432 277.064L655.267 276.077L655.432 278.064V277.064ZM359.065 197.344C356.688 193.948 355.154 190.03 354.59 185.916L352.609 186.187C353.215 190.616 354.867 194.834 357.426 198.491L359.065 197.344ZM354.59 185.916C354.027 181.802 354.451 177.613 355.827 173.698L353.94 173.034C352.459 177.249 352.002 181.759 352.609 186.187L354.59 185.916ZM355.827 173.697L409.62 20.5329L407.733 19.8702L353.94 173.035L355.827 173.697ZM409.634 20.4899C410.649 17.1203 412.333 13.9929 414.584 11.2965L413.049 10.0147C410.625 12.9184 408.812 16.2859 407.719 19.9133L409.634 20.4899ZM414.584 11.2965C416.835 8.60023 419.607 6.39111 422.732 4.8025L421.825 3.0197C418.459 4.73125 415.473 7.11097 413.049 10.0147L414.584 11.2965ZM422.732 4.8025C425.856 3.2139 429.269 2.27874 432.763 2.05341L432.634 0.0575577C428.869 0.30038 425.192 1.30814 421.825 3.0197L422.732 4.8025ZM432.763 2.05341C436.257 1.82808 439.76 2.31725 443.061 3.49142L443.731 1.60709C440.175 0.341906 436.4 -0.185265 432.634 0.0575577L432.763 2.05341ZM443.061 3.49142C446.362 4.66559 449.392 6.50045 451.967 8.88529L453.326 7.41778C450.552 4.8491 447.288 2.87227 443.731 1.60709L443.061 3.49142ZM451.967 8.88529C454.543 11.2701 456.611 14.1555 458.045 17.3669L459.871 16.5511C458.327 13.0936 456.1 9.98646 453.326 7.41778L451.967 8.88529ZM458.045 17.3669C459.48 20.5783 460.252 24.049 460.314 27.569L462.313 27.5339C462.247 23.7448 461.416 20.0086 459.871 16.5511L458.045 17.3669ZM460.314 27.569C460.376 31.089 459.726 34.585 458.406 37.8454L460.259 38.5964C461.681 35.0862 462.38 31.3229 462.313 27.5339L460.314 27.569ZM458.389 37.8904L417.371 155.016L419.259 155.677L460.276 38.5514L458.389 37.8904ZM418.315 156.347H460.901V154.347H418.315V156.347ZM461.901 155.347V110.298H459.901V155.347H461.901ZM461.901 110.298C461.901 103.393 464.631 96.7723 469.488 91.8913L468.07 90.4805C462.839 95.7374 459.901 102.866 459.901 110.298H461.901ZM469.488 91.8913C474.345 87.0104 480.931 84.2693 487.798 84.2693V82.2693C480.398 82.2693 473.302 85.2235 468.07 90.4805L469.488 91.8913ZM487.798 84.2693C494.665 84.2693 501.251 87.0104 506.108 91.8913L507.526 90.4805C502.294 85.2235 495.198 82.2693 487.798 82.2693V84.2693ZM506.108 91.8913C510.965 96.7723 513.695 103.393 513.695 110.298H515.695C515.695 102.866 512.757 95.7374 507.526 90.4805L506.108 91.8913ZM460.901 208.405H380.211V210.405H460.901V208.405ZM380.213 208.405C376.065 208.399 371.978 207.391 368.298 205.466L367.371 207.238C371.336 209.312 375.739 210.398 380.21 210.405L380.213 208.405ZM368.298 205.466C364.618 203.542 361.451 200.756 359.065 197.344L357.426 198.49C359.996 202.165 363.406 205.165 367.371 207.238L368.298 205.466ZM284.879 255.431C324.121 247.067 352.361 245.986 378.586 250.333C404.834 254.684 429.126 264.48 460.506 277.982L461.297 276.145C429.93 262.648 405.432 252.756 378.913 248.36C352.372 243.961 323.87 245.075 284.462 253.475L284.879 255.431ZM1.18375 255.436C54.4758 245.474 78.4072 261.311 126.582 278.008L127.237 276.119C79.347 259.52 54.7678 243.385 0.816248 253.47L1.18375 255.436ZM126.582 278.008C162.891 290.593 193.996 286.025 220.271 277.773C233.39 273.653 245.33 268.605 256.07 264.332C266.847 260.044 276.375 256.554 284.801 255.445L284.54 253.462C275.832 254.608 266.083 258.195 255.331 262.474C244.541 266.767 232.699 271.774 219.671 275.865C193.653 284.037 163.011 288.518 127.237 276.119L126.582 278.008ZM515.029 278.006C541.634 268.581 559.828 270.442 575.74 273.729C591.638 277.014 605.611 281.849 623.294 278.041L622.873 276.086C605.72 279.78 592.321 275.113 576.145 271.771C559.984 268.432 541.402 266.542 514.361 276.121L515.029 278.006ZM757.696 197.344C755.319 193.948 753.785 190.03 753.222 185.916L751.24 186.187C751.847 190.616 753.498 194.834 756.058 198.491L757.696 197.344ZM753.222 185.916C752.658 181.802 753.082 177.613 754.458 173.698L752.572 173.034C751.09 177.249 750.634 181.759 751.24 186.187L753.222 185.916ZM754.458 173.697L808.252 20.5329L806.365 19.8702L752.571 173.035L754.458 173.697ZM808.266 20.4899C809.28 17.1203 810.964 13.9929 813.216 11.2965L811.68 10.0147C809.256 12.9184 807.443 16.2859 806.351 19.9133L808.266 20.4899ZM813.216 11.2965C815.467 8.60023 818.239 6.39111 821.363 4.8025L820.457 3.0197C817.091 4.73125 814.105 7.11097 811.68 10.0147L813.216 11.2965ZM821.363 4.8025C824.488 3.2139 827.9 2.27874 831.394 2.05341L831.266 0.0575577C827.5 0.30038 823.823 1.30813 820.457 3.0197L821.363 4.8025ZM831.394 2.05341C834.889 1.82808 838.392 2.31725 841.693 3.49142L842.363 1.60709C838.806 0.341906 835.031 -0.185265 831.266 0.0575577L831.394 2.05341ZM841.693 3.49142C844.993 4.66559 848.023 6.50045 850.599 8.88529L851.958 7.41778C849.184 4.8491 845.92 2.87227 842.363 1.60709L841.693 3.49142ZM850.599 8.88529C853.174 11.2701 855.242 14.1555 856.677 17.3669L858.503 16.5511C856.958 13.0936 854.732 9.98646 851.958 7.41778L850.599 8.88529ZM856.677 17.3669C858.112 20.5783 858.883 24.049 858.945 27.569L860.945 27.5339C860.878 23.7448 860.048 20.0086 858.503 16.5511L856.677 17.3669ZM858.945 27.569C859.007 31.089 858.358 34.585 857.037 37.8454L858.891 38.5964C860.313 35.0862 861.011 31.3229 860.945 27.5339L858.945 27.569ZM857.02 37.8904L816.003 155.016L817.89 155.677L858.908 38.5514L857.02 37.8904ZM816.946 156.347H859.533V154.347H816.946V156.347ZM860.533 155.347V110.298H858.533V155.347H860.533ZM860.533 110.298C860.533 103.393 863.262 96.7723 868.12 91.8913L866.702 90.4805C861.471 95.7374 858.533 102.866 858.533 110.298H860.533ZM868.12 91.8913C872.976 87.0104 879.563 84.2693 886.43 84.2693V82.2693C879.029 82.2693 871.933 85.2235 866.702 90.4805L868.12 91.8913ZM886.43 84.2693C893.296 84.2693 899.883 87.0104 904.74 91.8913L906.157 90.4805C900.926 85.2235 893.83 82.2693 886.43 82.2693V84.2693ZM904.74 91.8913C909.597 96.7723 912.326 103.393 912.326 110.298H914.326C914.326 102.866 911.388 95.7374 906.157 90.4805L904.74 91.8913ZM859.533 208.405H778.843V210.405H859.533V208.405ZM778.844 208.405C774.696 208.399 770.61 207.391 766.93 205.466L766.003 207.238C769.968 209.312 774.371 210.398 778.841 210.405L778.844 208.405ZM766.93 205.466C763.249 203.542 760.083 200.756 757.696 197.344L756.058 198.49C758.627 202.165 762.038 205.165 766.003 207.238L766.93 205.466ZM913.682 277.998L915.196 277.422L914.485 275.553L912.971 276.129L913.682 277.998ZM915.196 277.422C949.28 264.453 968.759 257.038 1015.78 255.453L1015.71 253.454C968.373 255.05 948.657 262.55 914.485 275.553L915.196 277.422ZM1015.79 255.452C1042.73 254.181 1060.87 259.784 1079.16 266.733C1097.46 273.69 1115.99 282.034 1143.5 286.055L1143.79 284.076C1116.55 280.095 1098.26 271.853 1079.87 264.864C1061.45 257.867 1043.02 252.165 1015.7 253.454L1015.79 255.452ZM1143.5 286.055C1171.14 290.096 1205.69 280.505 1233.21 269.996C1246.99 264.732 1259.05 259.218 1267.67 255.02C1271.98 252.921 1275.43 251.15 1277.81 249.903C1279 249.28 1279.91 248.788 1280.54 248.451C1280.85 248.282 1281.08 248.153 1281.24 248.065C1281.32 248.021 1281.38 247.988 1281.42 247.965C1281.44 247.954 1281.46 247.945 1281.47 247.939C1281.48 247.936 1281.48 247.934 1281.48 247.933C1281.48 247.932 1281.48 247.931 1281.49 247.931C1281.49 247.931 1281.49 247.93 1281 247.057C1280.51 246.183 1280.51 246.183 1280.51 246.183C1280.51 246.184 1280.51 246.184 1280.51 246.185C1280.51 246.186 1280.5 246.188 1280.5 246.191C1280.49 246.196 1280.48 246.204 1280.46 246.215C1280.42 246.237 1280.36 246.269 1280.28 246.312C1280.12 246.398 1279.89 246.526 1279.58 246.692C1278.97 247.025 1278.06 247.514 1276.88 248.133C1274.52 249.371 1271.09 251.132 1266.8 253.222C1258.22 257.401 1246.21 262.889 1232.49 268.128C1205.02 278.623 1170.89 288.037 1143.79 284.076L1143.5 286.055ZM656.214 278.041C695.995 286.729 728.954 274.503 757.117 267.532L756.637 265.59C728.225 272.623 695.847 284.649 656.641 276.087L656.214 278.041ZM757.117 267.532C771.085 264.075 787.226 264.393 804.61 266.74C821.989 269.087 840.533 273.451 859.295 278.035L859.77 276.092C841.015 271.51 822.375 267.121 804.878 264.758C787.385 262.396 770.957 262.046 756.637 265.59L757.117 267.532ZM638.53 3.26027C605.862 3.26027 577.979 20.1503 560.112 51.0606L561.844 52.0615C579.39 21.7061 606.646 5.26027 638.53 5.26027V3.26027ZM560.116 51.0533C546.332 74.4427 538.909 105.937 538.909 139.405H540.909C540.909 106.202 548.278 75.0792 561.839 52.0688L560.116 51.0533ZM538.909 139.405C538.909 172.873 546.332 204.368 560.116 227.757L561.839 226.742C548.278 203.732 540.909 172.609 540.909 139.405H538.909ZM716.944 227.757C730.728 204.368 738.151 172.873 738.151 139.405H736.151C736.151 172.609 728.781 203.732 715.221 226.742L716.944 227.757ZM738.151 139.405C738.151 105.937 730.728 74.4427 716.944 51.0533L715.221 52.0688C728.781 75.0792 736.151 106.202 736.151 139.405H738.151ZM716.948 51.0606C699.08 20.1503 671.198 3.26027 638.53 3.26027V5.26027C670.414 5.26027 697.67 21.7061 715.216 52.0615L716.948 51.0606ZM560.112 227.75C570.026 244.901 582.599 257.31 597.133 267.383L598.273 265.739C583.942 255.807 571.587 243.606 561.844 226.749L560.112 227.75ZM677.879 267.397C690.897 258.843 707.334 244.381 716.948 227.75L715.216 226.749C705.81 243.021 689.641 257.275 676.781 265.725L677.879 267.397ZM655.598 278.05C661.776 277.015 671.381 272.423 677.941 267.352L676.718 265.77C670.339 270.701 661.033 275.112 655.267 276.077L655.598 278.05ZM597.133 267.383C600.052 269.406 605.495 271.941 610.837 274.021C616.161 276.093 621.591 277.795 624.486 278.059L624.668 276.068C622.088 275.832 616.899 274.234 611.562 272.157C606.244 270.086 600.987 267.62 598.273 265.739L597.133 267.383ZM655.432 278.064H669.865V276.064H655.432V278.064ZM513.695 110.298V277.064H515.695V110.298H513.695ZM461.901 277.064V209.405H459.901V277.064H461.901ZM912.326 110.298V277.064H914.326V110.298H912.326ZM860.533 277.064V209.405H858.533V277.064H860.533ZM638.53 218.492C622.068 218.492 611.367 206.254 604.69 189.757C598.036 173.318 595.702 153.322 595.702 139.405H591.702C591.702 153.644 594.075 174.191 600.982 191.257C607.865 208.265 619.578 222.492 638.53 222.492V218.492ZM595.702 139.405C595.702 125.489 598.036 105.492 604.69 89.054C611.367 72.5566 622.068 60.3183 638.53 60.3183V56.3183C619.578 56.3183 607.865 70.546 600.982 87.5533C594.075 104.62 591.702 125.167 591.702 139.405H595.702ZM638.53 60.3183C654.991 60.3183 665.693 72.5566 672.37 89.054C679.023 105.492 681.358 125.489 681.358 139.405H685.358C685.358 125.167 682.985 104.62 676.078 87.5533C669.195 70.546 657.482 56.3183 638.53 56.3183V60.3183ZM681.358 139.405C681.358 153.322 679.023 173.318 672.37 189.757C665.693 206.254 654.991 218.492 638.53 218.492V222.492C657.482 222.492 669.195 208.265 676.078 191.257C682.985 174.191 685.358 153.644 685.358 139.405H681.358Z" fill="#3174D0" fill-opacity="0.31" mask="url(#path-1-outside-1_2627_33080)"/>
</svg>
