<svg width="38" height="48" viewBox="0 0 38 48" fill="none" xmlns="http://www.w3.org/2000/svg">
    <path d="M19 42L17.6025 43.4308L19 44.7957L20.3975 43.4308L19 42ZM19 42C20.3975 43.4308 20.3977 43.4305 20.398 43.4302L20.399 43.4293L20.4018 43.4265L20.4116 43.417L20.447 43.3821C20.4776 43.3519 20.522 43.308 20.5793 43.251C20.6938 43.1371 20.8599 42.9707 21.0701 42.757C21.4905 42.3297 22.0883 41.7127 22.8043 40.9472C24.2344 39.4185 26.1464 37.2867 28.0635 34.8832C29.9747 32.4873 31.9247 29.7796 33.4063 27.1018C34.8573 24.4791 36 21.639 36 19.0417C36 9.63505 28.3941 2 19 2C9.60593 2 2 9.63505 2 19.0417C2 21.639 3.14275 24.4791 4.59373 27.1018C6.07528 29.7796 8.02532 32.4873 9.93649 34.8832C11.8536 37.2867 13.7656 39.4185 15.1957 40.9472C15.9117 41.7127 16.5095 42.3297 16.9299 42.757C17.1401 42.9707 17.3062 43.1371 17.4207 43.251C17.478 43.308 17.5224 43.3519 17.553 43.3821L17.5884 43.417L17.5982 43.4265L17.601 43.4293L17.602 43.4302C17.6023 43.4305 17.6025 43.4308 19 42Z" fill="white" stroke="#F9963B" stroke-width="4"/>
    <path d="M34 19.0417C34 27.3489 19 42 19 42C19 42 4 27.3489 4 19.0417C4 10.7344 10.7157 4 19 4C27.2843 4 34 10.7344 34 19.0417Z" fill="white"/>
</svg>

