<svg width="38" height="48" viewBox="0 0 38 48" fill="none" xmlns="http://www.w3.org/2000/svg">
    <path opacity="0.3" d="M19 42L17.6025 43.4308L19 44.7957L20.3975 43.4308L19 42ZM19 42C20.3975 43.4308 20.3977 43.4305 20.398 43.4302L20.399 43.4293L20.4018 43.4265L20.4116 43.417L20.447 43.3821C20.4776 43.3519 20.522 43.308 20.5793 43.251C20.6938 43.1371 20.8599 42.9707 21.0701 42.757C21.4905 42.3297 22.0883 41.7127 22.8043 40.9472C24.2344 39.4185 26.1464 37.2867 28.0635 34.8832C29.9747 32.4873 31.9247 29.7796 33.4063 27.1018C34.8573 24.4791 36 21.639 36 19.0417C36 9.63505 28.3941 2 19 2C9.60593 2 2 9.63505 2 19.0417C2 21.639 3.14275 24.4791 4.59373 27.1018C6.07528 29.7796 8.02532 32.4873 9.93649 34.8832C11.8536 37.2867 13.7656 39.4185 15.1957 40.9472C15.9117 41.7127 16.5095 42.3297 16.9299 42.757C17.1401 42.9707 17.3062 43.1371 17.4207 43.251C17.478 43.308 17.5224 43.3519 17.553 43.3821L17.5884 43.417L17.5982 43.4265L17.601 43.4293L17.602 43.4302C17.6023 43.4305 17.6025 43.4308 19 42Z" fill="#B136D1" stroke="#B136D1" stroke-width="4"/>
    <path d="M33.5 19.0417C33.5 20.9884 32.6138 23.37 31.2187 25.8915C29.8313 28.3992 27.9751 30.985 26.1091 33.3243C24.2447 35.6616 22.3789 37.7424 20.9786 39.2394C20.2787 39.9876 19.6957 40.5893 19.2881 41.0036C19.1792 41.1143 19.0828 41.2116 19 41.2948C18.9172 41.2116 18.8208 41.1143 18.7119 41.0036C18.3043 40.5893 17.7213 39.9876 17.0214 39.2394C15.6211 37.7424 13.7553 35.6616 11.8909 33.3243C10.0249 30.985 8.16868 28.3992 6.78125 25.8915C5.38619 23.37 4.5 20.9884 4.5 19.0417C4.5 11.0092 10.9932 4.5 19 4.5C27.0068 4.5 33.5 11.0092 33.5 19.0417Z" fill="#B136D1" stroke="white"/>
</svg>

