<svg width="28" height="19" viewBox="0 0 28 19" fill="none" xmlns="http://www.w3.org/2000/svg">
<path d="M0.921875 17.4823C0.921875 17.1245 1.04078 16.8355 1.2918 16.629C1.47676 16.4089 1.7542 16.3125 2.12412 16.3125H26.354C26.6843 16.3125 26.9617 16.4226 27.1995 16.6428C27.4373 16.863 27.543 17.152 27.543 17.4823C27.543 17.8125 27.4241 18.1015 27.1863 18.3355C26.9485 18.5694 26.6711 18.707 26.354 18.707H2.12412C1.79383 18.707 1.51639 18.5832 1.27859 18.3355C1.04078 18.1015 0.921875 17.8125 0.921875 17.4823ZM3.52454 6.074C3.52454 5.71621 3.63023 5.42722 3.8284 5.20703C4.053 4.95933 4.33044 4.84923 4.68715 4.84923C4.99102 4.84923 5.25525 4.97309 5.47984 5.20703L7.46157 7.27125C7.69937 7.51896 7.81827 7.80795 7.81827 8.13822C7.81827 8.45474 7.69937 8.74373 7.46157 8.99144C7.26339 9.23914 6.99916 9.36299 6.66888 9.36299C6.33859 9.36299 6.04794 9.23914 5.82334 8.99144L3.84162 6.92721C3.63023 6.72079 3.52454 6.44556 3.52454 6.074ZM7.39551 13.7667C7.34266 13.9868 7.40872 14.0832 7.59368 14.0832H9.56219C9.65467 14.0832 9.74715 14.0006 9.85285 13.8492C10.2492 12.9685 10.8305 12.2804 11.61 11.7575C12.3895 11.2346 13.2482 10.9868 14.1994 10.9868C15.1639 10.9868 16.0358 11.2483 16.8285 11.7575C17.6212 12.2667 18.2157 12.9685 18.6121 13.8492C18.7178 14.0006 18.8234 14.0832 18.9159 14.0832H20.8712C21.043 14.0832 21.109 13.9731 21.0694 13.7667C20.6202 12.2116 19.7615 10.9456 18.4932 9.9685C17.2249 8.99144 15.798 8.50978 14.1994 8.50978C12.614 8.50978 11.1872 8.99144 9.93211 9.9685C8.70345 10.9456 7.8447 12.2116 7.39551 13.7667ZM13.0897 4.87676V1.94556C13.0897 1.60153 13.1954 1.31254 13.4067 1.06483C13.6181 0.817123 13.8956 0.707031 14.2126 0.707031C14.5429 0.707031 14.8204 0.830885 15.045 1.06483C15.2696 1.29877 15.3753 1.60153 15.3753 1.94556V4.89052C15.3753 5.24832 15.2696 5.53731 15.045 5.77125C14.8204 6.0052 14.5429 6.11529 14.2126 6.11529C13.8956 6.11529 13.6181 5.99143 13.4067 5.75749C13.1954 5.52354 13.0897 5.22079 13.0897 4.87676ZM20.6466 8.13822C20.6466 7.80795 20.7523 7.51896 20.9769 7.27125L23.0115 5.20703C23.2229 4.95933 23.4871 4.84923 23.8306 4.84923C24.1477 4.84923 24.4119 4.95932 24.6233 5.19327C24.8347 5.42721 24.9272 5.71621 24.9272 6.074C24.9272 6.4318 24.8215 6.72079 24.6233 6.92721L22.668 8.99144C22.4434 9.22538 22.1924 9.34923 21.9282 9.37676C21.6243 9.40428 21.3468 9.29419 21.0694 9.04648C20.792 8.79877 20.6466 8.48226 20.6466 8.13822Z" fill="#E2C62F"/>
</svg>
