<svg width="31" height="24" viewBox="0 0 31 24" fill="none" xmlns="http://www.w3.org/2000/svg">
<path d="M0 18.0463C0 17.7155 0.10792 17.4377 0.33725 17.2128C0.56658 17.0011 0.83638 16.8953 1.14665 16.8953H8.45823C9.45649 16.8953 10.3064 17.2393 11.0078 17.9405C11.7093 18.6417 12.0601 19.4752 12.0601 20.4542C12.0601 21.4333 11.7093 22.28 11.0078 22.968C10.3064 23.656 9.45649 24 8.45823 24C7.45997 24 6.59661 23.656 5.89513 22.9548C5.67929 22.7431 5.58486 22.4785 5.58486 22.161C5.58486 21.8434 5.69278 21.5656 5.89513 21.3671C6.09748 21.1555 6.36728 21.0496 6.70453 21.0496C7.0148 21.0496 7.2846 21.1555 7.52742 21.3671C7.79722 21.6185 8.10749 21.7508 8.45823 21.7508C8.80897 21.7508 9.11924 21.6185 9.37555 21.3671C9.63186 21.1158 9.76676 20.8115 9.76676 20.441C9.76676 20.097 9.63186 19.7927 9.37555 19.5413C9.11924 19.29 8.80897 19.1577 8.45823 19.1577H1.14665C0.83638 19.1577 0.56658 19.0518 0.33725 18.8269C0.10792 18.602 0 18.3638 0 18.0463ZM0 14.0243C0 13.7067 0.10792 13.4289 0.33725 13.204C0.56658 12.9923 0.83638 12.8864 1.14665 12.8864H15.3786C15.7293 12.8864 16.0396 12.7541 16.2959 12.5028C16.5522 12.2514 16.6871 11.9338 16.6871 11.5899C16.6871 11.2459 16.5522 10.9283 16.2959 10.677C16.0396 10.4256 15.7293 10.2933 15.3786 10.2933C15.0009 10.2933 14.7041 10.4123 14.4613 10.6637C14.2185 10.8622 13.9352 10.968 13.5979 10.968C13.2742 10.968 13.0044 10.8622 12.7885 10.6637C12.5862 10.4653 12.4782 10.2007 12.4782 9.8699C12.4782 9.53914 12.5727 9.27453 12.7885 9.06285C13.4765 8.38809 14.3399 8.05733 15.3786 8.05733C16.3769 8.05733 17.2402 8.40132 17.9417 9.0893C18.6432 9.77729 18.9939 10.6108 18.9939 11.5766C18.9939 12.5424 18.6432 13.3892 17.9417 14.0772C17.2402 14.7652 16.3903 15.1092 15.3786 15.1092H1.14665C0.82289 15.1092 0.55309 15.0033 0.33725 14.7916C0.10792 14.5932 0 14.3286 0 14.0243ZM2.90035 10.9019C2.90035 11.0077 2.9678 11.0606 3.11619 11.0606H5.05875C5.16667 11.0606 5.2611 10.9945 5.35553 10.8622C5.65231 10.1477 6.13795 9.55237 6.77198 9.07607C7.4195 8.59978 8.13447 8.33517 8.91689 8.28225L9.63186 8.17641C9.80723 8.17641 9.90166 8.09702 9.90166 7.95149L9.99609 7.26351C10.1445 5.83462 10.7515 4.63065 11.8442 3.66483C12.9369 2.69901 14.2185 2.20948 15.7024 2.20948C17.1997 2.20948 18.4948 2.68578 19.5875 3.6516C20.6802 4.61742 21.3007 5.82139 21.4626 7.26351L21.557 8.0441C21.557 8.18964 21.638 8.26902 21.7864 8.26902H23.9717C25.1993 8.26902 26.238 8.69239 27.1149 9.53914C27.9917 10.3859 28.4234 11.3914 28.4234 12.5821C28.4234 13.7596 27.9917 14.7784 27.1149 15.6251C26.238 16.4719 25.1993 16.8953 23.9717 16.8953H14.6501C14.4883 16.8953 14.3938 16.9746 14.3938 17.1202V18.9592C14.3938 19.1047 14.4748 19.1841 14.6501 19.1841H23.9717C25.1993 19.1841 26.319 18.8931 27.3577 18.2977C28.3964 17.7155 29.2058 16.9085 29.8129 15.903C30.4199 14.8842 30.7167 13.7861 30.7167 12.5954C30.7167 11.3914 30.4199 10.2933 29.8129 9.28776C29.2058 8.28225 28.3964 7.47519 27.3577 6.89305C26.319 6.31091 25.1993 6.00662 23.9717 6.00662H23.5535C23.1353 4.24697 22.191 2.80485 20.7206 1.68027C19.2637 0.555679 17.5775 0 15.6889 0C13.7868 0 12.1005 0.582139 10.6301 1.74642C9.15971 2.91069 8.2289 4.3925 7.83769 6.20507C6.67755 6.46968 5.65231 7.01213 4.76197 7.83241C3.87163 8.6527 3.25109 9.63175 2.90035 10.7563V10.8093C2.90035 10.8357 2.90035 10.8622 2.90035 10.9019Z" fill="#BCE6FF"/>
</svg>
