<svg width="40" height="40" viewBox="0 0 40 40" fill="none" xmlns="http://www.w3.org/2000/svg">
    <path d="M6.57333 27.96C6.57333 27.6133 6.69333 27.3333 6.94667 27.1333C7.13333 26.92 7.41333 26.8267 7.78667 26.8267H32.24C32.5733 26.8267 32.8533 26.9333 33.0933 27.1467C33.3333 27.36 33.44 27.64 33.44 27.96C33.44 28.28 33.32 28.56 33.08 28.7867C32.84 29.0133 32.56 29.1467 32.24 29.1467H7.78667C7.45333 29.1467 7.17333 29.0267 6.93333 28.7867C6.69333 28.56 6.57333 28.28 6.57333 27.96ZM9.2 16.9067C9.2 16.56 9.30667 16.28 9.50667 16.0667C9.73333 15.8267 10.0133 15.72 10.3733 15.72C10.68 15.72 10.9467 15.84 11.1733 16.0667L13.1733 18.0667C13.4133 18.3067 13.5333 18.5867 13.5333 18.9067C13.5333 19.2133 13.4133 19.4933 13.1733 19.7333C12.9733 19.9733 12.7067 20.0933 12.3733 20.0933C12.04 20.0933 11.7467 19.9733 11.52 19.7333L9.52 17.7333C9.30667 17.5333 9.2 17.2667 9.2 16.9067ZM13.1067 24.36C13.0533 24.5733 13.12 24.6667 13.3067 24.6667H15.2933C15.3867 24.6667 15.48 24.5867 15.5867 24.44C15.9867 23.5867 16.5733 22.92 17.36 22.4133C18.1467 21.9067 19.0133 21.6667 19.9733 21.6667C20.9467 21.6667 21.8267 21.92 22.6267 22.4133C23.4267 22.9067 24.0267 23.5867 24.4267 24.44C24.5333 24.5867 24.64 24.6667 24.7333 24.6667H26.7067C26.88 24.6667 26.9467 24.56 26.9067 24.36C26.4533 22.8533 25.5867 21.6267 24.3067 20.68C23.0267 19.7333 21.5867 19.2667 19.9733 19.2667C18.3733 19.2667 16.9333 19.7333 15.6667 20.68C14.4267 21.6267 13.56 22.8533 13.1067 24.36ZM18.8533 15.7467V12.9067C18.8533 12.5733 18.96 12.2933 19.1733 12.0533C19.3867 11.8133 19.6667 11.7067 19.9867 11.7067C20.32 11.7067 20.6 11.8267 20.8267 12.0533C21.0533 12.28 21.16 12.5733 21.16 12.9067V15.76C21.16 16.1067 21.0533 16.3867 20.8267 16.6133C20.6 16.84 20.32 16.9467 19.9867 16.9467C19.6667 16.9467 19.3867 16.8267 19.1733 16.6C18.96 16.3733 18.8533 16.08 18.8533 15.7467ZM26.48 18.9067C26.48 18.5867 26.5867 18.3067 26.8133 18.0667L28.8667 16.0667C29.08 15.8267 29.3467 15.72 29.6933 15.72C30.0133 15.72 30.28 15.8267 30.4933 16.0533C30.7067 16.28 30.8 16.56 30.8 16.9067C30.8 17.2533 30.6933 17.5333 30.4933 17.7333L28.52 19.7333C28.2933 19.96 28.04 20.08 27.7733 20.1067C27.4667 20.1333 27.1867 20.0267 26.9067 19.7867C26.6267 19.5467 26.48 19.24 26.48 18.9067Z" fill="#2B2D42"/>
</svg>
