<svg width="11" height="11" viewBox="0 0 11 11" fill="none" xmlns="http://www.w3.org/2000/svg">
    <path fill-rule="evenodd" clip-rule="evenodd" d="M6.7964 5.50023L10.7316 1.56498C11.0901 1.20656 11.0901 0.627229 10.7316 0.268812C10.3732 -0.0896042 9.7939 -0.0896042 9.43548 0.268812L5.50023 4.20406L1.56498 0.268812C1.20656 -0.0896042 0.627229 -0.0896042 0.268812 0.268812C-0.0896042 0.627229 -0.0896042 1.20656 0.268812 1.56498L4.20406 5.50023L0.268812 9.43548C-0.0896042 9.7939 -0.0896042 10.3732 0.268812 10.7316C0.447562 10.9104 0.682229 11.0002 0.916896 11.0002C1.15156 11.0002 1.38623 10.9104 1.56498 10.7316L5.50023 6.7964L9.43548 10.7316C9.61423 10.9104 9.8489 11.0002 10.0836 11.0002C10.3182 11.0002 10.5529 10.9104 10.7316 10.7316C11.0901 10.3732 11.0901 9.7939 10.7316 9.43548L6.7964 5.50023Z" fill="#2B2D42"/>
</svg>
