<svg width="12" height="12" viewBox="0 0 12 12" fill="none" xmlns="http://www.w3.org/2000/svg">
<path fill-rule="evenodd" clip-rule="evenodd" d="M7.2964 6.00023L11.2316 2.06498C11.5901 1.70656 11.5901 1.12723 11.2316 0.768812C10.8732 0.410396 10.2939 0.410396 9.93548 0.768812L6.00023 4.70406L2.06498 0.768812C1.70656 0.410396 1.12723 0.410396 0.768812 0.768812C0.410396 1.12723 0.410396 1.70656 0.768812 2.06498L4.70406 6.00023L0.768812 9.93548C0.410396 10.2939 0.410396 10.8732 0.768812 11.2316C0.947562 11.4104 1.18223 11.5002 1.4169 11.5002C1.65156 11.5002 1.88623 11.4104 2.06498 11.2316L6.00023 7.2964L9.93548 11.2316C10.1142 11.4104 10.3489 11.5002 10.5836 11.5002C10.8182 11.5002 11.0529 11.4104 11.2316 11.2316C11.5901 10.8732 11.5901 10.2939 11.2316 9.93548L7.2964 6.00023Z" fill="white"/>
</svg>
