<svg width="20" height="20" viewBox="0 0 20 20" fill="none" xmlns="http://www.w3.org/2000/svg">
    <path fill-rule="evenodd" clip-rule="evenodd" d="M9.99975 13.3329C10.1898 13.3329 10.3789 13.2687 10.5331 13.1396L15.5331 8.97291C15.8864 8.67875 15.9348 8.15291 15.6398 7.79958C15.3456 7.44625 14.8206 7.39875 14.4664 7.69291L9.99058 11.4229L5.52225 7.82708C5.16392 7.53875 4.63892 7.59541 4.35058 7.95375C4.06225 8.31208 4.11892 8.83625 4.47725 9.12541L9.47725 13.1487C9.62975 13.2712 9.81475 13.3329 9.99975 13.3329Z" fill="#231F20"/>
    <mask id="mask0" mask-type="alpha" maskUnits="userSpaceOnUse" x="4" y="7" width="12" height="7">
        <path fill-rule="evenodd" clip-rule="evenodd" d="M9.99975 13.3329C10.1898 13.3329 10.3789 13.2687 10.5331 13.1396L15.5331 8.97291C15.8864 8.67875 15.9348 8.15291 15.6398 7.79958C15.3456 7.44625 14.8206 7.39875 14.4664 7.69291L9.99058 11.4229L5.52225 7.82708C5.16392 7.53875 4.63892 7.59541 4.35058 7.95375C4.06225 8.31208 4.11892 8.83625 4.47725 9.12541L9.47725 13.1487C9.62975 13.2712 9.81475 13.3329 9.99975 13.3329Z" fill="white"/>
    </mask>
    <g mask="url(#mask0)">
        <rect width="20" height="20" transform="matrix(-1 0 0 1 20 0)" fill="#2B2D42"/>
    </g>
</svg>
