<svg width="21" height="21" viewBox="0 0 21 21" fill="none" xmlns="http://www.w3.org/2000/svg">
    <circle cx="10.5" cy="10.5" r="10" transform="rotate(-180 10.5 10.5)" fill="white" stroke="#2C2D41"/>
    <path fill-rule="evenodd" clip-rule="evenodd" d="M10.0007 14.3329C10.1907 14.3329 10.3799 14.2687 10.5341 14.1396L15.5341 9.97291C15.8874 9.67875 15.9357 9.15291 15.6407 8.79958C15.3466 8.44625 14.8216 8.39875 14.4674 8.69291L9.99156 12.4229L5.52323 8.82708C5.16489 8.53875 4.63989 8.59541 4.35156 8.95375C4.06323 9.31208 4.11989 9.83625 4.47823 10.1254L9.47823 14.1487C9.63073 14.2712 9.81573 14.3329 10.0007 14.3329Z" fill="#231F20"/>
    <mask id="mask0" mask-type="alpha" maskUnits="userSpaceOnUse" x="4" y="8" width="12" height="7">
        <path fill-rule="evenodd" clip-rule="evenodd" d="M10.0007 14.3329C10.1907 14.3329 10.3799 14.2687 10.5341 14.1396L15.5341 9.97291C15.8874 9.67875 15.9357 9.15291 15.6407 8.79958C15.3466 8.44625 14.8216 8.39875 14.4674 8.69291L9.99156 12.4229L5.52323 8.82708C5.16489 8.53875 4.63989 8.59541 4.35156 8.95375C4.06323 9.31208 4.11989 9.83625 4.47823 10.1254L9.47823 14.1487C9.63073 14.2712 9.81573 14.3329 10.0007 14.3329Z" fill="white"/>
    </mask>
    <g mask="url(#mask0)">
        <rect width="20" height="20" transform="matrix(-1 0 0 1 20 1)" fill="#2B2D42"/>
    </g>
</svg>
