<svg width="21" height="21" viewBox="0 0 21 21" fill="none" xmlns="http://www.w3.org/2000/svg">
    <circle cx="10.5" cy="10.5" r="10" fill="white" stroke="#2C2D41"/>
    <path fill-rule="evenodd" clip-rule="evenodd" d="M10.9993 6.66709C10.8093 6.66709 10.6201 6.73125 10.4659 6.86042L5.46594 11.0271C5.11261 11.3213 5.06427 11.8471 5.35927 12.2004C5.65344 12.5538 6.17844 12.6013 6.53261 12.3071L11.0084 8.57709L15.4768 12.1729C15.8351 12.4613 16.3601 12.4046 16.6484 12.0463C16.9368 11.6879 16.8801 11.1638 16.5218 10.8746L11.5218 6.85125C11.3693 6.72875 11.1843 6.66709 10.9993 6.66709Z" fill="#231F20"/>
    <mask id="mask0" mask-type="alpha" maskUnits="userSpaceOnUse" x="5" y="6" width="12" height="7">
        <path fill-rule="evenodd" clip-rule="evenodd" d="M10.9993 6.66709C10.8093 6.66709 10.6201 6.73125 10.4659 6.86042L5.46594 11.0271C5.11261 11.3213 5.06427 11.8471 5.35927 12.2004C5.65344 12.5538 6.17844 12.6013 6.53261 12.3071L11.0084 8.57709L15.4768 12.1729C15.8351 12.4613 16.3601 12.4046 16.6484 12.0463C16.9368 11.6879 16.8801 11.1638 16.5218 10.8746L11.5218 6.85125C11.3693 6.72875 11.1843 6.66709 10.9993 6.66709Z" fill="white"/>
    </mask>
    <g mask="url(#mask0)">
        <rect width="20" height="20" transform="matrix(1 0 0 -1 1 20)" fill="#2B2D42"/>
    </g>
</svg>
