<svg width="45" height="14" viewBox="0 0 45 14" fill="none" xmlns="http://www.w3.org/2000/svg">
    <path d="M0 2C0 0.89543 0.895431 0 2 0H43C44.1046 0 45 0.895431 45 2V12C45 13.1046 44.1046 14 43 14H2C0.89543 14 0 13.1046 0 12V2Z" fill="white"/>
    <path d="M14.2285 7.2207H14.7266C15.1921 7.2207 15.5404 7.12956 15.7715 6.94727C16.0026 6.76172 16.1182 6.49316 16.1182 6.1416C16.1182 5.78678 16.0205 5.52474 15.8252 5.35547C15.6331 5.1862 15.3304 5.10156 14.917 5.10156H14.2285V7.2207ZM17.6465 6.08789C17.6465 6.85612 17.4056 7.44368 16.9238 7.85059C16.4453 8.25749 15.7633 8.46094 14.8779 8.46094H14.2285V11H12.7148V3.86133H14.9951C15.861 3.86133 16.5186 4.0485 16.9678 4.42285C17.4202 4.79395 17.6465 5.34896 17.6465 6.08789ZM18.9941 11V3.86133H20.5078V9.75H23.4033V11H18.9941ZM27.6709 11L25.9521 5.39941H25.9082C25.9701 6.53874 26.001 7.29883 26.001 7.67969V11H24.6484V3.86133H26.709L28.3984 9.32031H28.4277L30.2197 3.86133H32.2803V11H30.8691V7.62109C30.8691 7.46159 30.8708 7.27767 30.874 7.06934C30.8805 6.861 30.9033 6.30762 30.9424 5.40918H30.8984L29.0576 11H27.6709Z" fill="#275AA6"/>
</svg>
