<svg width="45" height="14" viewBox="0 0 45 14" fill="none" xmlns="http://www.w3.org/2000/svg">
    <rect opacity="0.8" width="45" height="14" rx="2" fill="white"/>
    <path d="M10.9717 3.86133V8.48047C10.9717 9.00781 10.8529 9.47005 10.6152 9.86719C10.3809 10.2643 10.0407 10.5687 9.59473 10.7803C9.14876 10.9919 8.62142 11.0977 8.0127 11.0977C7.09473 11.0977 6.38184 10.8633 5.87402 10.3945C5.36621 9.92253 5.1123 9.27799 5.1123 8.46094V3.86133H6.62109V8.23145C6.62109 8.78158 6.73177 9.18522 6.95312 9.44238C7.17448 9.69954 7.54069 9.82812 8.05176 9.82812C8.54655 9.82812 8.90462 9.69954 9.12598 9.44238C9.35059 9.18197 9.46289 8.77507 9.46289 8.22168V3.86133H10.9717ZM19.0527 11H17.1289L14.0234 5.59961H13.9795C14.0413 6.55339 14.0723 7.23372 14.0723 7.64062V11H12.7197V3.86133H14.6289L17.7295 9.20801H17.7637C17.7148 8.28027 17.6904 7.62435 17.6904 7.24023V3.86133H19.0527V11ZM20.8545 11V3.86133H22.3682V11H20.8545ZM27.1973 5.01855C26.6276 5.01855 26.1865 5.2334 25.874 5.66309C25.5615 6.08952 25.4053 6.68522 25.4053 7.4502C25.4053 9.04199 26.0026 9.83789 27.1973 9.83789C27.6986 9.83789 28.3057 9.71257 29.0186 9.46191V10.7314C28.4326 10.9756 27.7783 11.0977 27.0557 11.0977C26.0173 11.0977 25.223 10.7835 24.6729 10.1553C24.1227 9.52376 23.8477 8.61882 23.8477 7.44043C23.8477 6.69824 23.9827 6.04883 24.2529 5.49219C24.5231 4.93229 24.9105 4.50423 25.415 4.20801C25.9229 3.90853 26.5169 3.75879 27.1973 3.75879C27.8906 3.75879 28.5872 3.92643 29.2871 4.26172L28.7988 5.49219C28.5319 5.36523 28.2633 5.25456 27.9932 5.16016C27.723 5.06576 27.4577 5.01855 27.1973 5.01855ZM34.6533 11H30.542V3.86133H34.6533V5.10156H32.0557V6.66895H34.4727V7.90918H32.0557V9.75H34.6533V11ZM37.6367 11H36.1475V3.86133H40.2393V5.10156H37.6367V6.94238H40.0586V8.17773H37.6367V11Z" fill="#1CABE2"/>
</svg>
