<svg width="20" height="20" viewBox="0 0 20 20" fill="none" xmlns="http://www.w3.org/2000/svg">
    <path fill-rule="evenodd" clip-rule="evenodd" d="M9.99975 6.66709C10.1898 6.66709 10.3789 6.73125 10.5331 6.86042L15.5331 11.0271C15.8864 11.3213 15.9348 11.8471 15.6398 12.2004C15.3456 12.5538 14.8206 12.6013 14.4664 12.3071L9.99058 8.57709L5.52225 12.1729C5.16392 12.4613 4.63892 12.4046 4.35058 12.0463C4.06225 11.6879 4.11892 11.1638 4.47725 10.8746L9.47725 6.85125C9.62975 6.72875 9.81475 6.66709 9.99975 6.66709Z" fill="#231F20"/>
    <mask id="mask0" mask-type="alpha" maskUnits="userSpaceOnUse" x="4" y="6" width="12" height="7">
        <path fill-rule="evenodd" clip-rule="evenodd" d="M9.99975 6.66709C10.1898 6.66709 10.3789 6.73125 10.5331 6.86042L15.5331 11.0271C15.8864 11.3213 15.9348 11.8471 15.6398 12.2004C15.3456 12.5538 14.8206 12.6013 14.4664 12.3071L9.99058 8.57709L5.52225 12.1729C5.16392 12.4613 4.63892 12.4046 4.35058 12.0463C4.06225 11.6879 4.11892 11.1638 4.47725 10.8746L9.47725 6.85125C9.62975 6.72875 9.81475 6.66709 9.99975 6.66709Z" fill="white"/>
    </mask>
    <g mask="url(#mask0)">
        <rect x="20" y="20" width="20" height="20" transform="rotate(-180 20 20)" fill="#fff"/>
    </g>
</svg>
