<svg width="44" height="47" viewBox="0 0 44 47" fill="none" xmlns="http://www.w3.org/2000/svg">
    <path opacity="0.3" d="M19.0419 3.59104L20.4577 4.94213L19.0419 3.59104L3.17862 20.214C2.02032 21.4277 1.6908 23.222 2.30172 24.7656C2.91812 26.3293 4.41196 27.4116 6.13252 27.4116H6.57303V39.8033C6.57303 42.5833 8.74801 45 11.6237 45H32.368C35.2436 45 37.4186 42.5833 37.4186 39.8033V27.418H37.8591C39.5858 27.418 41.0692 26.3366 41.6864 24.7807C42.316 23.2245 41.983 21.4312 40.8163 20.2174C40.8149 20.216 40.8136 20.2146 40.8122 20.2132L36.2045 15.3847V5.20836C36.2045 3.52807 34.8776 2 33.0513 2H30.4766C28.6504 2 27.3234 3.52807 27.3234 5.20836V6.07204L24.9558 3.59104C23.332 1.88949 20.6657 1.88949 19.0419 3.59104Z" fill="#B136D1" stroke="#B136D1" stroke-width="4"/>
    <path d="M39.7322 21.2542L34.7045 15.9856V5.20836C34.7045 4.2896 33.9838 3.5 33.0513 3.5H30.4766C29.5441 3.5 28.8234 4.2896 28.8234 5.20836V9.81658L23.8707 4.62661C22.8378 3.5443 21.1599 3.5443 20.1271 4.62661L4.26378 21.2496C3.51664 22.0325 3.29697 23.205 3.69674 24.2143C4.09791 25.2334 5.05712 25.9116 6.13252 25.9116H8.07303V39.8033C8.07303 41.8217 9.64179 43.5 11.6237 43.5H32.368C34.3499 43.5 35.9186 41.8217 35.9186 39.8033V25.918H37.8591C38.9406 25.918 39.8926 25.24 40.294 24.223C40.7077 23.2057 40.4871 22.038 39.733 21.255C39.7328 21.2547 39.7325 21.2544 39.7322 21.2542Z" fill="#B136D1" stroke="white"/>
</svg>
