<svg width="44" height="47" viewBox="0 0 44 47" fill="none" xmlns="http://www.w3.org/2000/svg">
    <path d="M19.0419 3.59104L20.4737 4.95743L19.0419 3.59104L3.17862 20.214C2.02032 21.4277 1.6908 23.222 2.30172 24.7656C2.91812 26.3293 4.41196 27.4116 6.13252 27.4116H6.57303V39.8033C6.57303 42.5833 8.74801 45 11.6237 45H32.368C35.2436 45 37.4186 42.5833 37.4186 39.8033V27.418H37.8591C39.5858 27.418 41.0692 26.3366 41.6864 24.7807C42.316 23.2245 41.983 21.4312 40.8163 20.2174C40.8149 20.216 40.8136 20.2146 40.8122 20.2132L36.2045 15.3847V5.20836C36.2045 3.52807 34.8776 2 33.0513 2H30.4766C28.6504 2 27.3234 3.52807 27.3234 5.20836V6.07204L24.9558 3.59104C23.332 1.88949 20.6657 1.88949 19.0419 3.59104Z" fill="#9A0421" stroke="#9A0421" stroke-width="4"/>
    <path d="M39.3722 21.6012L34.2045 16.1859V5.20836C34.2045 4.54344 33.6859 4 33.0513 4H30.4766C29.8421 4 29.3234 4.54344 29.3234 5.20836V11.0648L23.5089 4.9718C22.6731 4.0959 21.3247 4.0959 20.4888 4.9718L4.6255 21.5948C4.01538 22.2341 3.83234 23.1995 4.16181 24.0307C4.49128 24.8682 5.27224 25.4116 6.13252 25.4116H8.57303V39.8033C8.57303 41.5679 9.93971 43 11.6237 43H32.368C34.0519 43 35.4186 41.5679 35.4186 39.8033V25.418H37.8591C38.7255 25.418 39.5004 24.8746 39.8298 24.0371C40.1715 23.1995 39.9885 22.2405 39.3722 21.6012Z" fill="white"/>
</svg>
