<svg width="44" height="44" viewBox="0 0 44 44" fill="none" xmlns="http://www.w3.org/2000/svg">
    <path fill-rule="evenodd" clip-rule="evenodd" d="M34.7958 15.6914C35.0598 14.6938 35.2002 13.6484 35.2002 12.5714C35.2002 5.62842 29.3661 0 22.1694 0C14.9727 0 9.13867 5.62842 9.13867 12.5714C9.13867 13.7043 9.294 14.8022 9.58524 15.8464L9.52716 15.8594C11.7314 21.2748 14.156 31.8832 14.0004 33.8946H21.5855V25.1305C21.5857 25.1305 21.5859 25.1305 21.586 25.1305V33.8946H29.9052C29.7585 32.1477 31.7022 24.0019 33.7863 18.2727C34.2002 17.4892 34.5315 16.6584 34.769 15.7908C34.7831 15.7585 34.7972 15.7265 34.8113 15.6946L34.7958 15.6914Z" fill="#F9CF3B"/>
    <path fill-rule="evenodd" clip-rule="evenodd" d="M13.877 35.8767C13.877 35.3159 14.3316 34.8613 14.8924 34.8613H29.1078C29.6685 34.8613 30.1231 35.3159 30.1231 35.8767V36.2152C30.1231 36.776 29.6685 37.2306 29.1078 37.2306H14.8924C14.3316 37.2306 13.877 36.776 13.877 36.2152V35.8767ZM13.877 39.2615C13.877 38.7008 14.3316 38.2462 14.8923 38.2462H29.1077C29.6685 38.2462 30.1231 38.7008 30.1231 39.2615V39.6C30.1231 40.1608 29.6685 40.6154 29.1077 40.6154H14.8923C14.3316 40.6154 13.877 40.1608 13.877 39.6V39.2615ZM14.8923 41.6308C14.3316 41.6308 13.877 42.0854 13.877 42.6462V42.9846C13.877 43.5454 14.3316 44 14.8923 44H29.1077C29.6685 44 30.1231 43.5454 30.1231 42.9846V42.6462C30.1231 42.0854 29.6685 41.6308 29.1077 41.6308H14.8923Z" fill="#333333"/>
    <path d="M16.584 17.8538L22.3378 8.12305V13.9615H28.0917L22.3378 23.6923V17.8538H16.584Z" fill="white"/>
</svg>
