<?xml version="1.0" standalone="no"?>
<!DOCTYPE svg PUBLIC "-//W3C//DTD SVG 20010904//EN"
 "http://www.w3.org/TR/2001/REC-SVG-20010904/DTD/svg10.dtd">
<svg version="1.0" xmlns="http://www.w3.org/2000/svg"
 width="700.000000pt" height="700.000000pt" viewBox="0 0 700.000000 700.000000"
 preserveAspectRatio="xMidYMid meet">
<metadata>
Created by potrace 1.14, written by Peter Selinger 2001-2017
</metadata>
<g transform="translate(0.000000,700.000000) scale(0.100000,-0.100000)"
fill="#000000" stroke="none">
<path d="M3529 6866 c-21 -15 -63 -89 -89 -156 -37 -95 -33 -169 11 -216 22
-23 22 -53 -1 -234 -5 -41 -12 -100 -15 -130 -4 -30 -9 -66 -11 -80 -2 -14 -6
-44 -8 -68 -3 -23 -10 -68 -15 -100 -6 -31 -13 -75 -16 -97 -3 -23 -7 -50 -9
-60 -4 -21 -18 -119 -21 -145 -1 -8 -4 -24 -8 -35 -3 -11 -9 -33 -12 -50 -9
-57 -13 -70 -35 -128 -12 -32 -34 -69 -48 -83 -23 -22 -33 -25 -71 -20 -105
14 -320 181 -471 366 -25 30 -48 57 -52 58 -5 2 -8 8 -8 12 0 5 -40 62 -88
127 -49 65 -94 129 -101 141 -12 22 -21 35 -61 81 -57 67 -123 39 -152 -64
-16 -59 -13 -210 7 -315 3 -14 7 -41 10 -60 13 -86 29 -169 43 -220 9 -30 16
-57 17 -60 6 -26 30 -97 35 -105 4 -5 10 -22 13 -36 4 -14 16 -46 27 -72 11
-26 21 -50 22 -54 5 -30 209 -403 265 -486 24 -35 25 -39 10 -54 -12 -13 -41
-17 -129 -18 -114 -3 -235 -18 -288 -37 -8 -3 -41 -15 -72 -26 l-56 -21 -29
25 c-43 37 -75 36 -213 -8 -123 -39 -204 -82 -220 -116 -6 -15 -14 -45 -16
-67 -8 -65 -11 -69 -86 -108 -101 -52 -128 -69 -157 -94 -14 -13 -28 -23 -32
-23 -22 0 -204 -153 -274 -231 -22 -24 -42 -42 -45 -41 -80 54 -116 39 -225
-93 -28 -33 -58 -69 -68 -80 -10 -11 -25 -32 -33 -47 -8 -16 -19 -28 -24 -28
-6 0 -10 -6 -10 -14 0 -8 -6 -21 -12 -28 -20 -21 -54 -92 -52 -105 1 -7 2 -17
3 -22 0 -5 13 -23 27 -40 14 -17 27 -39 28 -48 2 -10 -14 -52 -35 -93 -38 -77
-114 -291 -124 -351 -3 -19 -8 -47 -11 -62 -21 -100 -23 -339 -5 -414 l13 -51
-38 -35 c-49 -44 -53 -93 -17 -209 49 -164 150 -335 258 -440 38 -37 50 -43
87 -43 40 0 44 -3 75 -50 86 -134 199 -261 353 -398 129 -114 397 -281 539
-333 50 -19 55 -24 69 -69 12 -35 26 -55 56 -77 85 -61 308 -106 515 -103 136
1 172 9 197 43 9 12 12 12 23 -2 8 -9 19 -16 26 -16 8 0 15 -4 17 -8 10 -26
237 -121 378 -158 117 -31 198 -78 278 -162 l73 -77 19 22 c27 34 40 147 25
225 -43 219 -176 420 -360 542 -78 53 -160 82 -237 86 -5 0 -8 7 -8 15 0 8 -5
25 -11 39 -17 36 -147 88 -329 131 -8 2 -35 8 -60 15 -25 6 -54 12 -65 15 -11
2 -31 7 -45 11 -14 4 -66 7 -116 8 l-90 1 -35 39 c-19 22 -44 53 -56 70 -12
17 -26 36 -31 41 -9 11 -101 199 -125 255 -34 78 -63 156 -62 165 0 6 15 25
34 42 32 27 35 35 34 84 0 53 -5 96 -24 214 -18 109 -24 122 -68 145 -21 10
-41 25 -43 32 -3 7 2 42 11 78 l16 65 46 1 c27 0 59 8 75 18 39 25 154 147
154 163 0 7 4 13 9 13 5 0 21 25 36 57 29 57 35 107 16 126 -23 23 -9 52 52
110 34 32 74 67 88 78 37 26 56 8 63 -64 3 -31 8 -67 11 -80 3 -12 7 -38 9
-57 3 -19 5 -35 6 -35 2 0 6 -17 14 -55 3 -14 14 -53 25 -86 10 -34 16 -66 12
-72 -3 -5 -35 -24 -70 -42 -128 -64 -253 -224 -293 -372 -11 -45 -31 -63 -40
-36 -2 6 -10 8 -16 4 -15 -9 -16 -46 -1 -46 5 0 8 3 6 8 -3 4 6 8 19 8 19 2
22 -1 15 -15 -5 -9 -8 -72 -6 -141 2 -96 8 -141 25 -195 49 -154 110 -257 208
-354 193 -188 448 -240 683 -138 69 30 140 92 216 186 l20 24 49 -34 c27 -19
51 -36 54 -39 3 -3 19 -11 35 -19 17 -7 37 -17 45 -21 9 -4 40 -11 70 -16 156
-23 273 5 393 93 l50 37 26 -34 c60 -77 144 -147 216 -179 86 -39 150 -51 250
-47 196 7 360 95 502 271 56 68 129 230 148 325 12 60 14 264 3 278 -6 6 -8
12 -5 12 9 0 -14 85 -41 145 -29 67 -72 135 -114 180 -15 17 -28 33 -28 38 0
4 -5 7 -12 7 -13 0 -68 59 -68 72 0 5 -4 7 -9 4 -5 -4 -12 0 -15 6 -5 10 -7
10 -12 1 -8 -19 -33 -4 -29 18 2 10 0 19 -6 19 -9 0 5 31 28 60 11 15 13 20
13 41 0 5 5 7 11 3 8 -5 8 -1 0 14 -8 15 -7 23 4 32 18 15 20 34 3 24 -7 -5
-8 -3 -3 5 4 7 9 29 11 48 2 19 9 42 15 50 10 11 10 16 0 23 -9 5 -10 10 -2
14 8 5 8 13 1 27 -10 18 -6 24 14 20 5 -1 4 4 -3 13 -9 11 -9 16 0 22 23 14
41 -27 34 -82 -10 -92 -21 -134 -35 -134 -4 0 -7 -8 -5 -17 1 -10 -2 -26 -7
-35 -6 -13 -5 -18 4 -18 9 0 9 -3 0 -12 -7 -7 -8 -17 -1 -29 5 -10 9 -22 8
-26 -4 -22 2 -44 10 -38 5 3 12 1 16 -4 3 -5 14 -8 25 -6 14 3 17 -1 13 -13
-6 -15 -5 -15 10 -3 15 12 17 12 11 -3 -7 -19 6 -21 26 -3 8 6 11 8 7 3 -4 -5
-2 -15 4 -23 9 -10 8 -13 0 -13 -7 0 -9 -5 -5 -12 4 -7 3 -8 -4 -4 -6 4 -8 14
-5 24 6 16 6 16 -10 0 -19 -19 -23 -33 -6 -22 6 4 10 -1 8 -12 -3 -24 10 -54
23 -54 6 0 5 6 -2 15 -22 26 -2 16 25 -12 l25 -28 6 23 c6 21 7 21 20 5 9 -13
13 -14 14 -4 0 7 6 11 14 8 8 -3 17 1 20 9 3 8 17 19 31 24 15 6 23 15 20 20
-4 6 -11 7 -17 4 -6 -4 -8 -3 -5 3 6 9 -12 30 -57 63 -18 14 -19 13 -13 -4 6
-16 5 -17 -7 -6 -9 6 -15 15 -14 18 2 22 -4 31 -19 25 -10 -4 -14 -2 -10 4 4
6 2 13 -3 15 -6 2 -12 13 -13 26 0 12 -4 22 -7 22 -4 0 -6 27 -6 59 1 62 10
71 21 22 6 -26 53 -107 80 -137 5 -7 19 -24 30 -40 55 -76 118 -117 185 -118
43 -1 45 -2 56 -41 7 -22 13 -57 13 -78 1 -34 -2 -39 -34 -52 -19 -8 -39 -23
-44 -34 -20 -36 -40 -152 -55 -307 -5 -56 15 -110 44 -119 10 -3 20 -12 23
-19 11 -28 -126 -336 -196 -441 -42 -64 -123 -156 -130 -149 -4 5 -63 15 -82
15 -20 1 -101 -12 -120 -18 -22 -8 -27 -9 -70 -17 -16 -3 -45 -10 -63 -15 -18
-5 -35 -10 -37 -10 -7 -1 -13 -3 -56 -15 -14 -4 -32 -9 -40 -10 -8 -2 -21 -6
-29 -9 -8 -3 -33 -11 -55 -16 -22 -6 -64 -24 -92 -41 -45 -26 -53 -35 -53 -60
0 -17 -3 -31 -7 -31 -5 -1 -17 -3 -28 -4 -92 -11 -161 -41 -247 -106 -81 -60
-133 -115 -181 -188 -83 -124 -129 -237 -142 -341 -4 -30 -7 -57 -8 -60 -1 -4
13 -109 18 -130 0 -3 6 -14 12 -24 10 -19 12 -19 37 -2 15 9 39 34 54 56 44
62 148 124 261 156 156 44 296 102 414 171 37 22 49 25 56 15 18 -29 82 -39
225 -37 78 2 152 6 166 9 13 3 42 8 65 11 128 19 252 69 286 116 11 16 23 45
26 64 3 20 8 34 10 31 13 -12 226 94 348 174 55 35 104 67 109 69 5 2 17 11
27 20 10 9 43 36 75 61 65 52 222 205 274 268 19 23 60 80 91 125 56 82 56 82
98 80 38 -2 46 2 92 51 107 113 189 247 240 391 26 76 33 108 33 169 1 44 -2
51 -37 81 -27 23 -37 39 -33 52 20 68 27 266 12 380 -19 158 -66 312 -148 486
l-41 87 33 46 c18 25 33 56 33 70 0 39 -88 172 -201 304 -97 112 -131 133
-180 109 -15 -7 -33 -13 -39 -13 -7 -1 -52 37 -101 84 -91 89 -128 120 -174
148 -16 9 -28 20 -28 24 0 4 -4 8 -9 8 -6 0 -38 19 -73 43 -35 23 -93 58 -131
77 -70 36 -76 44 -82 110 -5 52 -18 74 -58 103 -27 20 -146 70 -197 82 -8 3
-39 11 -69 19 -47 13 -59 13 -88 1 -18 -8 -40 -21 -48 -29 -14 -13 -23 -12
-83 10 -37 13 -78 27 -92 30 -91 19 -159 26 -255 29 -60 2 -115 4 -121 4 -26
2 -22 34 11 86 19 30 35 56 35 59 0 2 27 49 59 104 50 83 153 284 156 302 0 3
10 26 22 52 41 90 102 295 122 408 38 216 41 244 42 366 1 101 -19 159 -66
190 -43 28 -82 2 -154 -106 -20 -30 -41 -62 -48 -70 -7 -8 -61 -81 -122 -161
-102 -138 -232 -279 -311 -338 -19 -14 -44 -34 -55 -44 -31 -28 -136 -84 -173
-92 -53 -11 -88 10 -118 71 -14 29 -26 55 -25 58 0 3 -6 27 -14 53 -13 44 -46
228 -60 333 -3 25 -10 70 -15 100 -5 30 -11 71 -14 90 -11 81 -26 198 -31 240
-2 25 -7 56 -9 70 -3 14 -8 61 -10 105 -5 74 -4 82 21 120 51 76 29 187 -68
343 -17 28 -31 33 -50 18z m1425 -4392 c3 -8 2 -12 -4 -9 -6 3 -10 10 -10 16
0 14 7 11 14 -7z m-194 -223 c0 -5 3 -16 6 -25 4 -12 0 -16 -15 -16 -12 0 -21
6 -21 15 0 8 5 15 11 15 5 0 7 5 4 10 -3 6 -1 10 4 10 6 0 11 -4 11 -9z
m-2410 -36 c0 -5 -9 -21 -20 -35 -11 -14 -20 -31 -20 -37 0 -7 -5 -13 -11 -13
-6 0 -9 -7 -6 -15 4 -8 2 -17 -3 -20 -11 -7 -11 -3 -12 48 0 36 10 68 26 79
15 10 46 5 46 -7z"/>
<path d="M2256 2873 c-6 -14 -5 -15 5 -6 7 7 10 15 7 18 -3 3 -9 -2 -12 -12z"/>
<path d="M2234 2853 c4 -7 4 -13 -1 -13 -4 0 -9 -11 -9 -24 -2 -22 1 -23 17
-13 14 9 16 14 6 26 -9 11 -9 13 0 8 6 -4 15 -2 19 5 4 7 4 10 -1 6 -4 -4 -15
-2 -23 5 -13 9 -14 9 -8 0z"/>
<path d="M2171 2663 c3 -20 -2 -34 -11 -28 -6 4 -8 12 -4 18 3 7 -3 1 -14 -12
-22 -28 -19 -52 11 -78 14 -12 18 -13 12 -3 -5 9 0 8 13 -4 17 -14 22 -16 22
-5 0 12 2 12 9 0 5 -8 7 -20 5 -26 -3 -7 4 -11 18 -11 13 1 24 5 26 9 6 17 1
26 -12 21 -9 -3 -19 4 -26 16 -7 13 -8 20 -2 16 6 -3 14 -1 18 5 4 8 3 9 -4 5
-6 -3 -16 3 -22 15 -7 13 -8 19 -2 15 6 -3 14 -1 18 5 4 8 3 9 -4 5 -7 -4 -12
-3 -12 3 0 6 -8 7 -17 4 -12 -5 -15 -2 -10 10 3 9 2 19 -4 22 -5 4 -9 3 -8 -2z
m-24 -48 c0 -8 -4 -12 -9 -9 -5 3 -6 10 -3 15 9 13 12 11 12 -6z"/>
<path d="M2330 2600 c-9 -6 -10 -10 -3 -10 6 0 15 5 18 10 8 12 4 12 -15 0z"/>
<path d="M4825 2589 c-4 -6 -5 -12 -2 -15 2 -3 7 2 10 11 7 17 1 20 -8 4z"/>
<path d="M2290 2575 c5 -22 -1 -27 -15 -15 -13 11 -14 10 -9 -4 7 -18 13 -20
34 -6 12 8 13 11 2 22 -8 7 -13 9 -12 3z"/>
<path d="M4844 2562 c-9 -5 -8 -10 1 -19 11 -10 13 -9 12 7 -1 11 -1 20 -2 20
0 0 -5 -4 -11 -8z"/>
<path d="M5072 2175 c3 -41 23 -67 25 -32 2 35 -6 67 -18 67 -5 0 -9 -16 -7
-35z"/>
</g>
</svg>
