<svg width="800" height="600" xmlns="http://www.w3.org/2000/svg" xmlns:xlink="http://www.w3.org/1999/xlink">
 <!-- Created with Method Draw - http://github.com/duopixel/Method-Draw/ -->
 <defs>
  <symbol id="svg_1" viewBox="0 0 508 350" height="350" width="508">
   <path fill="#528FEC" d="m181.251,119.263c0,3.545 -0.879,6.269 -2.637,8.174c-1.758,1.904 -4.277,2.856 -7.558,2.856c-3.282,0 -5.801,-0.952 -7.559,-2.856c-1.758,-1.905 -2.637,-4.639 -2.637,-8.204c0,-3.564 0.879,-6.284 2.637,-8.159c1.768,-1.885 4.297,-2.827 7.588,-2.827c3.291,0 5.806,0.947 7.544,2.842c1.748,1.894 2.622,4.619 2.622,8.174zm-15.63,0c0,2.392 0.454,4.194 1.362,5.405c0.909,1.211 2.266,1.816 4.073,1.816c3.623,0 5.434,-2.407 5.434,-7.221c0,-4.825 -1.802,-7.237 -5.405,-7.237c-1.807,0 -3.169,0.611 -4.087,1.831c-0.918,1.211 -1.377,3.013 -1.377,5.406zm31.318,10.737l-0.6,-2.095l-0.235,0c-0.478,0.762 -1.157,1.353 -2.036,1.773c-0.879,0.41 -1.88,0.615 -3.003,0.615c-1.923,0 -3.374,-0.513 -4.35,-1.538c-0.977,-1.035 -1.465,-2.52 -1.465,-4.453l0,-10.679l4.468,0l0,9.565c0,1.182 0.21,2.071 0.63,2.666c0.42,0.586 1.089,0.879 2.006,0.879c1.25,0 2.154,-0.415 2.71,-1.245c0.557,-0.84 0.835,-2.226 0.835,-4.16l0,-7.705l4.468,0l0,16.377l-3.428,0zm17.256,-16.685c0.606,0 1.109,0.044 1.509,0.132l-0.337,4.19c-0.361,-0.098 -0.801,-0.147 -1.318,-0.147c-1.426,0 -2.539,0.366 -3.34,1.099c-0.791,0.732 -1.187,1.758 -1.187,3.076l0,8.335l-4.467,0l0,-16.377l3.383,0l0.66,2.754l0.219,0c0.508,-0.918 1.192,-1.655 2.051,-2.212c0.869,-0.566 1.812,-0.85 2.827,-0.85zm21.695,16.685l-5.157,-16.802l-0.131,0c0.185,3.418 0.278,5.698 0.278,6.841l0,9.961l-4.058,0l0,-21.416l6.182,0l5.068,16.377l0.088,0l5.376,-16.377l6.182,0l0,21.416l-4.234,0l0,-10.137c0,-0.478 0.005,-1.03 0.015,-1.655c0.02,-0.625 0.088,-2.285 0.205,-4.98l-0.132,0l-5.522,16.772l-4.16,0zm18.691,-20.61c0,-1.455 0.811,-2.183 2.432,-2.183c1.621,0 2.431,0.728 2.431,2.183c0,0.693 -0.205,1.235 -0.615,1.626c-0.4,0.38 -1.006,0.571 -1.816,0.571c-1.621,0 -2.432,-0.733 -2.432,-2.197zm4.658,20.61l-4.468,0l0,-16.377l4.468,0l0,16.377zm16.128,-4.863c0,1.679 -0.586,2.959 -1.758,3.838c-1.162,0.879 -2.905,1.318 -5.229,1.318c-1.192,0 -2.207,-0.083 -3.047,-0.249c-0.84,-0.156 -1.626,-0.391 -2.358,-0.703l0,-3.692c0.83,0.391 1.762,0.718 2.797,0.982c1.045,0.264 1.963,0.395 2.754,0.395c1.621,0 2.432,-0.468 2.432,-1.406c0,-0.351 -0.107,-0.635 -0.322,-0.849c-0.215,-0.225 -0.586,-0.474 -1.114,-0.748c-0.527,-0.283 -1.23,-0.61 -2.109,-0.981c-1.26,-0.527 -2.187,-1.016 -2.783,-1.465c-0.586,-0.449 -1.016,-0.962 -1.289,-1.538c-0.264,-0.586 -0.396,-1.304 -0.396,-2.153c0,-1.455 0.562,-2.578 1.685,-3.369c1.133,-0.801 2.734,-1.202 4.805,-1.202c1.972,0 3.891,0.43 5.756,1.289l-1.347,3.223c-0.821,-0.351 -1.587,-0.639 -2.3,-0.864c-0.713,-0.225 -1.44,-0.337 -2.183,-0.337c-1.318,0 -1.977,0.356 -1.977,1.069c0,0.401 0.21,0.747 0.63,1.04c0.429,0.293 1.362,0.728 2.798,1.304c1.279,0.518 2.216,1.001 2.812,1.45c0.596,0.449 1.035,0.967 1.318,1.553c0.284,0.586 0.425,1.284 0.425,2.095zm14.912,0c0,1.679 -0.586,2.959 -1.758,3.838c-1.162,0.879 -2.905,1.318 -5.229,1.318c-1.191,0 -2.207,-0.083 -3.047,-0.249c-0.84,-0.156 -1.626,-0.391 -2.358,-0.703l0,-3.692c0.83,0.391 1.762,0.718 2.798,0.982c1.044,0.264 1.962,0.395 2.753,0.395c1.622,0 2.432,-0.468 2.432,-1.406c0,-0.351 -0.107,-0.635 -0.322,-0.849c-0.215,-0.225 -0.586,-0.474 -1.113,-0.748c-0.528,-0.283 -1.231,-0.61 -2.11,-0.981c-1.26,-0.527 -2.187,-1.016 -2.783,-1.465c-0.586,-0.449 -1.016,-0.962 -1.289,-1.538c-0.264,-0.586 -0.396,-1.304 -0.396,-2.153c0,-1.455 0.562,-2.578 1.685,-3.369c1.133,-0.801 2.734,-1.202 4.805,-1.202c1.972,0 3.891,0.43 5.757,1.289l-1.348,3.223c-0.82,-0.351 -1.587,-0.639 -2.3,-0.864c-0.713,-0.225 -1.44,-0.337 -2.183,-0.337c-1.318,0 -1.977,0.356 -1.977,1.069c0,0.401 0.21,0.747 0.63,1.04c0.429,0.293 1.362,0.728 2.798,1.304c1.279,0.518 2.216,1.001 2.812,1.45c0.596,0.449 1.035,0.967 1.318,1.553c0.284,0.586 0.425,1.284 0.425,2.095zm3.296,-15.747c0,-1.455 0.811,-2.183 2.432,-2.183c1.621,0 2.431,0.728 2.431,2.183c0,0.693 -0.205,1.235 -0.615,1.626c-0.4,0.38 -1.006,0.571 -1.816,0.571c-1.621,0 -2.432,-0.733 -2.432,-2.197zm4.658,20.61l-4.467,0l0,-16.377l4.467,0l0,16.377zm8.262,-8.218c0,1.621 0.264,2.847 0.791,3.677c0.537,0.83 1.406,1.245 2.608,1.245c1.191,0 2.045,-0.41 2.563,-1.23c0.527,-0.83 0.791,-2.061 0.791,-3.692c0,-1.621 -0.264,-2.837 -0.791,-3.647c-0.527,-0.811 -1.392,-1.216 -2.593,-1.216c-1.191,0 -2.051,0.405 -2.578,1.216c-0.527,0.801 -0.791,2.016 -0.791,3.647zm11.323,0c0,2.666 -0.703,4.751 -2.109,6.255c-1.406,1.504 -3.364,2.256 -5.874,2.256c-1.572,0 -2.959,-0.342 -4.16,-1.025c-1.201,-0.694 -2.124,-1.685 -2.769,-2.974c-0.644,-1.289 -0.967,-2.793 -0.967,-4.512c0,-2.676 0.699,-4.756 2.095,-6.24c1.397,-1.484 3.36,-2.227 5.889,-2.227c1.572,0 2.959,0.342 4.16,1.026c1.201,0.683 2.124,1.665 2.769,2.944c0.644,1.279 0.966,2.778 0.966,4.497zm18.809,8.218l-4.468,0l0,-9.565c0,-1.182 -0.21,-2.066 -0.63,-2.652c-0.42,-0.595 -1.089,-0.893 -2.007,-0.893c-1.25,0 -2.153,0.42 -2.71,1.259c-0.556,0.83 -0.834,2.212 -0.834,4.146l0,7.705l-4.468,0l0,-16.377l3.413,0l0.6,2.095l0.249,0c0.499,-0.791 1.182,-1.387 2.051,-1.787c0.879,-0.41 1.875,-0.616 2.989,-0.616c1.904,0 3.349,0.518 4.335,1.553c0.987,1.026 1.48,2.51 1.48,4.453l0,10.679z"/>
   <path fill="#2C2D41" d="m32.1836,163.842c0,2.285 -0.5794,4.082 -1.7383,5.39c-1.1523,1.309 -2.7571,1.963 -4.8144,1.963c-2.1029,0 -3.7273,-0.641 -4.8731,-1.924c-1.1393,-1.289 -1.709,-3.105 -1.709,-5.449c0,-2.324 0.5729,-4.124 1.7188,-5.4c1.1458,-1.283 2.7734,-1.924 4.8828,-1.924c2.0508,0 3.6523,0.651 4.8047,1.953c1.1523,1.302 1.7285,3.099 1.7285,5.391zm-11.377,0c0,1.933 0.4102,3.401 1.2305,4.404c0.8268,0.996 2.0247,1.494 3.5938,1.494c1.582,0 2.7767,-0.498 3.5839,-1.494c0.8073,-0.996 1.211,-2.464 1.211,-4.404c0,-1.921 -0.4037,-3.376 -1.211,-4.365c-0.8007,-0.997 -1.9889,-1.495 -3.5644,-1.495c-1.582,0 -2.7865,0.502 -3.6133,1.504c-0.8203,0.996 -1.2305,2.448 -1.2305,4.356zm15.8496,-3.545l0,6.943c0,0.873 0.1986,1.524 0.5958,1.953c0.3971,0.43 1.0188,0.645 1.8652,0.645c1.1198,0 1.9368,-0.306 2.4512,-0.918c0.5208,-0.612 0.7812,-1.611 0.7812,-2.998l0,-5.625l1.6211,0l0,10.703l-1.3379,0l-0.2344,-1.436l-0.0879,0c-0.332,0.528 -0.7942,0.931 -1.3867,1.211c-0.5859,0.28 -1.2565,0.42 -2.0117,0.42c-1.3021,0 -2.2786,-0.309 -2.9297,-0.927c-0.6445,-0.619 -0.9668,-1.608 -0.9668,-2.969l0,-7.002l1.6406,0zm15.6446,-0.195c0.4752,0 0.9017,0.039 1.2793,0.117l-0.2246,1.504c-0.4427,-0.098 -0.8334,-0.147 -1.1719,-0.147c-0.8659,0 -1.6081,0.352 -2.2266,1.055c-0.6119,0.703 -0.9179,1.579 -0.9179,2.627l0,5.742l-1.6211,0l0,-10.703l1.3379,0l0.1855,1.982l0.0781,0c0.3972,-0.696 0.8757,-1.233 1.4356,-1.611c0.5599,-0.378 1.1751,-0.566 1.8457,-0.566zm22.1191,10.898l0,-6.963c0,-0.853 -0.1823,-1.491 -0.5469,-1.914c-0.3645,-0.43 -0.9309,-0.644 -1.6992,-0.644c-1.0091,0 -1.7545,0.289 -2.2363,0.869c-0.4818,0.579 -0.7227,1.471 -0.7227,2.675l0,5.977l-1.621,0l0,-6.963c0,-0.853 -0.1823,-1.491 -0.5469,-1.914c-0.3646,-0.43 -0.9343,-0.644 -1.709,-0.644c-1.0156,0 -1.7611,0.306 -2.2363,0.917c-0.4688,0.606 -0.7032,1.602 -0.7032,2.989l0,5.615l-1.6211,0l0,-10.703l1.3184,0l0.2637,1.465l0.0781,0c0.306,-0.521 0.7357,-0.928 1.2891,-1.221c0.5599,-0.293 1.1849,-0.439 1.875,-0.439c1.6731,0 2.7669,0.605 3.2812,1.816l0.0781,0c0.319,-0.56 0.7813,-1.003 1.3868,-1.328c0.6054,-0.326 1.2955,-0.488 2.0703,-0.488c1.2109,0 2.1159,0.312 2.7148,0.937c0.6055,0.619 0.9082,1.611 0.9082,2.979l0,6.982l-1.6211,0zm6.5918,0l-1.6211,0l0,-10.703l1.6211,0l0,10.703zm-1.7578,-13.604c0,-0.371 0.0912,-0.641 0.2734,-0.81c0.1823,-0.176 0.4102,-0.264 0.6836,-0.264c0.2605,0 0.4851,0.088 0.6739,0.264c0.1888,0.176 0.2832,0.446 0.2832,0.81c0,0.365 -0.0944,0.639 -0.2832,0.821c-0.1888,0.176 -0.4134,0.263 -0.6739,0.263c-0.2734,0 -0.5013,-0.087 -0.6836,-0.263c-0.1822,-0.182 -0.2734,-0.456 -0.2734,-0.821zm12.0996,10.684c0,0.996 -0.3711,1.764 -1.1133,2.305c-0.7422,0.54 -1.7838,0.81 -3.125,0.81c-1.4192,0 -2.526,-0.224 -3.3203,-0.674l0,-1.503c0.5143,0.26 1.0645,0.465 1.6504,0.615c0.5925,0.15 1.1621,0.224 1.709,0.224c0.8464,0 1.4974,-0.133 1.9531,-0.4c0.4558,-0.273 0.6836,-0.687 0.6836,-1.24c0,-0.417 -0.1823,-0.772 -0.5469,-1.065c-0.358,-0.299 -1.0612,-0.651 -2.1093,-1.054c-0.9961,-0.371 -1.7058,-0.694 -2.1289,-0.967c-0.4167,-0.28 -0.7292,-0.596 -0.9375,-0.947c-0.2019,-0.352 -0.3028,-0.772 -0.3028,-1.26c0,-0.873 0.3548,-1.559 1.0645,-2.061c0.7096,-0.508 1.6829,-0.761 2.9199,-0.761c1.1523,0 2.2786,0.234 3.3789,0.703l-0.5762,1.318c-1.0742,-0.443 -2.0475,-0.664 -2.9199,-0.664c-0.7682,0 -1.3476,0.12 -1.7383,0.361c-0.3906,0.241 -0.5859,0.573 -0.5859,0.996c0,0.287 0.0716,0.531 0.2148,0.733c0.1498,0.202 0.3874,0.394 0.7129,0.576c0.3255,0.182 0.9505,0.446 1.875,0.791c1.2696,0.462 2.1257,0.928 2.5684,1.396c0.4492,0.469 0.6738,1.058 0.6738,1.768zm9.5505,0c0,0.996 -0.371,1.764 -1.113,2.305c-0.7422,0.54 -1.7838,0.81 -3.125,0.81c-1.4193,0 -2.526,-0.224 -3.3203,-0.674l0,-1.503c0.5143,0.26 1.0645,0.465 1.6504,0.615c0.5924,0.15 1.1621,0.224 1.709,0.224c0.8463,0 1.4974,-0.133 1.9531,-0.4c0.4557,-0.273 0.6836,-0.687 0.6836,-1.24c0,-0.417 -0.1823,-0.772 -0.5469,-1.065c-0.3581,-0.299 -1.0612,-0.651 -2.1094,-1.054c-0.996,-0.371 -1.7057,-0.694 -2.1289,-0.967c-0.4166,-0.28 -0.7291,-0.596 -0.9375,-0.947c-0.2018,-0.352 -0.3027,-0.772 -0.3027,-1.26c0,-0.873 0.3548,-1.559 1.0645,-2.061c0.7096,-0.508 1.6829,-0.761 2.9199,-0.761c1.1523,0 2.2786,0.234 3.3792,0.703l-0.576,1.318c-1.0747,-0.443 -2.048,-0.664 -2.9204,-0.664c-0.7682,0 -1.3477,0.12 -1.7383,0.361c-0.3906,0.241 -0.5859,0.573 -0.5859,0.996c0,0.287 0.0716,0.531 0.2148,0.733c0.1498,0.202 0.3874,0.394 0.7129,0.576c0.3255,0.182 0.9505,0.446 1.875,0.791c1.2695,0.462 2.1257,0.928 2.5679,1.396c0.45,0.469 0.674,1.058 0.674,1.768zm4.268,2.92l-1.621,0l0,-10.703l1.621,0l0,10.703zm-1.758,-13.604c0,-0.371 0.091,-0.641 0.274,-0.81c0.182,-0.176 0.41,-0.264 0.683,-0.264c0.261,0 0.485,0.088 0.674,0.264c0.189,0.176 0.283,0.446 0.283,0.81c0,0.365 -0.094,0.639 -0.283,0.821c-0.189,0.176 -0.413,0.263 -0.674,0.263c-0.273,0 -0.501,-0.087 -0.683,-0.263c-0.183,-0.182 -0.274,-0.456 -0.274,-0.821zm14.434,8.243c0,1.744 -0.44,3.108 -1.319,4.091c-0.879,0.977 -2.093,1.465 -3.642,1.465c-0.957,0 -1.807,-0.224 -2.549,-0.674c-0.742,-0.449 -1.315,-1.093 -1.719,-1.933c-0.404,-0.84 -0.605,-1.823 -0.605,-2.949c0,-1.745 0.436,-3.103 1.308,-4.073c0.873,-0.976 2.084,-1.464 3.633,-1.464c1.497,0 2.686,0.498 3.565,1.494c0.885,0.996 1.328,2.343 1.328,4.043zm-8.155,0c0,1.367 0.274,2.409 0.821,3.125c0.547,0.716 1.351,1.074 2.412,1.074c1.061,0 1.865,-0.355 2.412,-1.065c0.553,-0.716 0.83,-1.761 0.83,-3.134c0,-1.361 -0.277,-2.393 -0.83,-3.096c-0.547,-0.71 -1.358,-1.064 -2.432,-1.064c-1.061,0 -1.862,0.348 -2.402,1.044c-0.54,0.697 -0.811,1.735 -0.811,3.116zm18.33,5.361l0,-6.924c0,-0.872 -0.198,-1.523 -0.595,-1.953c-0.397,-0.43 -1.019,-0.644 -1.866,-0.644c-1.119,0 -1.94,0.302 -2.46,0.908c-0.521,0.605 -0.782,1.605 -0.782,2.998l0,5.615l-1.621,0l0,-10.703l1.319,0l0.263,1.465l0.078,0c0.332,-0.528 0.798,-0.935 1.397,-1.221c0.599,-0.293 1.266,-0.439 2.002,-0.439c1.289,0 2.259,0.312 2.91,0.937c0.651,0.619 0.977,1.611 0.977,2.979l0,6.982l-1.622,0zm11.778,0l-1.621,0l0,-10.703l1.621,0l0,10.703zm-1.758,-13.604c0,-0.371 0.091,-0.641 0.273,-0.81c0.183,-0.176 0.411,-0.264 0.684,-0.264c0.26,0 0.485,0.088 0.674,0.264c0.189,0.176 0.283,0.446 0.283,0.81c0,0.365 -0.094,0.639 -0.283,0.821c-0.189,0.176 -0.414,0.263 -0.674,0.263c-0.273,0 -0.501,-0.087 -0.684,-0.263c-0.182,-0.182 -0.273,-0.456 -0.273,-0.821zm12.1,10.684c0,0.996 -0.372,1.764 -1.114,2.305c-0.742,0.54 -1.784,0.81 -3.125,0.81c-1.419,0 -2.526,-0.224 -3.32,-0.674l0,-1.503c0.514,0.26 1.064,0.465 1.65,0.615c0.593,0.15 1.162,0.224 1.709,0.224c0.847,0 1.498,-0.133 1.953,-0.4c0.456,-0.273 0.684,-0.687 0.684,-1.24c0,-0.417 -0.182,-0.772 -0.547,-1.065c-0.358,-0.299 -1.061,-0.651 -2.109,-1.054c-0.996,-0.371 -1.706,-0.694 -2.129,-0.967c-0.417,-0.28 -0.729,-0.596 -0.938,-0.947c-0.201,-0.352 -0.302,-0.772 -0.302,-1.26c0,-0.873 0.355,-1.559 1.064,-2.061c0.71,-0.508 1.683,-0.761 2.92,-0.761c1.152,0 2.279,0.234 3.379,0.703l-0.576,1.318c-1.074,-0.443 -2.048,-0.664 -2.92,-0.664c-0.768,0 -1.348,0.12 -1.738,0.361c-0.391,0.241 -0.586,0.573 -0.586,0.996c0,0.287 0.071,0.531 0.214,0.733c0.15,0.202 0.388,0.394 0.713,0.576c0.326,0.182 0.951,0.446 1.875,0.791c1.27,0.462 2.126,0.928 2.569,1.396c0.449,0.469 0.674,1.058 0.674,1.768zm11.298,1.777c0.287,0 0.564,-0.019 0.83,-0.058c0.267,-0.046 0.479,-0.091 0.635,-0.137l0,1.24c-0.176,0.085 -0.436,0.153 -0.781,0.205c-0.339,0.059 -0.645,0.088 -0.918,0.088c-2.07,0 -3.105,-1.09 -3.105,-3.271l0,-6.367l-1.534,0l0,-0.782l1.534,-0.673l0.683,-2.286l0.938,0l0,2.481l3.105,0l0,1.26l-3.105,0l0,6.298c0,0.645 0.153,1.14 0.459,1.485c0.306,0.345 0.726,0.517 1.259,0.517zm12.852,-4.218c0,1.744 -0.439,3.108 -1.318,4.091c-0.879,0.977 -2.093,1.465 -3.643,1.465c-0.957,0 -1.807,-0.224 -2.549,-0.674c-0.742,-0.449 -1.315,-1.093 -1.719,-1.933c-0.403,-0.84 -0.605,-1.823 -0.605,-2.949c0,-1.745 0.436,-3.103 1.309,-4.073c0.872,-0.976 2.083,-1.464 3.632,-1.464c1.498,0 2.686,0.498 3.565,1.494c0.885,0.996 1.328,2.343 1.328,4.043zm-8.154,0c0,1.367 0.273,2.409 0.82,3.125c0.547,0.716 1.351,1.074 2.412,1.074c1.061,0 1.865,-0.355 2.412,-1.065c0.554,-0.716 0.83,-1.761 0.83,-3.134c0,-1.361 -0.276,-2.393 -0.83,-3.096c-0.547,-0.71 -1.357,-1.064 -2.431,-1.064c-1.062,0 -1.862,0.348 -2.403,1.044c-0.54,0.697 -0.81,1.735 -0.81,3.116zm22.783,5.361l-0.322,-1.523l-0.079,0c-0.533,0.67 -1.067,1.126 -1.601,1.367c-0.527,0.234 -1.188,0.351 -1.982,0.351c-1.062,0 -1.895,-0.273 -2.5,-0.82c-0.599,-0.547 -0.899,-1.325 -0.899,-2.334c0,-2.161 1.729,-3.294 5.186,-3.398l1.816,-0.059l0,-0.664c0,-0.84 -0.182,-1.458 -0.547,-1.856c-0.358,-0.403 -0.934,-0.605 -1.728,-0.605c-0.892,0 -1.901,0.273 -3.028,0.82l-0.498,-1.24c0.528,-0.286 1.104,-0.511 1.729,-0.674c0.631,-0.163 1.263,-0.244 1.894,-0.244c1.276,0 2.22,0.283 2.832,0.85c0.619,0.566 0.928,1.474 0.928,2.724l0,7.305l-1.201,0zm-3.662,-1.143c1.009,0 1.8,-0.276 2.373,-0.83c0.579,-0.553 0.869,-1.328 0.869,-2.324l0,-0.967l-1.621,0.069c-1.289,0.045 -2.22,0.247 -2.793,0.605c-0.567,0.352 -0.85,0.902 -0.85,1.651c0,0.585 0.176,1.031 0.528,1.337c0.358,0.306 0.856,0.459 1.494,0.459zm13.095,-9.755c0.476,0 0.902,0.039 1.28,0.117l-0.225,1.504c-0.443,-0.098 -0.833,-0.147 -1.172,-0.147c-0.866,0 -1.608,0.352 -2.226,1.055c-0.612,0.703 -0.918,1.579 -0.918,2.627l0,5.742l-1.621,0l0,-10.703l1.338,0l0.185,1.982l0.078,0c0.397,-0.696 0.876,-1.233 1.436,-1.611c0.56,-0.378 1.175,-0.566 1.845,-0.566zm16.924,10.898l0,-6.963c0,-0.853 -0.182,-1.491 -0.547,-1.914c-0.364,-0.43 -0.931,-0.644 -1.699,-0.644c-1.009,0 -1.754,0.289 -2.236,0.869c-0.482,0.579 -0.723,1.471 -0.723,2.675l0,5.977l-1.621,0l0,-6.963c0,-0.853 -0.182,-1.491 -0.547,-1.914c-0.364,-0.43 -0.934,-0.644 -1.709,-0.644c-1.015,0 -1.761,0.306 -2.236,0.917c-0.469,0.606 -0.703,1.602 -0.703,2.989l0,5.615l-1.621,0l0,-10.703l1.318,0l0.264,1.465l0.078,0c0.306,-0.521 0.736,-0.928 1.289,-1.221c0.56,-0.293 1.185,-0.439 1.875,-0.439c1.673,0 2.767,0.605 3.281,1.816l0.078,0c0.319,-0.56 0.782,-1.003 1.387,-1.328c0.605,-0.326 1.296,-0.488 2.07,-0.488c1.211,0 2.116,0.312 2.715,0.937c0.606,0.619 0.908,1.611 0.908,2.979l0,6.982l-1.621,0zm15.147,0.195c-0.697,0 -1.335,-0.127 -1.914,-0.381c-0.573,-0.26 -1.055,-0.657 -1.446,-1.191l-0.117,0c0.078,0.625 0.117,1.217 0.117,1.777l0,4.405l-1.621,0l0,-15.508l1.319,0l0.224,1.465l0.078,0c0.417,-0.586 0.902,-1.009 1.455,-1.27c0.554,-0.26 1.189,-0.39 1.905,-0.39c1.419,0 2.513,0.485 3.281,1.455c0.775,0.97 1.162,2.33 1.162,4.082c0,1.757 -0.394,3.125 -1.181,4.101c-0.782,0.97 -1.869,1.455 -3.262,1.455zm-0.235,-9.716c-1.093,0 -1.884,0.302 -2.373,0.908c-0.488,0.605 -0.739,1.569 -0.752,2.89l0,0.362c0,1.504 0.251,2.581 0.752,3.232c0.502,0.645 1.306,0.967 2.412,0.967c0.925,0 1.648,-0.374 2.168,-1.123c0.528,-0.749 0.791,-1.781 0.791,-3.096c0,-1.334 -0.263,-2.357 -0.791,-3.066c-0.52,-0.716 -1.256,-1.074 -2.207,-1.074zm12.041,9.716c-1.582,0 -2.832,-0.481 -3.75,-1.445c-0.911,-0.964 -1.367,-2.301 -1.367,-4.014c0,-1.725 0.423,-3.095 1.27,-4.111c0.853,-1.016 1.995,-1.523 3.427,-1.523c1.342,0 2.403,0.442 3.184,1.328c0.781,0.879 1.172,2.041 1.172,3.486l0,1.025l-7.373,0c0.032,1.257 0.348,2.211 0.947,2.862c0.606,0.651 1.455,0.976 2.549,0.976c1.152,0 2.292,-0.241 3.418,-0.722l0,1.445c-0.573,0.247 -1.117,0.423 -1.631,0.527c-0.508,0.111 -1.123,0.166 -1.846,0.166zm-0.439,-9.736c-0.859,0 -1.546,0.28 -2.061,0.84c-0.507,0.56 -0.807,1.334 -0.898,2.324l5.596,0c0,-1.022 -0.228,-1.803 -0.684,-2.344c-0.456,-0.547 -1.107,-0.82 -1.953,-0.82zm16.387,4.18c0,1.744 -0.44,3.108 -1.319,4.091c-0.879,0.977 -2.093,1.465 -3.642,1.465c-0.957,0 -1.807,-0.224 -2.549,-0.674c-0.742,-0.449 -1.315,-1.093 -1.719,-1.933c-0.403,-0.84 -0.605,-1.823 -0.605,-2.949c0,-1.745 0.436,-3.103 1.308,-4.073c0.873,-0.976 2.084,-1.464 3.633,-1.464c1.498,0 2.686,0.498 3.565,1.494c0.885,0.996 1.328,2.343 1.328,4.043zm-8.155,0c0,1.367 0.274,2.409 0.821,3.125c0.547,0.716 1.351,1.074 2.412,1.074c1.061,0 1.865,-0.355 2.412,-1.065c0.553,-0.716 0.83,-1.761 0.83,-3.134c0,-1.361 -0.277,-2.393 -0.83,-3.096c-0.547,-0.71 -1.358,-1.064 -2.432,-1.064c-1.061,0 -1.862,0.348 -2.402,1.044c-0.54,0.697 -0.811,1.735 -0.811,3.116zm15.987,5.556c-0.697,0 -1.335,-0.127 -1.914,-0.381c-0.573,-0.26 -1.055,-0.657 -1.446,-1.191l-0.117,0c0.078,0.625 0.117,1.217 0.117,1.777l0,4.405l-1.621,0l0,-15.508l1.319,0l0.224,1.465l0.078,0c0.417,-0.586 0.902,-1.009 1.455,-1.27c0.554,-0.26 1.189,-0.39 1.905,-0.39c1.419,0 2.513,0.485 3.281,1.455c0.775,0.97 1.162,2.33 1.162,4.082c0,1.757 -0.394,3.125 -1.182,4.101c-0.781,0.97 -1.868,1.455 -3.261,1.455zm-0.235,-9.716c-1.093,0 -1.884,0.302 -2.373,0.908c-0.488,0.605 -0.739,1.569 -0.752,2.89l0,0.362c0,1.504 0.251,2.581 0.752,3.232c0.502,0.645 1.306,0.967 2.412,0.967c0.925,0 1.648,-0.374 2.168,-1.123c0.528,-0.749 0.791,-1.781 0.791,-3.096c0,-1.334 -0.263,-2.357 -0.791,-3.066c-0.52,-0.716 -1.256,-1.074 -2.207,-1.074zm9.141,9.521l-1.621,0l0,-15.195l1.621,0l0,15.195zm7.959,0.195c-1.582,0 -2.832,-0.481 -3.75,-1.445c-0.912,-0.964 -1.367,-2.301 -1.367,-4.014c0,-1.725 0.423,-3.095 1.269,-4.111c0.853,-1.016 1.996,-1.523 3.428,-1.523c1.341,0 2.402,0.442 3.184,1.328c0.781,0.879 1.171,2.041 1.171,3.486l0,1.025l-7.373,0c0.033,1.257 0.349,2.211 0.948,2.862c0.605,0.651 1.455,0.976 2.549,0.976c1.152,0 2.291,-0.241 3.418,-0.722l0,1.445c-0.573,0.247 -1.117,0.423 -1.631,0.527c-0.508,0.111 -1.123,0.166 -1.846,0.166zm-0.439,-9.736c-0.86,0 -1.547,0.28 -2.061,0.84c-0.508,0.56 -0.807,1.334 -0.898,2.324l5.595,0c0,-1.022 -0.228,-1.803 -0.683,-2.344c-0.456,-0.547 -1.107,-0.82 -1.953,-0.82zm21.083,9.541l-1.962,-6.279c-0.124,-0.384 -0.355,-1.257 -0.694,-2.617l-0.078,0c-0.26,1.139 -0.488,2.018 -0.683,2.636l-2.022,6.26l-1.875,0l-2.92,-10.703l1.699,0c0.69,2.689 1.215,4.736 1.573,6.142c0.364,1.407 0.573,2.354 0.625,2.842l0.078,0c0.071,-0.371 0.185,-0.849 0.342,-1.435c0.162,-0.593 0.302,-1.061 0.419,-1.407l1.963,-6.142l1.758,0l1.914,6.142c0.365,1.12 0.612,2.061 0.742,2.823l0.079,0c0.026,-0.235 0.094,-0.596 0.205,-1.084c0.117,-0.489 0.797,-3.116 2.041,-7.881l1.679,0l-2.959,10.703l-1.924,0zm8.448,0l-1.621,0l0,-10.703l1.621,0l0,10.703zm-1.758,-13.604c0,-0.371 0.091,-0.641 0.273,-0.81c0.183,-0.176 0.411,-0.264 0.684,-0.264c0.26,0 0.485,0.088 0.674,0.264c0.189,0.176 0.283,0.446 0.283,0.81c0,0.365 -0.094,0.639 -0.283,0.821c-0.189,0.176 -0.414,0.263 -0.674,0.263c-0.273,0 -0.501,-0.087 -0.684,-0.263c-0.182,-0.182 -0.273,-0.456 -0.273,-0.821zm8.652,12.461c0.287,0 0.563,-0.019 0.83,-0.058c0.267,-0.046 0.479,-0.091 0.635,-0.137l0,1.24c-0.176,0.085 -0.436,0.153 -0.781,0.205c-0.339,0.059 -0.645,0.088 -0.918,0.088c-2.07,0 -3.106,-1.09 -3.106,-3.271l0,-6.367l-1.533,0l0,-0.782l1.533,-0.673l0.684,-2.286l0.938,0l0,2.481l3.105,0l0,1.26l-3.105,0l0,6.298c0,0.645 0.153,1.14 0.459,1.485c0.306,0.345 0.725,0.517 1.259,0.517zm10.938,1.143l0,-6.924c0,-0.872 -0.199,-1.523 -0.596,-1.953c-0.397,-0.43 -1.019,-0.644 -1.865,-0.644c-1.126,0 -1.95,0.306 -2.471,0.917c-0.514,0.612 -0.771,1.615 -0.771,3.008l0,5.596l-1.621,0l0,-15.195l1.621,0l0,4.599c0,0.554 -0.026,1.013 -0.078,1.377l0.097,0c0.319,-0.514 0.772,-0.918 1.358,-1.211c0.592,-0.299 1.266,-0.449 2.021,-0.449c1.309,0 2.289,0.313 2.94,0.938c0.657,0.618 0.986,1.604 0.986,2.959l0,6.982l-1.621,0zm13.613,-1.143c0.287,0 0.563,-0.019 0.83,-0.058c0.267,-0.046 0.479,-0.091 0.635,-0.137l0,1.24c-0.176,0.085 -0.436,0.153 -0.781,0.205c-0.339,0.059 -0.645,0.088 -0.918,0.088c-2.071,0 -3.106,-1.09 -3.106,-3.271l0,-6.367l-1.533,0l0,-0.782l1.533,-0.673l0.684,-2.286l0.937,0l0,2.481l3.106,0l0,1.26l-3.106,0l0,6.298c0,0.645 0.153,1.14 0.459,1.485c0.306,0.345 0.726,0.517 1.26,0.517zm10.938,1.143l0,-6.924c0,-0.872 -0.199,-1.523 -0.596,-1.953c-0.397,-0.43 -1.019,-0.644 -1.865,-0.644c-1.127,0 -1.95,0.306 -2.471,0.917c-0.514,0.612 -0.772,1.615 -0.772,3.008l0,5.596l-1.621,0l0,-15.195l1.621,0l0,4.599c0,0.554 -0.026,1.013 -0.078,1.377l0.098,0c0.319,-0.514 0.771,-0.918 1.357,-1.211c0.593,-0.299 1.267,-0.449 2.022,-0.449c1.308,0 2.288,0.313 2.939,0.938c0.658,0.618 0.987,1.604 0.987,2.959l0,6.982l-1.621,0zm9.482,0.195c-1.582,0 -2.832,-0.481 -3.75,-1.445c-0.911,-0.964 -1.367,-2.301 -1.367,-4.014c0,-1.725 0.423,-3.095 1.269,-4.111c0.853,-1.016 1.996,-1.523 3.428,-1.523c1.341,0 2.402,0.442 3.184,1.328c0.781,0.879 1.172,2.041 1.172,3.486l0,1.025l-7.374,0c0.033,1.257 0.349,2.211 0.948,2.862c0.605,0.651 1.455,0.976 2.549,0.976c1.152,0 2.291,-0.241 3.418,-0.722l0,1.445c-0.573,0.247 -1.117,0.423 -1.631,0.527c-0.508,0.111 -1.123,0.166 -1.846,0.166zm-0.439,-9.736c-0.86,0 -1.547,0.28 -2.061,0.84c-0.508,0.56 -0.807,1.334 -0.898,2.324l5.595,0c0,-1.022 -0.228,-1.803 -0.683,-2.344c-0.456,-0.547 -1.107,-0.82 -1.953,-0.82zm17.226,-1.357c0.475,0 0.902,0.039 1.279,0.117l-0.224,1.504c-0.443,-0.098 -0.834,-0.147 -1.172,-0.147c-0.866,0 -1.608,0.352 -2.227,1.055c-0.612,0.703 -0.918,1.579 -0.918,2.627l0,5.742l-1.621,0l0,-10.703l1.338,0l0.186,1.982l0.078,0c0.397,-0.696 0.875,-1.233 1.435,-1.611c0.56,-0.378 1.176,-0.566 1.846,-0.566zm7.803,11.093c-1.582,0 -2.832,-0.481 -3.75,-1.445c-0.912,-0.964 -1.367,-2.301 -1.367,-4.014c0,-1.725 0.423,-3.095 1.269,-4.111c0.853,-1.016 1.996,-1.523 3.428,-1.523c1.341,0 2.402,0.442 3.184,1.328c0.781,0.879 1.171,2.041 1.171,3.486l0,1.025l-7.373,0c0.033,1.257 0.349,2.211 0.948,2.862c0.605,0.651 1.455,0.976 2.548,0.976c1.153,0 2.292,-0.241 3.418,-0.722l0,1.445c-0.573,0.247 -1.116,0.423 -1.63,0.527c-0.508,0.111 -1.124,0.166 -1.846,0.166zm-0.44,-9.736c-0.859,0 -1.546,0.28 -2.06,0.84c-0.508,0.56 -0.807,1.334 -0.899,2.324l5.596,0c0,-1.022 -0.228,-1.803 -0.683,-2.344c-0.456,-0.547 -1.107,-0.82 -1.954,-0.82zm14.053,6.621c0,0.996 -0.371,1.764 -1.113,2.305c-0.742,0.54 -1.784,0.81 -3.125,0.81c-1.419,0 -2.526,-0.224 -3.32,-0.674l0,-1.503c0.514,0.26 1.064,0.465 1.65,0.615c0.592,0.15 1.162,0.224 1.709,0.224c0.846,0 1.497,-0.133 1.953,-0.4c0.456,-0.273 0.684,-0.687 0.684,-1.24c0,-0.417 -0.183,-0.772 -0.547,-1.065c-0.358,-0.299 -1.061,-0.651 -2.11,-1.054c-0.996,-0.371 -1.705,-0.694 -2.129,-0.967c-0.416,-0.28 -0.729,-0.596 -0.937,-0.947c-0.202,-0.352 -0.303,-0.772 -0.303,-1.26c0,-0.873 0.355,-1.559 1.065,-2.061c0.709,-0.508 1.683,-0.761 2.92,-0.761c1.152,0 2.278,0.234 3.378,0.703l-0.576,1.318c-1.074,-0.443 -2.047,-0.664 -2.92,-0.664c-0.768,0 -1.347,0.12 -1.738,0.361c-0.39,0.241 -0.586,0.573 -0.586,0.996c0,0.287 0.072,0.531 0.215,0.733c0.15,0.202 0.387,0.394 0.713,0.576c0.325,0.182 0.95,0.446 1.875,0.791c1.269,0.462 2.126,0.928 2.568,1.396c0.449,0.469 0.674,1.058 0.674,1.768zm11.885,-2.441c0,1.744 -0.44,3.108 -1.318,4.091c-0.879,0.977 -2.094,1.465 -3.643,1.465c-0.957,0 -1.807,-0.224 -2.549,-0.674c-0.742,-0.449 -1.315,-1.093 -1.719,-1.933c-0.403,-0.84 -0.605,-1.823 -0.605,-2.949c0,-1.745 0.436,-3.103 1.308,-4.073c0.873,-0.976 2.084,-1.464 3.633,-1.464c1.498,0 2.686,0.498 3.565,1.494c0.885,0.996 1.328,2.343 1.328,4.043zm-8.154,0c0,1.367 0.273,2.409 0.82,3.125c0.547,0.716 1.351,1.074 2.412,1.074c1.061,0 1.865,-0.355 2.412,-1.065c0.553,-0.716 0.83,-1.761 0.83,-3.134c0,-1.361 -0.277,-2.393 -0.83,-3.096c-0.547,-0.71 -1.357,-1.064 -2.432,-1.064c-1.061,0 -1.862,0.348 -2.402,1.044c-0.54,0.697 -0.81,1.735 -0.81,3.116zm12.529,-5.342l0,6.943c0,0.873 0.198,1.524 0.596,1.953c0.397,0.43 1.018,0.645 1.865,0.645c1.12,0 1.937,-0.306 2.451,-0.918c0.521,-0.612 0.781,-1.611 0.781,-2.998l0,-5.625l1.621,0l0,10.703l-1.338,0l-0.234,-1.436l-0.088,0c-0.332,0.528 -0.794,0.931 -1.387,1.211c-0.585,0.28 -1.256,0.42 -2.011,0.42c-1.302,0 -2.279,-0.309 -2.93,-0.927c-0.644,-0.619 -0.967,-1.608 -0.967,-2.969l0,-7.002l1.641,0zm15.644,-0.195c0.476,0 0.902,0.039 1.28,0.117l-0.225,1.504c-0.443,-0.098 -0.833,-0.147 -1.172,-0.147c-0.866,0 -1.608,0.352 -2.226,1.055c-0.612,0.703 -0.918,1.579 -0.918,2.627l0,5.742l-1.621,0l0,-10.703l1.337,0l0.186,1.982l0.078,0c0.397,-0.696 0.876,-1.233 1.436,-1.611c0.56,-0.378 1.175,-0.566 1.845,-0.566zm7.559,11.093c-1.549,0 -2.751,-0.475 -3.604,-1.425c-0.846,-0.958 -1.269,-2.308 -1.269,-4.053c0,-1.791 0.43,-3.174 1.289,-4.151c0.866,-0.976 2.096,-1.464 3.691,-1.464c0.515,0 1.029,0.055 1.543,0.166c0.515,0.11 0.918,0.24 1.211,0.39l-0.498,1.377c-0.358,-0.143 -0.748,-0.26 -1.172,-0.351c-0.423,-0.098 -0.797,-0.147 -1.123,-0.147c-2.174,0 -3.261,1.387 -3.261,4.16c0,1.315 0.263,2.324 0.791,3.028c0.534,0.703 1.321,1.054 2.363,1.054c0.892,0 1.807,-0.192 2.744,-0.576l0,1.436c-0.716,0.371 -1.618,0.556 -2.705,0.556zm9.775,0c-1.582,0 -2.832,-0.481 -3.75,-1.445c-0.911,-0.964 -1.367,-2.301 -1.367,-4.014c0,-1.725 0.423,-3.095 1.27,-4.111c0.853,-1.016 1.995,-1.523 3.427,-1.523c1.342,0 2.403,0.442 3.184,1.328c0.781,0.879 1.172,2.041 1.172,3.486l0,1.025l-7.373,0c0.032,1.257 0.348,2.211 0.947,2.862c0.606,0.651 1.455,0.976 2.549,0.976c1.152,0 2.292,-0.241 3.418,-0.722l0,1.445c-0.573,0.247 -1.117,0.423 -1.631,0.527c-0.508,0.111 -1.123,0.166 -1.846,0.166zm-0.439,-9.736c-0.859,0 -1.546,0.28 -2.061,0.84c-0.507,0.56 -0.807,1.334 -0.898,2.324l5.596,0c0,-1.022 -0.228,-1.803 -0.684,-2.344c-0.456,-0.547 -1.107,-0.82 -1.953,-0.82zm14.053,6.621c0,0.996 -0.371,1.764 -1.114,2.305c-0.742,0.54 -1.783,0.81 -3.125,0.81c-1.419,0 -2.526,-0.224 -3.32,-0.674l0,-1.503c0.514,0.26 1.065,0.465 1.65,0.615c0.593,0.15 1.163,0.224 1.709,0.224c0.847,0 1.498,-0.133 1.954,-0.4c0.455,-0.273 0.683,-0.687 0.683,-1.24c0,-0.417 -0.182,-0.772 -0.547,-1.065c-0.358,-0.299 -1.061,-0.651 -2.109,-1.054c-0.996,-0.371 -1.706,-0.694 -2.129,-0.967c-0.417,-0.28 -0.729,-0.596 -0.937,-0.947c-0.202,-0.352 -0.303,-0.772 -0.303,-1.26c0,-0.873 0.355,-1.559 1.064,-2.061c0.71,-0.508 1.683,-0.761 2.92,-0.761c1.153,0 2.279,0.234 3.379,0.703l-0.576,1.318c-1.074,-0.443 -2.048,-0.664 -2.92,-0.664c-0.768,0 -1.348,0.12 -1.738,0.361c-0.391,0.241 -0.586,0.573 -0.586,0.996c0,0.287 0.071,0.531 0.215,0.733c0.149,0.202 0.387,0.394 0.712,0.576c0.326,0.182 0.951,0.446 1.875,0.791c1.27,0.462 2.126,0.928 2.569,1.396c0.449,0.469 0.674,1.058 0.674,1.768zm11.299,1.777c0.286,0 0.563,-0.019 0.83,-0.058c0.267,-0.046 0.478,-0.091 0.634,-0.137l0,1.24c-0.175,0.085 -0.436,0.153 -0.781,0.205c-0.338,0.059 -0.644,0.088 -0.918,0.088c-2.07,0 -3.105,-1.09 -3.105,-3.271l0,-6.367l-1.534,0l0,-0.782l1.534,-0.673l0.683,-2.286l0.938,0l0,2.481l3.105,0l0,1.26l-3.105,0l0,6.298c0,0.645 0.153,1.14 0.459,1.485c0.306,0.345 0.726,0.517 1.26,0.517zm12.851,-4.218c0,1.744 -0.439,3.108 -1.318,4.091c-0.879,0.977 -2.093,1.465 -3.643,1.465c-0.957,0 -1.807,-0.224 -2.549,-0.674c-0.742,-0.449 -1.315,-1.093 -1.718,-1.933c-0.404,-0.84 -0.606,-1.823 -0.606,-2.949c0,-1.745 0.436,-3.103 1.309,-4.073c0.872,-0.976 2.083,-1.464 3.632,-1.464c1.498,0 2.686,0.498 3.565,1.494c0.885,0.996 1.328,2.343 1.328,4.043zm-8.154,0c0,1.367 0.273,2.409 0.82,3.125c0.547,0.716 1.351,1.074 2.412,1.074c1.061,0 1.865,-0.355 2.412,-1.065c0.554,-0.716 0.83,-1.761 0.83,-3.134c0,-1.361 -0.276,-2.393 -0.83,-3.096c-0.547,-0.71 -1.357,-1.064 -2.431,-1.064c-1.062,0 -1.862,0.348 -2.403,1.044c-0.54,0.697 -0.81,1.735 -0.81,3.116zm-354.776,35.556c-1.582,0 -2.832,-0.481 -3.75,-1.445c-0.911,-0.964 -1.367,-2.301 -1.367,-4.014c0,-1.725 0.423,-3.095 1.27,-4.111c0.853,-1.016 1.995,-1.523 3.427,-1.523c1.342,0 2.403,0.442 3.184,1.328c0.781,0.879 1.172,2.041 1.172,3.486l0,1.025l-7.373,0c0.032,1.257 0.348,2.211 0.947,2.862c0.606,0.651 1.455,0.976 2.549,0.976c1.152,0 2.292,-0.241 3.418,-0.722l0,1.445c-0.573,0.247 -1.117,0.423 -1.631,0.527c-0.508,0.111 -1.123,0.166 -1.846,0.166zm-0.439,-9.736c-0.859,0 -1.546,0.28 -2.061,0.84c-0.507,0.56 -0.807,1.334 -0.898,2.324l5.596,0c0,-1.022 -0.228,-1.803 -0.684,-2.344c-0.456,-0.547 -1.107,-0.82 -1.953,-0.82zm14.473,9.541l0,-6.924c0,-0.872 -0.199,-1.523 -0.596,-1.953c-0.397,-0.43 -1.019,-0.644 -1.865,-0.644c-1.12,0 -1.94,0.302 -2.461,0.908c-0.521,0.605 -0.782,1.605 -0.782,2.998l0,5.615l-1.621,0l0,-10.703l1.319,0l0.263,1.465l0.079,0c0.332,-0.528 0.797,-0.935 1.396,-1.221c0.599,-0.293 1.266,-0.439 2.002,-0.439c1.289,0 2.259,0.312 2.91,0.937c0.651,0.619 0.977,1.611 0.977,2.979l0,6.982l-1.621,0zm12.246,-1.436l-0.088,0c-0.749,1.088 -1.869,1.631 -3.36,1.631c-1.399,0 -2.49,-0.478 -3.271,-1.435c-0.775,-0.957 -1.162,-2.318 -1.162,-4.082c0,-1.765 0.39,-3.135 1.172,-4.112c0.781,-0.976 1.868,-1.464 3.261,-1.464c1.452,0 2.566,0.527 3.34,1.582l0.127,0l-0.068,-0.772l-0.039,-0.752l0,-4.355l1.621,0l0,15.195l-1.318,0l-0.215,-1.436zm-3.243,0.274c1.107,0 1.908,-0.3 2.403,-0.899c0.501,-0.605 0.752,-1.578 0.752,-2.919l0,-0.342c0,-1.517 -0.254,-2.598 -0.762,-3.242c-0.501,-0.651 -1.305,-0.977 -2.412,-0.977c-0.951,0 -1.68,0.371 -2.188,1.113c-0.501,0.736 -0.751,1.778 -0.751,3.125c0,1.367 0.25,2.399 0.751,3.096c0.502,0.697 1.237,1.045 2.207,1.045zm20,1.162l-0.322,-1.523l-0.078,0c-0.534,0.67 -1.068,1.126 -1.601,1.367c-0.528,0.234 -1.189,0.351 -1.983,0.351c-1.061,0 -1.894,-0.273 -2.5,-0.82c-0.599,-0.547 -0.898,-1.325 -0.898,-2.334c0,-2.161 1.728,-3.294 5.185,-3.398l1.817,-0.059l0,-0.664c0,-0.84 -0.183,-1.458 -0.547,-1.856c-0.358,-0.403 -0.934,-0.605 -1.729,-0.605c-0.892,0 -1.901,0.273 -3.027,0.82l-0.498,-1.24c0.527,-0.286 1.103,-0.511 1.728,-0.674c0.632,-0.163 1.263,-0.244 1.895,-0.244c1.276,0 2.22,0.283 2.832,0.85c0.618,0.566 0.928,1.474 0.928,2.724l0,7.305l-1.202,0zm-3.662,-1.143c1.009,0 1.801,-0.276 2.373,-0.83c0.58,-0.553 0.87,-1.328 0.87,-2.324l0,-0.967l-1.622,0.069c-1.289,0.045 -2.22,0.247 -2.793,0.605c-0.566,0.352 -0.849,0.902 -0.849,1.651c0,0.585 0.176,1.031 0.527,1.337c0.358,0.306 0.856,0.459 1.494,0.459zm9.834,1.143l-1.621,0l0,-10.703l1.621,0l0,10.703zm-1.757,-13.604c0,-0.371 0.091,-0.641 0.273,-0.81c0.182,-0.176 0.41,-0.264 0.684,-0.264c0.26,0 0.485,0.088 0.673,0.264c0.189,0.176 0.284,0.446 0.284,0.81c0,0.365 -0.095,0.639 -0.284,0.821c-0.188,0.176 -0.413,0.263 -0.673,0.263c-0.274,0 -0.502,-0.087 -0.684,-0.263c-0.182,-0.182 -0.273,-0.456 -0.273,-0.821zm10.078,2.706c0.475,0 0.901,0.039 1.279,0.117l-0.225,1.504c-0.442,-0.098 -0.833,-0.147 -1.172,-0.147c-0.865,0 -1.608,0.352 -2.226,1.055c-0.612,0.703 -0.918,1.579 -0.918,2.627l0,5.742l-1.621,0l0,-10.703l1.338,0l0.185,1.982l0.078,0c0.398,-0.696 0.876,-1.233 1.436,-1.611c0.56,-0.378 1.175,-0.566 1.846,-0.566zm13.457,11.093c-0.697,0 -1.335,-0.127 -1.914,-0.381c-0.573,-0.26 -1.055,-0.657 -1.446,-1.191l-0.117,0c0.078,0.625 0.117,1.217 0.117,1.777l0,4.405l-1.621,0l0,-15.508l1.319,0l0.224,1.465l0.078,0c0.417,-0.586 0.902,-1.009 1.455,-1.27c0.554,-0.26 1.189,-0.39 1.905,-0.39c1.419,0 2.513,0.485 3.281,1.455c0.775,0.97 1.162,2.33 1.162,4.082c0,1.757 -0.394,3.125 -1.182,4.101c-0.781,0.97 -1.868,1.455 -3.261,1.455zm-0.235,-9.716c-1.093,0 -1.884,0.302 -2.373,0.908c-0.488,0.605 -0.739,1.569 -0.752,2.89l0,0.362c0,1.504 0.251,2.581 0.752,3.232c0.502,0.645 1.306,0.967 2.412,0.967c0.925,0 1.648,-0.374 2.168,-1.123c0.528,-0.749 0.791,-1.781 0.791,-3.096c0,-1.334 -0.263,-2.357 -0.791,-3.066c-0.52,-0.716 -1.256,-1.074 -2.207,-1.074zm16.758,4.16c0,1.744 -0.439,3.108 -1.318,4.091c-0.879,0.977 -2.093,1.465 -3.643,1.465c-0.957,0 -1.806,-0.224 -2.549,-0.674c-0.742,-0.449 -1.315,-1.093 -1.718,-1.933c-0.404,-0.84 -0.606,-1.823 -0.606,-2.949c0,-1.745 0.436,-3.103 1.309,-4.073c0.872,-0.976 2.083,-1.464 3.633,-1.464c1.497,0 2.685,0.498 3.564,1.494c0.885,0.996 1.328,2.343 1.328,4.043zm-8.154,0c0,1.367 0.273,2.409 0.82,3.125c0.547,0.716 1.351,1.074 2.412,1.074c1.061,0 1.865,-0.355 2.412,-1.065c0.554,-0.716 0.83,-1.761 0.83,-3.134c0,-1.361 -0.276,-2.393 -0.83,-3.096c-0.547,-0.71 -1.357,-1.064 -2.431,-1.064c-1.061,0 -1.862,0.348 -2.403,1.044c-0.54,0.697 -0.81,1.735 -0.81,3.116zm12.627,5.361l-1.621,0l0,-15.195l1.621,0l0,15.195zm5.058,0l-1.621,0l0,-15.195l1.621,0l0,15.195zm4.961,-10.703l0,6.943c0,0.873 0.199,1.524 0.596,1.953c0.397,0.43 1.019,0.645 1.865,0.645c1.12,0 1.937,-0.306 2.451,-0.918c0.521,-0.612 0.782,-1.611 0.782,-2.998l0,-5.625l1.621,0l0,10.703l-1.338,0l-0.234,-1.436l-0.088,0c-0.332,0.528 -0.795,0.931 -1.387,1.211c-0.586,0.28 -1.257,0.42 -2.012,0.42c-1.302,0 -2.278,-0.309 -2.929,-0.927c-0.645,-0.619 -0.967,-1.608 -0.967,-2.969l0,-7.002l1.64,0zm14.219,9.56c0.287,0 0.563,-0.019 0.83,-0.058c0.267,-0.046 0.479,-0.091 0.635,-0.137l0,1.24c-0.176,0.085 -0.436,0.153 -0.781,0.205c-0.339,0.059 -0.645,0.088 -0.918,0.088c-2.071,0 -3.106,-1.09 -3.106,-3.271l0,-6.367l-1.533,0l0,-0.782l1.533,-0.673l0.684,-2.286l0.937,0l0,2.481l3.106,0l0,1.26l-3.106,0l0,6.298c0,0.645 0.153,1.14 0.459,1.485c0.306,0.345 0.726,0.517 1.26,0.517zm5.234,1.143l-1.621,0l0,-10.703l1.621,0l0,10.703zm-1.757,-13.604c0,-0.371 0.091,-0.641 0.273,-0.81c0.182,-0.176 0.41,-0.264 0.684,-0.264c0.26,0 0.485,0.088 0.674,0.264c0.188,0.176 0.283,0.446 0.283,0.81c0,0.365 -0.095,0.639 -0.283,0.821c-0.189,0.176 -0.414,0.263 -0.674,0.263c-0.274,0 -0.502,-0.087 -0.684,-0.263c-0.182,-0.182 -0.273,-0.456 -0.273,-0.821zm14.433,8.243c0,1.744 -0.439,3.108 -1.318,4.091c-0.879,0.977 -2.093,1.465 -3.643,1.465c-0.957,0 -1.806,-0.224 -2.549,-0.674c-0.742,-0.449 -1.315,-1.093 -1.718,-1.933c-0.404,-0.84 -0.606,-1.823 -0.606,-2.949c0,-1.745 0.436,-3.103 1.309,-4.073c0.872,-0.976 2.083,-1.464 3.633,-1.464c1.497,0 2.685,0.498 3.564,1.494c0.886,0.996 1.328,2.343 1.328,4.043zm-8.154,0c0,1.367 0.273,2.409 0.82,3.125c0.547,0.716 1.351,1.074 2.412,1.074c1.062,0 1.866,-0.355 2.412,-1.065c0.554,-0.716 0.831,-1.761 0.831,-3.134c0,-1.361 -0.277,-2.393 -0.831,-3.096c-0.546,-0.71 -1.357,-1.064 -2.431,-1.064c-1.061,0 -1.862,0.348 -2.403,1.044c-0.54,0.697 -0.81,1.735 -0.81,3.116zm18.33,5.361l0,-6.924c0,-0.872 -0.199,-1.523 -0.596,-1.953c-0.397,-0.43 -1.019,-0.644 -1.865,-0.644c-1.12,0 -1.94,0.302 -2.461,0.908c-0.521,0.605 -0.781,1.605 -0.781,2.998l0,5.615l-1.621,0l0,-10.703l1.318,0l0.264,1.465l0.078,0c0.332,-0.528 0.797,-0.935 1.396,-1.221c0.599,-0.293 1.267,-0.439 2.002,-0.439c1.289,0 2.26,0.312 2.911,0.937c0.651,0.619 0.976,1.611 0.976,2.979l0,6.982l-1.621,0zm11.777,0l-1.621,0l0,-10.703l1.621,0l0,10.703zm-1.757,-13.604c0,-0.371 0.091,-0.641 0.273,-0.81c0.182,-0.176 0.41,-0.264 0.684,-0.264c0.26,0 0.485,0.088 0.673,0.264c0.189,0.176 0.284,0.446 0.284,0.81c0,0.365 -0.095,0.639 -0.284,0.821c-0.188,0.176 -0.413,0.263 -0.673,0.263c-0.274,0 -0.502,-0.087 -0.684,-0.263c-0.182,-0.182 -0.273,-0.456 -0.273,-0.821zm12.519,13.604l0,-6.924c0,-0.872 -0.198,-1.523 -0.596,-1.953c-0.397,-0.43 -1.019,-0.644 -1.865,-0.644c-1.12,0 -1.94,0.302 -2.461,0.908c-0.521,0.605 -0.781,1.605 -0.781,2.998l0,5.615l-1.621,0l0,-10.703l1.318,0l0.264,1.465l0.078,0c0.332,-0.528 0.798,-0.935 1.397,-1.221c0.598,-0.293 1.266,-0.439 2.001,-0.439c1.29,0 2.26,0.312 2.911,0.937c0.651,0.619 0.976,1.611 0.976,2.979l0,6.982l-1.621,0zm16.719,0l-4.844,-12.656l-0.078,0c0.091,1.002 0.137,2.194 0.137,3.574l0,9.082l-1.534,0l0,-14.277l2.5,0l4.522,11.777l0.078,0l4.561,-11.777l2.48,0l0,14.277l-1.66,0l0,-9.199c0,-1.055 0.046,-2.201 0.137,-3.438l-0.078,0l-4.883,12.637l-1.338,0zm20.742,-5.361c0,1.744 -0.439,3.108 -1.318,4.091c-0.879,0.977 -2.093,1.465 -3.643,1.465c-0.957,0 -1.807,-0.224 -2.549,-0.674c-0.742,-0.449 -1.315,-1.093 -1.718,-1.933c-0.404,-0.84 -0.606,-1.823 -0.606,-2.949c0,-1.745 0.436,-3.103 1.309,-4.073c0.872,-0.976 2.083,-1.464 3.632,-1.464c1.498,0 2.686,0.498 3.565,1.494c0.885,0.996 1.328,2.343 1.328,4.043zm-8.154,0c0,1.367 0.273,2.409 0.82,3.125c0.547,0.716 1.351,1.074 2.412,1.074c1.061,0 1.865,-0.355 2.412,-1.065c0.554,-0.716 0.83,-1.761 0.83,-3.134c0,-1.361 -0.276,-2.393 -0.83,-3.096c-0.547,-0.71 -1.357,-1.064 -2.431,-1.064c-1.062,0 -1.862,0.348 -2.403,1.044c-0.54,0.697 -0.81,1.735 -0.81,3.116zm18.33,5.361l0,-6.924c0,-0.872 -0.199,-1.523 -0.596,-1.953c-0.397,-0.43 -1.019,-0.644 -1.865,-0.644c-1.12,0 -1.94,0.302 -2.461,0.908c-0.521,0.605 -0.781,1.605 -0.781,2.998l0,5.615l-1.621,0l0,-10.703l1.318,0l0.264,1.465l0.078,0c0.332,-0.528 0.797,-0.935 1.396,-1.221c0.599,-0.293 1.266,-0.439 2.002,-0.439c1.289,0 2.259,0.312 2.91,0.937c0.651,0.619 0.977,1.611 0.977,2.979l0,6.982l-1.621,0zm13.72,-10.703l0,1.025l-1.982,0.235c0.182,0.228 0.345,0.527 0.488,0.898c0.144,0.365 0.215,0.778 0.215,1.24c0,1.048 -0.358,1.885 -1.074,2.51c-0.716,0.625 -1.699,0.938 -2.949,0.938c-0.319,0 -0.619,-0.026 -0.899,-0.079c-0.69,0.365 -1.035,0.824 -1.035,1.377c0,0.293 0.121,0.511 0.362,0.655c0.24,0.136 0.654,0.205 1.24,0.205l1.894,0c1.159,0 2.048,0.244 2.666,0.732c0.625,0.488 0.938,1.198 0.938,2.129c0,1.185 -0.475,2.087 -1.426,2.705c-0.951,0.625 -2.337,0.938 -4.16,0.938c-1.4,0 -2.481,-0.261 -3.242,-0.782c-0.756,-0.52 -1.133,-1.256 -1.133,-2.207c0,-0.651 0.208,-1.214 0.625,-1.689c0.417,-0.475 1.002,-0.798 1.758,-0.967c-0.274,-0.124 -0.505,-0.316 -0.694,-0.576c-0.182,-0.26 -0.273,-0.563 -0.273,-0.908c0,-0.391 0.104,-0.733 0.312,-1.026c0.209,-0.293 0.537,-0.576 0.987,-0.849c-0.554,-0.228 -1.006,-0.615 -1.358,-1.162c-0.345,-0.547 -0.517,-1.172 -0.517,-1.875c0,-1.172 0.351,-2.074 1.054,-2.705c0.703,-0.638 1.7,-0.957 2.989,-0.957c0.56,0 1.064,0.065 1.513,0.195l3.701,0zm-8.535,12.5c0,0.579 0.244,1.019 0.733,1.318c0.488,0.3 1.188,0.449 2.099,0.449c1.361,0 2.367,-0.205 3.018,-0.615c0.658,-0.403 0.986,-0.954 0.986,-1.65c0,-0.58 -0.179,-0.983 -0.537,-1.211c-0.358,-0.221 -1.032,-0.332 -2.021,-0.332l-1.944,0c-0.735,0 -1.308,0.176 -1.718,0.527c-0.411,0.352 -0.616,0.856 -0.616,1.514zm0.879,-9.072c0,0.748 0.212,1.315 0.635,1.699c0.423,0.384 1.012,0.576 1.768,0.576c1.582,0 2.373,-0.768 2.373,-2.305c0,-1.608 -0.801,-2.412 -2.403,-2.412c-0.761,0 -1.347,0.205 -1.758,0.615c-0.41,0.411 -0.615,1.019 -0.615,1.827zm19.092,1.914c0,1.744 -0.439,3.108 -1.318,4.091c-0.879,0.977 -2.093,1.465 -3.643,1.465c-0.957,0 -1.807,-0.224 -2.549,-0.674c-0.742,-0.449 -1.315,-1.093 -1.718,-1.933c-0.404,-0.84 -0.606,-1.823 -0.606,-2.949c0,-1.745 0.436,-3.103 1.309,-4.073c0.872,-0.976 2.083,-1.464 3.632,-1.464c1.498,0 2.686,0.498 3.565,1.494c0.885,0.996 1.328,2.343 1.328,4.043zm-8.154,0c0,1.367 0.273,2.409 0.82,3.125c0.547,0.716 1.351,1.074 2.412,1.074c1.061,0 1.865,-0.355 2.412,-1.065c0.554,-0.716 0.83,-1.761 0.83,-3.134c0,-1.361 -0.276,-2.393 -0.83,-3.096c-0.547,-0.71 -1.357,-1.064 -2.431,-1.064c-1.062,0 -1.862,0.348 -2.403,1.044c-0.54,0.697 -0.81,1.735 -0.81,3.116zm12.627,5.361l-1.621,0l0,-15.195l1.621,0l0,15.195zm5.058,0l-1.621,0l0,-10.703l1.621,0l0,10.703zm-1.758,-13.604c0,-0.371 0.092,-0.641 0.274,-0.81c0.182,-0.176 0.41,-0.264 0.684,-0.264c0.26,0 0.485,0.088 0.673,0.264c0.189,0.176 0.284,0.446 0.284,0.81c0,0.365 -0.095,0.639 -0.284,0.821c-0.188,0.176 -0.413,0.263 -0.673,0.263c-0.274,0 -0.502,-0.087 -0.684,-0.263c-0.182,-0.182 -0.274,-0.456 -0.274,-0.821zm11.778,13.604l-0.322,-1.523l-0.079,0c-0.533,0.67 -1.067,1.126 -1.601,1.367c-0.527,0.234 -1.188,0.351 -1.983,0.351c-1.061,0 -1.894,-0.273 -2.5,-0.82c-0.599,-0.547 -0.898,-1.325 -0.898,-2.334c0,-2.161 1.729,-3.294 5.186,-3.398l1.816,-0.059l0,-0.664c0,-0.84 -0.182,-1.458 -0.547,-1.856c-0.358,-0.403 -0.934,-0.605 -1.728,-0.605c-0.892,0 -1.901,0.273 -3.028,0.82l-0.498,-1.24c0.528,-0.286 1.104,-0.511 1.729,-0.674c0.631,-0.163 1.263,-0.244 1.894,-0.244c1.276,0 2.22,0.283 2.832,0.85c0.619,0.566 0.928,1.474 0.928,2.724l0,7.305l-1.201,0zm-3.662,-1.143c1.009,0 1.8,-0.276 2.373,-0.83c0.579,-0.553 0.869,-1.328 0.869,-2.324l0,-0.967l-1.621,0.069c-1.289,0.045 -2.22,0.247 -2.793,0.605c-0.567,0.352 -0.85,0.902 -0.85,1.651c0,0.585 0.176,1.031 0.528,1.337c0.358,0.306 0.856,0.459 1.494,0.459z"/>
  </symbol>
 </defs>
 <g>
  <title>background</title>
  <rect fill="#fff" id="canvas_background" height="602" width="802" y="-1" x="-1"/>
  <g display="none" overflow="visible" y="0" x="0" height="100%" width="100%" id="canvasGrid">
   <rect fill="url(#gridpattern)" stroke-width="0" y="0" x="0" height="100%" width="100%"/>
  </g>
 </g>
 <g>
  <title>Layer 1</title>
  <use x="596.90001" y="607.06001" transform="matrix(0.6652395874944901,0,0,0.8853360654680349,-168.5643088840261,-340.8959758419347) " xlink:href="#svg_1" id="svg_2"/>
  <g stroke="null" id="svg_20">
   <circle stroke="null" transform="matrix(0.6589939994384784,0,0,0.7899528651547456,-6039.800206802041,-5466.746124985742) " id="svg_6" fill-opacity="0.3" fill="#61B1EE" r="14" cy="7242.25023" cx="9370.00021"/>
   <circle stroke="null" transform="matrix(0.6589939994384784,0,0,0.7899528651547456,-6039.800206802041,-5466.746124985742) " id="svg_7" fill-opacity="0.2" fill="#61B1EE" r="16" cy="7221.25023" cx="9623.00021"/>
   <circle stroke="null" transform="matrix(0.6589939994384784,0,0,0.7899528651547456,-6039.800206802041,-5466.746124985742) " id="svg_8" fill-opacity="0.2" fill="#61B1EE" r="23" cy="7473.25023" cx="9862.00021"/>
   <circle stroke="null" transform="matrix(0.6589939994384784,0,0,0.7899528651547456,-6039.800206802041,-5466.746124985742) " id="svg_9" fill-opacity="0.3" fill="#61B1EE" r="20" cy="7453.25023" cx="9476.00021"/>
   <circle stroke="null" transform="matrix(0.6589939994384784,0,0,0.7899528651547456,-6039.800206802041,-5466.746124985742) " id="svg_10" fill-opacity="0.45" fill="#61B1EE" r="7" cy="7369.25023" cx="9313.00021"/>
   <circle stroke="null" transform="matrix(0.6589939994384784,0,0,0.7899528651547456,-6039.800206802041,-5466.746124985742) " id="svg_11" fill-opacity="0.2" fill="#61B1EE" r="13.5" cy="7329.75023" cx="10130.50021"/>
   <circle stroke="null" transform="matrix(0.6589939994384784,0,0,0.7899528651547456,-6039.800206802041,-5466.746124985742) " id="svg_12" fill-opacity="0.2" fill="#61B1EE" r="10" cy="7274.25023" cx="9512.00021"/>
   <circle stroke="null" transform="matrix(0.6589939994384784,0,0,0.7899528651547456,-6039.800206802041,-5466.746124985742) " id="svg_13" fill-opacity="0.4" fill="#61B1EE" r="7" cy="7425.25023" cx="10078.00021"/>
   <circle stroke="null" transform="matrix(0.6589939994384784,0,0,0.7899528651547456,-6039.800206802041,-5466.746124985742) " id="svg_14" fill-opacity="0.4" fill="#61B1EE" r="7" cy="7460.25023" cx="9659.00021"/>
   <circle stroke="null" transform="matrix(0.6589939994384784,0,0,0.7899528651547456,-6039.800206802041,-5466.746124985742) " id="svg_15" fill-opacity="0.35" fill="#61B1EE" r="10" cy="7261.25023" cx="9957.00021"/>
   <circle stroke="null" transform="matrix(0.6589939994384784,0,0,0.7899528651547456,-6039.800206802041,-5466.746124985742) " id="svg_16" fill-opacity="0.45" fill="#61B1EE" r="8.5" cy="7250.75023" cx="10255.50021"/>
   <circle stroke="null" transform="matrix(0.6589939994384784,0,0,0.7899528651547456,-6039.800206802041,-5466.746124985742) " id="svg_17" fill-opacity="0.3" fill="#61B1EE" r="8.5" cy="7417.75023" cx="10287.50021"/>
   <circle stroke="null" transform="matrix(0.6589939994384784,0,0,0.7899528651547456,-6039.800206802041,-5466.746124985742) " id="svg_18" fill-opacity="0.2" fill="#61B1EE" r="5" cy="7233.25023" cx="9557.00021"/>
   <circle stroke="null" transform="matrix(0.6589939994384784,0,0,0.7899528651547456,-6039.800206802041,-5466.746124985742) " id="svg_19" fill-opacity="0.2" fill="#61B1EE" r="5" cy="7428.25023" cx="9579.00021"/>
  </g>
 </g>
</svg>